<?xml version="1.0" encoding="utf-8"?>
<!-- Generator: Adobe Illustrator 22.1.0, SVG Export Plug-In . SVG Version: 6.00 Build 0)  -->
<svg version="1.1" id="Layer_1" xmlns="http://www.w3.org/2000/svg" xmlns:xlink="http://www.w3.org/1999/xlink" x="0px" y="0px"
	 viewBox="0 0 1154 2000" style="enable-background:new 0 0 1154 2000;" xml:space="preserve">
<style type="text/css">
	.st0{opacity:0.71;}
	.st1{fill:#333333;}
	.st2{fill:#00FEFE;}
	.st3{fill:#333333;stroke:#00FEFE;stroke-width:4.7476;stroke-linejoin:round;stroke-miterlimit:10;}
	.st4{fill:none;stroke:#00FEFE;stroke-width:4.7476;stroke-linejoin:round;stroke-miterlimit:10;}
	.st5{fill:none;stroke:#00FEFE;stroke-width:3.165;stroke-linecap:round;stroke-linejoin:round;stroke-miterlimit:10;}
	.st6{fill:none;stroke:#00FEFE;stroke-width:2.9513;stroke-linecap:round;stroke-linejoin:round;stroke-miterlimit:10;}
	.st7{fill:none;stroke:#00FEFE;stroke-width:3.0776;stroke-miterlimit:10;}
	.st8{fill:none;stroke:#00FEFE;stroke-width:3.0776;stroke-linecap:round;stroke-miterlimit:10;}
	.st9{fill:none;stroke:#00FEFE;stroke-width:2.3082;stroke-linecap:round;stroke-miterlimit:10;}
	.st10{fill:none;stroke:#00FEFE;stroke-width:2.3082;stroke-miterlimit:10;}
	.st11{fill:none;stroke:#00FEFE;stroke-width:1.5388;stroke-miterlimit:10;}
	.st12{fill:none;stroke:#00FEFE;stroke-width:1.9129;stroke-miterlimit:10;}
	.st13{fill:none;stroke:#00FEFE;stroke-width:4.7476;stroke-linecap:square;stroke-linejoin:round;stroke-miterlimit:10;}
	.st14{opacity:0.71;fill:#171D19;}
	.st15{fill:none;stroke:#00FEFE;stroke-width:4.3293;stroke-linecap:round;stroke-miterlimit:10;}
	.st16{fill:none;stroke:#00FEFE;stroke-width:4.7476;stroke-linecap:round;stroke-linejoin:round;stroke-miterlimit:10;}
	.st17{fill:#FFD338;}
	.st18{fill:#333333;stroke:#FFD338;stroke-width:4.7476;stroke-linejoin:round;stroke-miterlimit:10;}
	.st19{fill:none;stroke:#FFD338;stroke-width:4.7476;stroke-linejoin:round;stroke-miterlimit:10;}
	.st20{fill:none;stroke:#FFD338;stroke-width:3.165;stroke-linecap:round;stroke-linejoin:round;stroke-miterlimit:10;}
	.st21{fill:none;stroke:#FFD338;stroke-width:2.9513;stroke-linecap:round;stroke-linejoin:round;stroke-miterlimit:10;}
	.st22{fill:none;stroke:#FFD338;stroke-width:3.0776;stroke-miterlimit:10;}
	.st23{fill:none;stroke:#FFD338;stroke-width:3.0776;stroke-linecap:round;stroke-miterlimit:10;}
	.st24{fill:none;stroke:#FFD338;stroke-width:2.3082;stroke-linecap:round;stroke-miterlimit:10;}
	.st25{fill:none;stroke:#FFD338;stroke-width:2.3082;stroke-miterlimit:10;}
	.st26{fill:none;stroke:#FFD338;stroke-width:1.5388;stroke-miterlimit:10;}
	.st27{fill:none;stroke:#FFD338;stroke-width:1.9129;stroke-miterlimit:10;}
	.st28{fill:none;stroke:#FFD338;stroke-width:4.7476;stroke-linecap:square;stroke-linejoin:round;stroke-miterlimit:10;}
	.st29{fill:none;stroke:#FFD338;stroke-width:4.3293;stroke-linecap:round;stroke-miterlimit:10;}
	.st30{fill:none;stroke:#FFD338;stroke-width:4.7476;stroke-linecap:round;stroke-linejoin:round;stroke-miterlimit:10;}
</style>
<g>
	<g>
		<g>
			<polygon class="st0" points="863.2,165.4 860.1,165.4 860.1,168.6 860.1,310.1 860.1,313.2 863.2,313.2 1004.7,313.2 
				1007.9,313.2 1007.9,310.1 1007.9,168.6 1007.9,165.4 1004.7,165.4 			"/>
			<g>
				<g>
					<rect x="856.4" y="161.7" class="st1" width="144.6" height="144.6"/>
					<path class="st2" d="M999.4,163.3v141.5H858V163.3H999.4 M1002.6,160.2h-3.2H858h-3.2v3.2v141.5v3.2h3.2h141.5h3.2v-3.2V163.3
						V160.2L1002.6,160.2z"/>
				</g>
				<g>
					<polygon class="st0" points="980.5,232.6 932,232.6 932,184.2 927.3,184.2 927.3,232.6 878.8,232.6 878.8,237.4 927.3,237.4 
						927.3,285.9 932,285.9 932,237.4 980.5,237.4 					"/>
					<g>
						<line class="st3" x1="978.6" y1="233.1" x2="876.9" y2="233.1"/>
						<line class="st3" x1="927.7" y1="182.3" x2="927.7" y2="284"/>
					</g>
				</g>
			</g>
		</g>
		<g>
			<polygon class="st0" points="151.4,165.4 148.2,165.4 148.2,168.6 148.2,310.1 148.2,313.2 151.4,313.2 292.9,313.2 296,313.2 
				296,310.1 296,168.6 296,165.4 292.9,165.4 			"/>
			<g>
				<g>
					<rect x="144.5" y="161.7" class="st1" width="144.6" height="144.6"/>
					<path class="st2" d="M287.6,163.3v141.5H146.1V163.3H287.6 M290.8,160.2h-3.2H146.1H143v3.2v141.5v3.2h3.2h141.5h3.2v-3.2
						V163.3V160.2L290.8,160.2z"/>
				</g>
				<g>
					<path class="st0" d="M201,266.1c0,0-0.1,0-0.1,0c-0.7,0-1.3-0.4-1.7-0.9l-24.3-30.6l3.7-2.9l22.6,28.5l56.1-56.1l3.4,3.4
						l-58,58C202.3,265.8,201.7,266.1,201,266.1z"/>
					<polyline class="st4" points="174.9,231.2 199.1,261.8 257.2,203.8 					"/>
				</g>
			</g>
		</g>
		<g>
			<polygon class="st0" points="626.1,165.4 623,165.4 623,168.6 623,310.1 623,313.2 626.1,313.2 767.6,313.2 770.8,313.2 
				770.8,310.1 770.8,168.6 770.8,165.4 767.6,165.4 			"/>
			<g>
				<g>
					<rect x="619.3" y="161.7" class="st1" width="144.6" height="144.6"/>
					<path class="st2" d="M762.3,163.3v141.5H620.9V163.3H762.3 M765.5,160.2h-3.2H620.9h-3.2v3.2v141.5v3.2h3.2h141.5h3.2v-3.2
						V163.3V160.2L765.5,160.2z"/>
				</g>
				<g>
					<polygon class="st0" points="734.6,196.2 731.2,192.9 692.5,231.6 653.8,192.9 650.4,196.2 689.1,235 650.4,273.7 653.8,277 
						692.5,238.3 731.2,277 734.6,273.7 695.8,235 					"/>
					<g>
						<g>
							<line class="st3" x1="731.1" y1="192.8" x2="650.3" y2="273.6"/>
							<line class="st3" x1="650.3" y1="192.8" x2="731.1" y2="273.6"/>
						</g>
					</g>
				</g>
			</g>
		</g>
		<g>
			<polygon class="st0" points="388.8,376.2 385.6,376.2 385.6,379.4 385.6,520.9 385.6,524 388.8,524 530.2,524 533.4,524 
				533.4,520.9 533.4,379.4 533.4,376.2 530.2,376.2 			"/>
			<g>
				<g>
					<rect x="381.9" y="372.5" class="st1" width="144.6" height="144.6"/>
					<path class="st2" d="M525,374.1v141.5H383.5V374.1H525 M528.1,370.9H525H383.5h-3.2v3.2v141.5v3.2h3.2H525h3.2v-3.2V374.1
						V370.9L528.1,370.9z"/>
				</g>
				<g>
					<path class="st0" d="M468.9,416.9c-0.9-0.6-2-0.6-3-0.2l-22,10.6h-12.1c-4.9,0-9,4-9,9v19c0,4.9,4,9,9,9H444l22,10.6
						c0.4,0.2,0.9,0.3,1.3,0.3c0.6,0,1.1-0.2,1.6-0.5c0.9-0.6,1.5-1.6,1.5-2.6v-52.5C470.4,418.5,469.8,417.5,468.9,416.9z
						 M426.1,455.3v-19c0-3.2,2.6-5.8,5.8-5.8h10.9v30.6h-10.9C428.7,461.1,426.1,458.5,426.1,455.3z M445.9,461.7v-31.7l21.3-10.4
						l0.1,52.4L445.9,461.7z"/>
					<path class="st0" d="M478,464.2c-0.4,0-0.8-0.2-1.1-0.5c-0.6-0.6-0.6-1.6,0-2.2c5-5,7.5-10.4,7.4-15.9
						c-0.2-9-7.3-15.5-7.3-15.6c-0.6-0.6-0.7-1.6-0.1-2.2c0.6-0.6,1.6-0.7,2.2-0.1c0.3,0.3,8.1,7.5,8.4,17.8
						c0.1,6.4-2.6,12.5-8.3,18.2C478.9,464.1,478.5,464.2,478,464.2z"/>
					<g>
						<path class="st5" d="M442.4,460.8h-10.9c-5,0-9-4-9-9V436c0-5,4-9,9-9h10.9V460.8z"/>
						<path class="st5" d="M442.4,427l22.3-10.7c1-0.5,2.2,0.2,2.2,1.4v52.5c0,1.1-1.2,1.9-2.2,1.4l-22.3-10.7V427z"/>
						<path class="st5" d="M476.2,427c0,0,17.7,16.1,0,33.7"/>
					</g>
				</g>
			</g>
		</g>
		<g>
			<polygon class="st0" points="388.8,165.4 385.6,165.4 385.6,168.6 385.6,310.1 385.6,313.2 388.8,313.2 530.2,313.2 533.4,313.2 
				533.4,310.1 533.4,168.6 533.4,165.4 530.2,165.4 			"/>
			<g>
				<g>
					<rect x="381.9" y="161.7" class="st1" width="144.6" height="144.6"/>
					<path class="st2" d="M525,163.3v141.5H383.5V163.3H525 M528.1,160.2H525H383.5h-3.2v3.2v141.5v3.2h3.2H525h3.2v-3.2V163.3
						V160.2L528.1,160.2z"/>
				</g>
				<g>
					<path class="st0" d="M483.6,273.5h-21.7c-0.9,0-1.6-0.7-1.6-1.6v-20.6l-9.4,0.1v20.5c0,0.9-0.7,1.6-1.6,1.6h-21.7
						c-0.9,0-1.6-0.7-1.6-1.6v-31.5h-11c-0.6,0-1.2-0.4-1.5-1c-0.2-0.6-0.1-1.3,0.3-1.7l40.8-40.8c0.6-0.6,1.6-0.6,2.2,0l39.6,39.6
						c0.5,0.5,0.6,1.1,0.3,1.7c-0.2,0.6-0.8,1-1.5,1h-10.2v32.6C485.2,272.8,484.4,273.5,483.6,273.5z M463.5,270.4H482v-32.6
						c0-0.9,0.7-1.6,1.6-1.6h8l-35.8-35.8l-36.9,36.9h8.8c0.9,0,1.6,0.7,1.6,1.6v31.5h18.5v-20.5c0-0.9,0.7-1.6,1.6-1.6l12.6-0.2
						c0.4,0,0.8,0.2,1.1,0.5s0.5,0.7,0.5,1.1V270.4z"/>
					<path class="st0" d="M488.2,221.7c-0.4,0-0.8-0.1-1-0.4l-16.6-16.6c-0.4-0.4-0.5-1.1-0.3-1.6c0.2-0.6,0.8-0.9,1.4-0.9h16.6
						c0.8,0,1.5,0.7,1.5,1.5v16.6c0,0.6-0.4,1.1-0.9,1.4C488.6,221.7,488.4,221.7,488.2,221.7z M475.1,205.1l11.6,11.6v-11.6H475.1z
						"/>
					<g>
						<polygon class="st5" points="447.4,248 447.4,270 425.7,270 425.7,237 413.1,237 453.9,196.2 493.5,235.8 481.7,235.8 
							481.7,270 460,270 460,247.8 						"/>
						<polygon class="st6" points="469.7,201.7 486.3,218.4 486.3,201.7 						"/>
					</g>
				</g>
			</g>
		</g>
		<g>
			<polygon class="st0" points="626.1,376.2 623,376.2 623,379.4 623,520.9 623,524 626.1,524 767.6,524 770.8,524 770.8,520.9 
				770.8,379.4 770.8,376.2 767.6,376.2 			"/>
			<g>
				<g>
					<rect x="619.3" y="372.5" class="st1" width="144.6" height="144.6"/>
					<path class="st2" d="M762.3,374.1v141.5H620.9V374.1H762.3 M765.5,370.9h-3.2H620.9h-3.2v3.2v141.5v3.2h3.2h141.5h3.2v-3.2
						V374.1V370.9L765.5,370.9z"/>
				</g>
				<g>
					<path class="st0" d="M696.5,416.9c-0.9-0.6-2-0.6-3-0.2l-22,10.6h-12.1c-4.9,0-9,4-9,9v19c0,4.9,4,9,9,9h12.1l22,10.6
						c0.4,0.2,0.9,0.3,1.3,0.3c0.6,0,1.1-0.2,1.6-0.5c0.9-0.6,1.5-1.6,1.5-2.6v-52.5C697.9,418.5,697.4,417.5,696.5,416.9z
						 M653.6,455.3v-19c0-3.2,2.6-5.8,5.8-5.8h10.9v30.6h-10.9C656.2,461.1,653.6,458.5,653.6,455.3z M673.5,461.7v-31.7l21.3-10.4
						l0.1,52.4L673.5,461.7z"/>
					<path class="st0" d="M722.7,447l11.6-17.6c0.5-0.7,0.3-1.7-0.4-2.2s-1.7-0.3-2.2,0.4l-10.9,16.5l-10.9-16.5
						c-0.5-0.7-1.5-0.9-2.2-0.4c-0.7,0.5-0.9,1.5-0.4,2.2L719,447l-11.6,17.6c-0.5,0.7-0.3,1.7,0.4,2.2c0.3,0.2,0.6,0.3,0.9,0.3
						c0.5,0,1-0.2,1.3-0.7l10.9-16.5l10.9,16.5c0.3,0.5,0.8,0.7,1.3,0.7c0.3,0,0.6-0.1,0.9-0.3c0.7-0.5,0.9-1.5,0.4-2.2L722.7,447z"
						/>
					<g>
						<path class="st5" d="M670,460.8h-10.9c-5,0-9-4-9-9V436c0-5,4-9,9-9H670V460.8z"/>
						<path class="st5" d="M670,427l22.3-10.7c1-0.5,2.2,0.2,2.2,1.4v52.5c0,1.1-1.2,1.9-2.2,1.4L670,460.8V427z"/>
						<g>
							<line class="st5" x1="706.7" y1="463.5" x2="731.2" y2="426.6"/>
							<line class="st5" x1="731.2" y1="463.5" x2="706.7" y2="426.6"/>
						</g>
					</g>
				</g>
			</g>
		</g>
		<g>
			<polygon class="st0" points="151.4,376.2 148.2,376.2 148.2,379.4 148.2,520.9 148.2,524 151.4,524 292.9,524 296,524 296,520.9 
				296,379.4 296,376.2 292.9,376.2 			"/>
			<g>
				<g>
					<rect x="144.5" y="372.5" class="st1" width="144.6" height="144.6"/>
					<path class="st2" d="M287.6,374.1v141.5H146.1V374.1H287.6 M290.8,370.9h-3.2H146.1H143v3.2v141.5v3.2h3.2h141.5h3.2v-3.2
						V374.1V370.9L290.8,370.9z"/>
				</g>
				<g>
					<path class="st0" d="M234.8,430.1c-0.1-10-3.2-19.5-9.1-27.6c-1.9-2.6-4.7-4-7.9-4c-3.2,0-6,1.5-7.9,4
						c-5.9,8.1-9,17.6-9.1,27.6h0v0.3v2.8v0.3v44.2v3.2h2.5v2.7v0.2h-2.4v3.2v3v3.2h3.2h27.5h3.2v-3.2v-3v-3.2h-2.4v-0.2v-2.7h2.4
						v-3.2v-44.2v-0.4v-2.8L234.8,430.1L234.8,430.1z M212.5,404.4c1.3-1.8,3.3-2.7,5.3-2.7c2,0,4,0.9,5.3,2.7
						c5.4,7.5,8.4,16.5,8.5,25.7H204C204.1,420.9,207,411.9,212.5,404.4z M206.5,483.6v-2.7h22.7v2.7H206.5z M231.6,489.9h-27.5v-3
						h27.5V489.9z M231.6,477.5h-2.4h-22.7H204v-43.9h27.6V477.5z"/>
					<g>
						<g>
							<path class="st2" d="M229.7,431.4v44.5h-27.6v-44.5H229.7 M232.9,428.2h-3.2h-27.6h-3.2v3.2v44.5v3.2h3.2h27.6h3.2v-3.2
								v-44.5V428.2L232.9,428.2z"/>
						</g>
						<g>
							<path class="st2" d="M227.3,478.8v3h-22.7v-3H227.3 M230.5,475.6h-3.2h-22.7h-3.2v3.2v3v3.2h3.2h22.7h3.2v-3.2v-3V475.6
								L230.5,475.6z"/>
						</g>
						<g>
							<path class="st2" d="M229.7,485.1v3h-27.5v-3H229.7 M232.9,481.9h-3.2h-27.5H199v3.2v3v3.2h3.2h27.5h3.2V488v-3V481.9
								L232.9,481.9z"/>
						</g>
						<g>
							<path class="st2" d="M215.9,399.8c2,0,4,0.9,5.3,2.7c5.5,7.6,8.5,16.7,8.5,26v0h-27.6v0c0-9.4,3-18.5,8.5-26
								C211.9,400.7,213.9,399.8,215.9,399.8 M215.9,396.6c-3.2,0-6,1.5-7.9,4c-5.9,8.2-9.1,17.8-9.1,27.9v3.2l3.2,0h27.6h3.2v-3.2
								c0-10.1-3.1-19.8-9.1-27.9C222,398.1,219.1,396.6,215.9,396.6L215.9,396.6z"/>
						</g>
					</g>
				</g>
			</g>
		</g>
		<g>
			<polygon class="st0" points="151.4,587 148.2,587 148.2,590.2 148.2,731.6 148.2,734.8 151.4,734.8 292.9,734.8 296,734.8 
				296,731.6 296,590.2 296,587 292.9,587 			"/>
			<g>
				<g>
					<rect x="144.5" y="583.3" class="st1" width="144.6" height="144.6"/>
					<path class="st2" d="M287.6,584.9v141.5H146.1V584.9H287.6 M290.8,581.7h-3.2H146.1H143v3.2v141.5v3.2h3.2h141.5h3.2v-3.2
						V584.9V581.7L290.8,581.7z"/>
				</g>
				<g>
					<path class="st0" d="M272.4,691.7l-28.3-28.3l2.6-2.6l-11.1-11.1l1.5-1.5l5.5,5.5l1.4-1.4l1.1,1.1l-1.4,1.4l2.6,2.6
						c0.3,0.3,0.8,0.5,1.3,0.5c0.5,0,0.9-0.2,1.3-0.5l7.7-7.7c0.7-0.7,0.7-1.8,0-2.5l-2.6-2.6l-2.3,2.3l-1.1-1.1l1.9-1.9L229.8,621
						c-0.9-0.9-2.4-0.9-3.4,0l-2.9-2.9c-0.4-0.4-0.9-0.6-1.4-0.6h0c-0.5,0-1,0.2-1.4,0.6l-4.2,4.2c-0.8,0.8-0.8,2.1,0,2.9l3,3
						c-0.4,0.9-0.3,2,0.5,2.7l3.5,3.5l-3.7-0.6l-26.9-26.9l-4.9,2.2l-6.1-6.1c-1-1-2.7-1-3.7,0l-4.7,4.7c-0.5,0.5-0.8,1.2-0.8,1.9
						c0,0.7,0.3,1.4,0.8,1.9l3,3l-1.9,0.9l-2.5-2.5c-0.8-0.8-2.2-0.8-3,0l-2.5,2.5c-0.4,0.4-0.6,0.9-0.6,1.5c0,0.6,0.2,1.1,0.6,1.5
						l12.7,12.7c-4,2.9-8.8,4.7-11.9,5.6c-2.9,0.9-4.9,3.6-4.9,6.6c0,2.5,1.4,4.9,3.6,6.1l2,1.1c1.1,0.6,2.2,0.9,3.4,0.9
						c1.4,0,2.7-0.4,3.9-1.2l17.2-11.6c-0.3,6.4,1,11,3.8,13.8c1.4,1.5,3,2.1,4.2,2.5c-0.5,0.9-1,1.9-1.6,3c-1.6,3-3.6,5.5-6,7.5
						c-2.8,2.3-3.8,6.2-2.4,9.5l1.7,4c1,2.3,3,4.1,5.4,4.7c0.7,0.2,1.4,0.3,2.1,0.3c2.7,0,5.3-1.4,6.8-3.7l11.5-17.9l15.9,15.9
						l5.4-5.4l21.9,21.9l-9.6,9.6c-1.2,1.2-1.2,3.1,0,4.3l1.9,1.9c0.6,0.6,1.4,0.9,2.1,0.9c0.8,0,1.5-0.3,2.1-0.9l14.6-14.6
						C273.5,694.5,273.5,692.8,272.4,691.7z M255.2,648.4l-7.5,7.5l-1.1-1.1l7.5-7.5L255.2,648.4z M180,605.5l5,5l-5.6,2.5l-3.5-3.5
						L180,605.5z M250.5,647.8l-4.4,4.4l-1-1l4.4-4.4L250.5,647.8z M222.1,619.9l2.7,2.7l-3.8,3.8l-2.7-2.7L222.1,619.9z
						 M222.6,629.2l5.5-5.5l20.1,20.1l-5.5,5.5l-3.3-3.3l0,0l-10.8-10.8h0L222.6,629.2z M227.1,638.1l7.9,7.9l-1.5,1.5l-10-10
						L227.1,638.1z M168.3,616.6l2.2-2.2l12.7,12.7c-0.7,0.8-1.4,1.5-2.2,2.2L168.3,616.6z M173.5,647.3c-1.2,0.8-2.8,0.9-4,0.2
						l-2-1.1c-1.2-0.7-2-2-2-3.4c0-1.7,1.1-3.2,2.7-3.7c4.5-1.4,12.4-4.5,17.2-10.1l6.1,6.1L173.5,647.3z M197.8,650.5
						c-2.2-2.3-3.2-6.4-3.1-11.8l7.3,7.3l-2.7,0.5c-0.6,0.1-1.1,0.7-0.9,1.3c0.1,0.6,0.6,1,1.1,1c0.1,0,0.1,0,0.2,0l3.6-0.6
						c-0.4,0.9-1,2.3-1.9,4.3C200.6,652.3,199.1,651.8,197.8,650.5z M203.9,678.1c-1.2,1.9-3.5,2.7-5.6,2.2
						c-1.5-0.4-2.8-1.5-3.4-2.9l-1.7-4c-0.9-2.1-0.3-4.4,1.5-5.9c2.7-2.2,5-5,6.8-8.4c2.4-4.4,3.7-7.3,4.5-9.1l9.8,9.8L203.9,678.1z
						 M233.9,673.5l-56.3-56.3l1.1-0.5l0,0l1.8-0.8c0.1,0.1,0.1,0.3,0.3,0.4l21.7,21.7c0.2,0.2,0.5,0.3,0.8,0.3
						c0.3,0,0.6-0.1,0.8-0.3c0.5-0.5,0.5-1.2,0-1.6l-21.4-21.4l2.6-1.2l20.7,20.7c0.2,0.2,0.5,0.3,0.8,0.3c0.3,0,0.6-0.1,0.8-0.3
						c0.5-0.5,0.5-1.2,0-1.6l-20.1-20.1l4.7-2.1l22.4,22.4h0l18.9,18.9l0,0l8.9,8.9l-0.4,0.4l-6.9,6.9l2.1,2.1L233.9,673.5z
						 M255.8,707.9l-1.9-1.9l9.8-9.8c0.5-0.5,0.8-1.2,0.8-1.9c0-0.7-0.3-1.4-0.8-1.9l-22.2-22.2l0,0l-2.1-2.1l2.5-2.5l28,28
						L255.8,707.9z"/>
					<g>
						<path class="st7" d="M250.9,705.2l1.9,1.9c0.6,0.6,1.5,0.6,2.1,0l14.6-14.6c0.4-0.4,0.4-1.2,0-1.6l-29.4-29.4l-4.7,4.7
							l25.4,25.4c0.4,0.4,0.4,1.2,0,1.6l-9.8,9.8C250.3,703.7,250.3,704.6,250.9,705.2z"/>
						<polygon class="st7" points="238.1,663.4 242.7,658.9 190.6,606.8 173,614.8 232,673.7 237.4,668.3 235.3,666.2 						"/>
						<path class="st8" d="M185.7,609l-6.9-6.9c-0.4-0.4-1.1-0.4-1.5,0l-4.7,4.7c-0.4,0.4-0.4,1.1,0,1.5l4.5,4.5L185.7,609z"/>
						<path class="st7" d="M215.9,657.6l-12.6,19.5c-1.6,2.4-4.5,3.5-7.3,2.8l0,0c-2-0.5-3.6-1.9-4.4-3.8l-1.7-4
							c-1.1-2.7-0.3-5.8,2-7.7c2-1.6,4.4-4.2,6.4-7.9c4.4-8.3,5.2-11.2,5.2-11.2"/>
						<line class="st9" x1="183.9" y1="610.7" x2="204.9" y2="631.7"/>
						<line class="st9" x1="179.7" y1="613.5" x2="201.4" y2="635.2"/>
						<path class="st7" d="M191.9,633.7l-19.4,13.1c-1.7,1.1-3.9,1.2-5.6,0.2l-2-1.1c-1.7-1-2.8-2.8-2.8-4.7v0
							c0-2.4,1.5-4.5,3.8-5.2c4.9-1.5,13.3-4.9,17.5-10.9"/>
						<path class="st10" d="M200.7,651.8c0,0-10.7,0.8-8.8-18.2"/>
						<line class="st9" x1="203.1" y1="644.8" x2="197.7" y2="645.7"/>
						<path class="st9" d="M183,625.3l-13.8-13.8c-0.4-0.4-1-0.4-1.3,0l-2.5,2.5c-0.4,0.4-0.4,1,0,1.3l13.9,13.9L183,625.3z"/>
						<g>
							<polygon class="st8" points="217.1,633.3 225.9,634.7 235.3,644.1 231.6,647.8 							"/>
							<path class="st8" d="M240.8,649.6l-21.6-21.6c-0.4-0.4-0.4-1.1,0-1.5l6.2-6.2c0.4-0.4,1.1-0.4,1.5,0l21.6,21.6L240.8,649.6z"
								/>
							<path class="st10" d="M224.8,621l-4-4c-0.3-0.3-0.9-0.3-1.2,0l-4.2,4.2c-0.3,0.3-0.3,0.9,0,1.2l4,4L224.8,621z"/>
							
								<rect x="241.9" y="645.5" transform="matrix(0.7071 -0.7071 0.7071 0.7071 -385.7827 363.3437)" class="st11" width="7.7" height="3.7"/>
							<path class="st12" d="M243.3,652.9l8.9-8.9l1.9,1.9c0.3,0.3,0.3,0.8,0,1.2l-7.7,7.7c-0.3,0.3-0.8,0.3-1.2,0L243.3,652.9z"/>
						</g>
					</g>
				</g>
			</g>
		</g>
		<g>
			<polygon class="st0" points="388.8,587 385.6,587 385.6,590.2 385.6,731.6 385.6,734.8 388.8,734.8 530.2,734.8 533.4,734.8 
				533.4,731.6 533.4,590.2 533.4,587 530.2,587 			"/>
			<g>
				<g>
					<rect x="381.9" y="583.3" class="st1" width="144.6" height="144.6"/>
					<path class="st2" d="M525,584.9v141.5H383.5V584.9H525 M528.1,581.7H525H383.5h-3.2v3.2v141.5v3.2h3.2H525h3.2v-3.2V584.9
						V581.7L528.1,581.7z"/>
				</g>
				<g>
					<g>
						<path class="st0" d="M507.7,667.4c1.3,0,2.4-1.1,2.4-2.4v-38.4c0-1.3-1.1-2.4-2.4-2.4h-77.9v-14.5c0-1.3-1.1-2.4-2.4-2.4
							h-27.2v4.7h24.9v14.5V665v11.8c0,1.3,1.1,2.4,2.4,2.4h82.6v-4.7h-80.2v-7H507.7z M429.9,629h75.5v33.7h-75.5V629z"/>
						<path class="st0" d="M438.9,684.9c-5.8,0-10.5,4.7-10.5,10.5s4.7,10.5,10.5,10.5s10.5-4.7,10.5-10.5S444.7,684.9,438.9,684.9z
							 M438.9,701.1c-3.2,0-5.8-2.6-5.8-5.8s2.6-5.8,5.8-5.8c3.2,0,5.8,2.6,5.8,5.8S442.1,701.1,438.9,701.1z"/>
						<path class="st0" d="M475.9,684.9c-5.8,0-10.5,4.7-10.5,10.5s4.7,10.5,10.5,10.5s10.5-4.7,10.5-10.5S481.7,684.9,475.9,684.9z
							 M475.9,701.1c-3.2,0-5.8-2.6-5.8-5.8s2.6-5.8,5.8-5.8c3.2,0,5.8,2.6,5.8,5.8S479.1,701.1,475.9,701.1z"/>
					</g>
					<g>
						<rect x="425.6" y="624.7" class="st13" width="80.2" height="38.4"/>
						<polyline class="st13" points="400.7,607.8 425.6,607.8 425.6,624.7 425.6,663.1 425.6,674.9 505.8,674.9 						"/>
						<circle class="st13" cx="437" cy="693.5" r="8.1"/>
						<circle class="st13" cx="474" cy="693.5" r="8.1"/>
					</g>
				</g>
			</g>
		</g>
		<g>
			<polygon class="st0" points="863.2,376.2 860.1,376.2 860.1,379.4 860.1,520.9 860.1,524 863.2,524 1004.7,524 1007.9,524 
				1007.9,520.9 1007.9,379.4 1007.9,376.2 1004.7,376.2 			"/>
			<g>
				<g>
					<rect x="856.4" y="372.5" class="st1" width="144.6" height="144.6"/>
					<path class="st2" d="M999.4,374.1v141.5H858V374.1H999.4 M1002.6,370.9h-3.2H858h-3.2v3.2v141.5v3.2h3.2h141.5h3.2v-3.2V374.1
						V370.9L1002.6,370.9z"/>
				</g>
				<g>
					<rect x="877.8" y="443.8" class="st14" width="101.7" height="4.7"/>
					<line class="st3" x1="979.5" y1="443.9" x2="877.8" y2="443.9"/>
				</g>
			</g>
		</g>
		<g>
			<polygon class="st0" points="292.9,797.8 151.4,797.8 148.2,797.8 148.2,800.9 148.2,942.4 148.2,945.6 151.4,945.6 292.9,945.6 
				296,945.6 296,942.4 296,800.9 296,797.8 			"/>
			<g>
				<g>
					<rect x="144.5" y="794.1" class="st1" width="144.6" height="144.6"/>
					<path class="st2" d="M287.6,795.7v141.5H146.1V795.7H287.6 M290.8,792.5h-3.2H146.1H143v3.2v141.5v3.2h3.2h141.5h3.2v-3.2
						V795.7V792.5L290.8,792.5z"/>
				</g>
				<g>
					<path class="st0" d="M238.3,847.4c0,2.3-0.3,4.4-0.8,6.2c-0.6,1.8-1.3,3.4-2.3,4.9c-1,1.5-2.2,2.8-3.5,4.1
						c-1.3,1.2-2.8,2.5-4.4,3.7c-1.3,1.1-2.5,2.1-3.7,3.2c-1.2,1.1-2.2,2.2-3,3.4c-0.9,1.2-1.5,2.5-2,3.9c-0.5,1.4-0.8,3-0.8,4.8
						v6.4h-5.5v-5.7c0-2.8,0.3-5.1,0.9-7.1c0.6-2,1.5-3.8,2.6-5.4c1.1-1.6,2.4-3.1,4-4.4c1.5-1.3,3.2-2.7,5.1-4.2
						c1.1-0.9,2.1-1.8,3.1-2.8c0.9-1,1.8-2,2.5-3.1c0.7-1.1,1.3-2.4,1.7-3.7c0.4-1.3,0.6-2.7,0.6-4.3c0-1.7-0.4-3.3-1.2-4.9
						c-0.8-1.6-1.8-3-3.1-4.2c-1.3-1.2-2.7-2.2-4.4-2.9c-1.6-0.7-3.3-1.1-4.9-1.1c-2.3,0-4.4,0.4-6.4,1.2c-1.9,0.8-3.6,2-5.1,3.4
						c-1.4,1.5-2.6,3.2-3.4,5.1c-0.9,2-1.3,4.1-1.5,6.4h-5.5c0.2-3.1,0.8-6,1.9-8.6c1.1-2.7,2.6-4.9,4.5-6.9
						c1.9-1.9,4.1-3.5,6.7-4.6c2.6-1.1,5.5-1.7,8.6-1.7c2.7,0,5.2,0.5,7.5,1.4c2.3,0.9,4.4,2.2,6.1,3.9c1.7,1.7,3.1,3.6,4.1,5.9
						C237.8,842.2,238.3,844.7,238.3,847.4z M215,905.9L215,905.9c-2.8,0-5.1-2.3-5.1-5.1v0c0-2.8,2.3-5.1,5.1-5.1h0
						c2.8,0,5.1,2.3,5.1,5.1v0C220.1,903.7,217.8,905.9,215,905.9z"/>
					<g>
						<path class="st2" d="M236.4,845.5c0,2.3-0.3,4.4-0.8,6.2c-0.6,1.8-1.3,3.4-2.3,4.9c-1,1.5-2.2,2.8-3.5,4.1
							c-1.3,1.2-2.8,2.5-4.4,3.7c-1.3,1.1-2.5,2.1-3.7,3.2c-1.2,1.1-2.2,2.2-3,3.4c-0.9,1.2-1.5,2.5-2,3.9c-0.5,1.4-0.8,3-0.8,4.8
							v6.4h-5.5v-5.7c0-2.8,0.3-5.1,0.9-7.1c0.6-2,1.5-3.8,2.6-5.4c1.1-1.6,2.4-3.1,4-4.4c1.5-1.3,3.2-2.7,5.1-4.2
							c1.1-0.9,2.1-1.8,3.1-2.8c0.9-1,1.8-2,2.5-3.1c0.7-1.1,1.3-2.4,1.7-3.7c0.4-1.3,0.6-2.7,0.6-4.3c0-1.7-0.4-3.3-1.2-4.9
							c-0.8-1.6-1.8-3-3.1-4.2c-1.3-1.2-2.7-2.2-4.4-2.9c-1.6-0.7-3.3-1.1-4.9-1.1c-2.3,0-4.4,0.4-6.4,1.2c-1.9,0.8-3.6,2-5.1,3.4
							c-1.4,1.5-2.6,3.2-3.4,5.1c-0.9,2-1.3,4.1-1.5,6.4h-5.5c0.2-3.1,0.8-6,1.9-8.6c1.1-2.7,2.6-4.9,4.5-6.9
							c1.9-1.9,4.1-3.5,6.7-4.6c2.6-1.1,5.5-1.7,8.6-1.7c2.7,0,5.2,0.5,7.5,1.4c2.3,0.9,4.4,2.2,6.1,3.9c1.7,1.7,3.1,3.6,4.1,5.9
							C235.9,840.3,236.4,842.8,236.4,845.5z M213.1,904L213.1,904c-2.8,0-5.1-2.3-5.1-5.1v0c0-2.8,2.3-5.1,5.1-5.1h0
							c2.8,0,5.1,2.3,5.1,5.1v0C218.2,901.8,215.9,904,213.1,904z"/>
					</g>
				</g>
			</g>
		</g>
		<g>
			<polygon class="st0" points="626.1,587 623,587 623,590.2 623,731.6 623,734.8 626.1,734.8 767.6,734.8 770.8,734.8 770.8,731.6 
				770.8,590.2 770.8,587 767.6,587 			"/>
			<g>
				<g>
					<rect x="619.3" y="583.3" class="st1" width="144.6" height="144.6"/>
					<path class="st2" d="M762.3,584.9v141.5H620.9V584.9H762.3 M765.5,581.7h-3.2H620.9h-3.2v3.2v141.5v3.2h3.2h141.5h3.2v-3.2
						V584.9V581.7L765.5,581.7z"/>
				</g>
				<g>
					<path class="st0" d="M720,644.3h-8.8v-19c0-5.4-4.4-9.7-9.7-9.7h-17.8c-5.4,0-9.7,4.4-9.7,9.7v19h-8.8c-0.9,0-1.6,0.7-1.6,1.6
						v40.7c0,6.1,4.9,11,11,11h36.1c6.1,0,11-4.9,11-11v-40.7C721.6,645,720.9,644.3,720,644.3z M679.6,625.3c0-2.2,1.8-4,4-4h17.8
						c2.2,0,4,1.8,4,4V643h-25.8V625.3z M718.4,686.6c0,4.3-3.5,7.8-7.8,7.8h-36.1c-4.3,0-7.8-3.5-7.8-7.8v-39.2h51.8V686.6z"/>
					<path class="st0" d="M692.6,660.1c4.2,0,7.6,2.8,7.6,6.4c0,2.8-2.2,5.2-5.3,6.1l3.6,8.2h-11.8l3.6-8.2c-3-0.8-5.3-3.2-5.3-6
						C685,662.9,688.4,660.1,692.6,660.1 M692.6,657.7c-5.5,0-10,3.9-10,8.7c0,3,1.7,5.7,4.5,7.3l-2.6,6c-0.3,0.7-0.3,1.6,0.2,2.3
						c0.4,0.7,1.2,1.1,2,1.1h11.8c0.8,0,1.6-0.4,2-1.1c0.4-0.7,0.5-1.5,0.2-2.3l-2.6-6c2.8-1.6,4.5-4.3,4.5-7.3
						C702.5,661.6,698,657.7,692.6,657.7L692.6,657.7z"/>
					<g>
						<path class="st2" d="M699.6,613.6h-17.8c-5.4,0-9.7,4.4-9.7,9.7V644h37.3v-20.6C709.3,618,704.9,613.6,699.6,613.6z
							 M703.6,641.1h-25.8v-17.7c0-2.2,1.8-4,4-4h17.8c2.2,0,4,1.8,4,4V641.1z"/>
						<path class="st5" d="M706.7,694.1h-32.1c-6.3,0-11.4-5.1-11.4-11.4V644h54.9v38.7C718.1,689,713,694.1,706.7,694.1z"/>
						<g>
							<path class="st2" d="M690.7,658.2c4.2,0,7.6,2.8,7.6,6.4c0,2.8-2.2,5.2-5.3,6.1l3.6,8.2h-11.8l3.6-8.2c-3-0.8-5.3-3.2-5.3-6
								C683.1,661,686.5,658.2,690.7,658.2 M690.7,655.8c-5.5,0-10,3.9-10,8.7c0,3,1.7,5.7,4.5,7.3l-2.6,6c-0.3,0.7-0.3,1.6,0.2,2.3
								c0.4,0.7,1.2,1.1,2,1.1h11.8c0.8,0,1.6-0.4,2-1.1c0.4-0.7,0.5-1.5,0.2-2.3l-2.6-6c2.8-1.6,4.5-4.3,4.5-7.3
								C700.6,659.7,696.1,655.8,690.7,655.8L690.7,655.8z"/>
						</g>
					</g>
				</g>
			</g>
		</g>
		<g>
			<polygon class="st0" points="388.8,797.8 385.6,797.8 385.6,800.9 385.6,942.4 385.6,945.6 388.8,945.6 530.2,945.6 533.4,945.6 
				533.4,942.4 533.4,800.9 533.4,797.8 530.2,797.8 			"/>
			<g>
				<g>
					<rect x="381.9" y="794.1" class="st1" width="144.6" height="144.6"/>
					<path class="st2" d="M525,795.7v141.5H383.5V795.7H525 M528.1,792.5H525H383.5h-3.2v3.2v141.5v3.2h3.2H525h3.2v-3.2V795.7
						V792.5L528.1,792.5z"/>
				</g>
				<g>
					<g>
						<path class="st0" d="M494.1,845.7l-0.1-0.6l-13.5-13.5c0,0,0,0,0,0c-4.1-4.1-11.3-4.6-20.1-1.3c-8.2,3.1-17.1,9.2-25.1,17.1
							c-8,8-14,16.9-17.1,25.1c-3.3,8.8-2.9,15.9,1.3,20.1l13.6,13.6l0.6,0.1c0.2,0.1,1.9,0.4,4.7,0.4c7.2,0,21.8-2.4,37.9-18.4
							C498.3,866,494.3,846.5,494.1,845.7z M422.1,874c2.9-7.7,8.6-16,16.2-23.6c7.5-7.5,15.9-13.3,23.6-16.2c3.4-1.3,6.4-1.9,9-1.9
							c2.8,0,5,0.7,6.4,2.2c2.8,2.8,2.9,8.5,0.3,15.5c-2.9,7.7-8.6,16-16.2,23.6c-7.5,7.5-15.9,13.3-23.6,16.2
							c-7,2.6-12.6,2.5-15.5-0.3C419.6,886.7,419.5,881,422.1,874z M473,885.2c-18.4,18.4-34.8,17.3-38,16.9l-6.1-6.1
							c3.1,0,6.6-0.7,10.5-2.2c8.2-3.1,17.1-9.2,25.1-17.1c8-8,14-16.9,17.1-25.1c1.5-3.9,2.1-7.4,2.2-10.5l6.1,6.1
							C490.4,850.4,491.5,866.7,473,885.2z"/>
						<path class="st0" d="M435.7,881.4c0.4,0.4,1,0.6,1.5,0.6c0.6,0,1.1-0.2,1.5-0.6c0.8-0.8,0.8-2.2,0-3.1l-1.6-1.6l28.6-28.6
							c0.7-0.7,1-1.8,0.6-2.8c-0.4-1-1.3-1.6-2.4-1.6h-10.2c-1.2,0-2.2,1-2.2,2.2s1,2.2,2.2,2.2h6l-25.6,25.6l-1.8-1.8
							c-0.8-0.8-2.2-0.8-3.1,0c-0.8,0.8-0.8,2.2,0,3.1L435.7,881.4z"/>
					</g>
					<g>
						
							<ellipse transform="matrix(0.7071 -0.7071 0.7071 0.7071 -477.0025 568.6931)" class="st15" cx="448" cy="860.1" rx="41" ry="18.5"/>
						<path class="st15" d="M419,889.1l13.1,13.1c0,0,18.9,4.3,40.6-17.4s17.4-40.6,17.4-40.6L477,831.2"/>
						<g>
							<path class="st15" d="M451.9,844H462c0.4,0,0.6,0.5,0.3,0.7l-30.1,30.1"/>
							<line class="st15" x1="428.9" y1="871.5" x2="435.3" y2="877.9"/>
						</g>
					</g>
				</g>
			</g>
		</g>
		<g>
			<polygon class="st0" points="863.2,587 860.1,587 860.1,590.2 860.1,731.6 860.1,734.8 863.2,734.8 1004.7,734.8 1007.9,734.8 
				1007.9,731.6 1007.9,590.2 1007.9,587 1004.7,587 			"/>
			<g>
				<g>
					<rect x="856.4" y="583.3" class="st1" width="144.6" height="144.6"/>
					<path class="st2" d="M999.4,584.9v141.5H858V584.9H999.4 M1002.6,581.7h-3.2H858h-3.2v3.2v141.5v3.2h3.2h141.5h3.2v-3.2V584.9
						V581.7L1002.6,581.7z"/>
				</g>
				<g>
					<path class="st0" d="M896.1,691.8c-0.4,0-0.8-0.1-1.2-0.3c-0.7-0.4-1.2-1.2-1.2-2.1v-65.8c0-0.8,0.5-1.6,1.2-2.1
						c0.7-0.4,1.6-0.4,2.4,0l57.5,32.9c0.7,0.4,1.2,1.2,1.2,2.1c0,0.9-0.5,1.6-1.2,2.1l-57.5,32.9
						C896.9,691.7,896.5,691.8,896.1,691.8z M898.4,627.8v57.6l50.4-28.8L898.4,627.8z"/>
					<path class="st0" d="M963.2,689c-1.3,0-2.4-1.1-2.4-2.4v-60.1c0-1.3,1.1-2.4,2.4-2.4c1.3,0,2.4,1.1,2.4,2.4v60.1
						C965.6,687.9,964.5,689,963.2,689z"/>
					<g>
						<polygon class="st16" points="894.2,687.6 894.2,621.8 951.7,654.7 						"/>
						<line class="st16" x1="961.3" y1="624.6" x2="961.3" y2="684.7"/>
					</g>
				</g>
			</g>
		</g>
		<g>
			<polygon class="st0" points="863.2,797.8 860.1,797.8 860.1,800.9 860.1,942.4 860.1,945.6 863.2,945.6 1004.7,945.6 
				1007.9,945.6 1007.9,942.4 1007.9,800.9 1007.9,797.8 1004.7,797.8 			"/>
			<g>
				<g>
					<rect x="856.4" y="794.1" class="st1" width="144.6" height="144.6"/>
					<path class="st2" d="M999.4,795.7v141.5H858V795.7H999.4 M1002.6,792.5h-3.2H858h-3.2v3.2v141.5v3.2h3.2h141.5h3.2v-3.2V795.7
						V792.5L1002.6,792.5z"/>
				</g>
				<g>
					<path class="st0" d="M963.2,902.6c-0.4,0-0.8-0.1-1.2-0.3l-57.5-32.9c-0.7-0.4-1.2-1.2-1.2-2.1c0-0.9,0.5-1.6,1.2-2.1
						l57.5-32.9c0.7-0.4,1.6-0.4,2.4,0c0.7,0.4,1.2,1.2,1.2,2.1v65.8c0,0.8-0.5,1.6-1.2,2.1C964,902.5,963.6,902.6,963.2,902.6z
						 M910.5,867.4l50.4,28.8v-57.6L910.5,867.4z"/>
					<path class="st0" d="M896.1,899.8c-1.3,0-2.4-1.1-2.4-2.4v-60.1c0-1.3,1.1-2.4,2.4-2.4c1.3,0,2.4,1.1,2.4,2.4v60.1
						C898.4,898.7,897.4,899.8,896.1,899.8z"/>
					<g>
						<polygon class="st16" points="961.3,898.3 961.3,832.6 903.8,865.5 						"/>
						<line class="st16" x1="894.2" y1="835.4" x2="894.2" y2="895.5"/>
					</g>
				</g>
			</g>
		</g>
		<g>
			<polygon class="st0" points="626.1,797.8 623,797.8 623,800.9 623,942.4 623,945.6 626.1,945.6 767.6,945.6 770.8,945.6 
				770.8,942.4 770.8,800.9 770.8,797.8 767.6,797.8 			"/>
			<g>
				<g>
					<rect x="619.3" y="794.1" class="st1" width="144.6" height="144.6"/>
					<path class="st2" d="M762.3,795.7v141.5H620.9V795.7H762.3 M765.5,792.5h-3.2H620.9h-3.2v3.2v141.5v3.2h3.2h141.5h3.2v-3.2
						V795.7V792.5L765.5,792.5z"/>
				</g>
				<path class="st0" d="M720.4,902.6c-0.4,0-0.8-0.1-1.2-0.3l-57.5-32.9c-0.7-0.4-1.2-1.2-1.2-2.1c0-0.9,0.5-1.6,1.2-2.1l57.5-32.9
					c0.7-0.4,1.6-0.4,2.4,0c0.7,0.4,1.2,1.2,1.2,2.1v65.8c0,0.8-0.5,1.6-1.2,2.1C721.2,902.5,720.8,902.6,720.4,902.6z M667.6,867.4
					l50.4,28.8v-57.6L667.6,867.4z"/>
			</g>
			<polygon class="st16" points="720.4,898.3 720.4,832.6 662.8,865.5 			"/>
		</g>
	</g>
	<g>
		<g>
			<polygon class="st0" points="863.2,1056.5 860.1,1056.5 860.1,1059.7 860.1,1201.2 860.1,1204.3 863.2,1204.3 1004.7,1204.3 
				1007.9,1204.3 1007.9,1201.2 1007.9,1059.7 1007.9,1056.5 1004.7,1056.5 			"/>
			<g>
				<g>
					<rect x="856.4" y="1052.8" class="st1" width="144.6" height="144.6"/>
					<path class="st17" d="M999.4,1054.4v141.5H858v-141.5H999.4 M1002.6,1051.3h-3.2H858h-3.2v3.2v141.5v3.2h3.2h141.5h3.2v-3.2
						v-141.5V1051.3L1002.6,1051.3z"/>
				</g>
				<g>
					<polygon class="st0" points="980.5,1123.7 932,1123.7 932,1075.3 927.3,1075.3 927.3,1123.7 878.8,1123.7 878.8,1128.5 
						927.3,1128.5 927.3,1177 932,1177 932,1128.5 980.5,1128.5 					"/>
					<g>
						<line class="st18" x1="978.6" y1="1124.2" x2="876.9" y2="1124.2"/>
						<line class="st18" x1="927.7" y1="1073.4" x2="927.7" y2="1175.1"/>
					</g>
				</g>
			</g>
		</g>
		<g>
			<polygon class="st0" points="151.4,1056.5 148.2,1056.5 148.2,1059.7 148.2,1201.2 148.2,1204.3 151.4,1204.3 292.9,1204.3 
				296,1204.3 296,1201.2 296,1059.7 296,1056.5 292.9,1056.5 			"/>
			<g>
				<g>
					<rect x="144.5" y="1052.8" class="st1" width="144.6" height="144.6"/>
					<path class="st17" d="M287.6,1054.4v141.5H146.1v-141.5H287.6 M290.8,1051.3h-3.2H146.1H143v3.2v141.5v3.2h3.2h141.5h3.2v-3.2
						v-141.5V1051.3L290.8,1051.3z"/>
				</g>
				<g>
					<path class="st0" d="M201,1157.1c0,0-0.1,0-0.1,0c-0.7,0-1.3-0.4-1.7-0.9l-24.3-30.6l3.7-2.9l22.6,28.5l56.1-56.1l3.4,3.4
						l-58,58C202.3,1156.9,201.7,1157.1,201,1157.1z"/>
					<polyline class="st19" points="174.9,1122.3 199.1,1152.9 257.2,1094.8 					"/>
				</g>
			</g>
		</g>
		<g>
			<polygon class="st0" points="626.1,1056.5 623,1056.5 623,1059.7 623,1201.2 623,1204.3 626.1,1204.3 767.6,1204.3 770.8,1204.3 
				770.8,1201.2 770.8,1059.7 770.8,1056.5 767.6,1056.5 			"/>
			<g>
				<g>
					<rect x="619.3" y="1052.8" class="st1" width="144.6" height="144.6"/>
					<path class="st17" d="M762.3,1054.4v141.5H620.9v-141.5H762.3 M765.5,1051.3h-3.2H620.9h-3.2v3.2v141.5v3.2h3.2h141.5h3.2v-3.2
						v-141.5V1051.3L765.5,1051.3z"/>
				</g>
				<g>
					<polygon class="st0" points="734.6,1087.3 731.2,1084 692.5,1122.7 653.8,1084 650.4,1087.3 689.1,1126 650.4,1164.8 
						653.8,1168.1 692.5,1129.4 731.2,1168.1 734.6,1164.8 695.8,1126 					"/>
					<g>
						<g>
							<line class="st18" x1="731.1" y1="1083.9" x2="650.3" y2="1164.7"/>
							<line class="st18" x1="650.3" y1="1083.9" x2="731.1" y2="1164.7"/>
						</g>
					</g>
				</g>
			</g>
		</g>
		<g>
			<polygon class="st0" points="388.8,1267.3 385.6,1267.3 385.6,1270.5 385.6,1412 385.6,1415.1 388.8,1415.1 530.2,1415.1 
				533.4,1415.1 533.4,1412 533.4,1270.5 533.4,1267.3 530.2,1267.3 			"/>
			<g>
				<g>
					<rect x="381.9" y="1263.6" class="st1" width="144.6" height="144.6"/>
					<path class="st17" d="M525,1265.2v141.5H383.5v-141.5H525 M528.1,1262H525H383.5h-3.2v3.2v141.5v3.2h3.2H525h3.2v-3.2v-141.5
						V1262L528.1,1262z"/>
				</g>
				<g>
					<path class="st0" d="M468.9,1308c-0.9-0.6-2-0.6-3-0.2l-22,10.6h-12.1c-4.9,0-9,4-9,9v19c0,4.9,4,9,9,9H444l22,10.6
						c0.4,0.2,0.9,0.3,1.3,0.3c0.6,0,1.1-0.2,1.6-0.5c0.9-0.6,1.5-1.6,1.5-2.6v-52.5C470.4,1309.6,469.8,1308.6,468.9,1308z
						 M426.1,1346.4v-19c0-3.2,2.6-5.8,5.8-5.8h10.9v30.6h-10.9C428.7,1352.2,426.1,1349.6,426.1,1346.4z M445.9,1352.8V1321
						l21.3-10.4l0.1,52.4L445.9,1352.8z"/>
					<path class="st0" d="M478,1355.3c-0.4,0-0.8-0.2-1.1-0.5c-0.6-0.6-0.6-1.6,0-2.2c5-5,7.5-10.4,7.4-15.9
						c-0.2-9-7.3-15.5-7.3-15.6c-0.6-0.6-0.7-1.6-0.1-2.2c0.6-0.6,1.6-0.7,2.2-0.1c0.3,0.3,8.1,7.5,8.4,17.8
						c0.1,6.4-2.6,12.5-8.3,18.2C478.9,1355.2,478.5,1355.3,478,1355.3z"/>
					<g>
						<path class="st20" d="M442.4,1351.9h-10.9c-5,0-9-4-9-9v-15.8c0-5,4-9,9-9h10.9V1351.9z"/>
						<path class="st20" d="M442.4,1318.1l22.3-10.7c1-0.5,2.2,0.2,2.2,1.4v52.5c0,1.1-1.2,1.9-2.2,1.4l-22.3-10.7V1318.1z"/>
						<path class="st20" d="M476.2,1318.1c0,0,17.7,16.1,0,33.7"/>
					</g>
				</g>
			</g>
		</g>
		<g>
			<polygon class="st0" points="388.8,1056.5 385.6,1056.5 385.6,1059.7 385.6,1201.2 385.6,1204.3 388.8,1204.3 530.2,1204.3 
				533.4,1204.3 533.4,1201.2 533.4,1059.7 533.4,1056.5 530.2,1056.5 			"/>
			<g>
				<g>
					<rect x="381.9" y="1052.8" class="st1" width="144.6" height="144.6"/>
					<path class="st17" d="M525,1054.4v141.5H383.5v-141.5H525 M528.1,1051.3H525H383.5h-3.2v3.2v141.5v3.2h3.2H525h3.2v-3.2v-141.5
						V1051.3L528.1,1051.3z"/>
				</g>
				<g>
					<path class="st0" d="M483.6,1164.6h-21.7c-0.9,0-1.6-0.7-1.6-1.6v-20.6l-9.4,0.1v20.5c0,0.9-0.7,1.6-1.6,1.6h-21.7
						c-0.9,0-1.6-0.7-1.6-1.6v-31.5h-11c-0.6,0-1.2-0.4-1.5-1c-0.2-0.6-0.1-1.3,0.3-1.7l40.8-40.8c0.6-0.6,1.6-0.6,2.2,0l39.6,39.6
						c0.5,0.5,0.6,1.1,0.3,1.7c-0.2,0.6-0.8,1-1.5,1h-10.2v32.6C485.2,1163.9,484.4,1164.6,483.6,1164.6z M463.5,1161.4H482v-32.6
						c0-0.9,0.7-1.6,1.6-1.6h8l-35.8-35.8l-36.9,36.9h8.8c0.9,0,1.6,0.7,1.6,1.6v31.5h18.5V1141c0-0.9,0.7-1.6,1.6-1.6l12.6-0.2
						c0.4,0,0.8,0.2,1.1,0.5s0.5,0.7,0.5,1.1V1161.4z"/>
					<path class="st0" d="M488.2,1112.8c-0.4,0-0.8-0.1-1-0.4l-16.6-16.6c-0.4-0.4-0.5-1.1-0.3-1.6c0.2-0.6,0.8-0.9,1.4-0.9h16.6
						c0.8,0,1.5,0.7,1.5,1.5v16.6c0,0.6-0.4,1.1-0.9,1.4C488.6,1112.8,488.4,1112.8,488.2,1112.8z M475.1,1096.2l11.6,11.6v-11.6
						H475.1z"/>
					<g>
						<polygon class="st20" points="447.4,1139.1 447.4,1161.1 425.7,1161.1 425.7,1128.1 413.1,1128.1 453.9,1087.3 493.5,1126.9 
							481.7,1126.9 481.7,1161.1 460,1161.1 460,1138.9 						"/>
						<polygon class="st21" points="469.7,1092.8 486.3,1109.5 486.3,1092.8 						"/>
					</g>
				</g>
			</g>
		</g>
		<g>
			<polygon class="st0" points="626.1,1267.3 623,1267.3 623,1270.5 623,1412 623,1415.1 626.1,1415.1 767.6,1415.1 770.8,1415.1 
				770.8,1412 770.8,1270.5 770.8,1267.3 767.6,1267.3 			"/>
			<g>
				<g>
					<rect x="619.3" y="1263.6" class="st1" width="144.6" height="144.6"/>
					<path class="st17" d="M762.3,1265.2v141.5H620.9v-141.5H762.3 M765.5,1262h-3.2H620.9h-3.2v3.2v141.5v3.2h3.2h141.5h3.2v-3.2
						v-141.5V1262L765.5,1262z"/>
				</g>
				<g>
					<path class="st0" d="M696.5,1308c-0.9-0.6-2-0.6-3-0.2l-22,10.6h-12.1c-4.9,0-9,4-9,9v19c0,4.9,4,9,9,9h12.1l22,10.6
						c0.4,0.2,0.9,0.3,1.3,0.3c0.6,0,1.1-0.2,1.6-0.5c0.9-0.6,1.5-1.6,1.5-2.6v-52.5C697.9,1309.6,697.4,1308.6,696.5,1308z
						 M653.6,1346.4v-19c0-3.2,2.6-5.8,5.8-5.8h10.9v30.6h-10.9C656.2,1352.2,653.6,1349.6,653.6,1346.4z M673.5,1352.8V1321
						l21.3-10.4l0.1,52.4L673.5,1352.8z"/>
					<path class="st0" d="M722.7,1338l11.6-17.6c0.5-0.7,0.3-1.7-0.4-2.2s-1.7-0.3-2.2,0.4l-10.9,16.5l-10.9-16.5
						c-0.5-0.7-1.5-0.9-2.2-0.4c-0.7,0.5-0.9,1.5-0.4,2.2L719,1338l-11.6,17.6c-0.5,0.7-0.3,1.7,0.4,2.2c0.3,0.2,0.6,0.3,0.9,0.3
						c0.5,0,1-0.2,1.3-0.7l10.9-16.5l10.9,16.5c0.3,0.5,0.8,0.7,1.3,0.7c0.3,0,0.6-0.1,0.9-0.3c0.7-0.5,0.9-1.5,0.4-2.2L722.7,1338z
						"/>
					<g>
						<path class="st20" d="M670,1351.9h-10.9c-5,0-9-4-9-9v-15.8c0-5,4-9,9-9H670V1351.9z"/>
						<path class="st20" d="M670,1318.1l22.3-10.7c1-0.5,2.2,0.2,2.2,1.4v52.5c0,1.1-1.2,1.9-2.2,1.4l-22.3-10.7V1318.1z"/>
						<g>
							<line class="st20" x1="706.7" y1="1354.6" x2="731.2" y2="1317.7"/>
							<line class="st20" x1="731.2" y1="1354.6" x2="706.7" y2="1317.7"/>
						</g>
					</g>
				</g>
			</g>
		</g>
		<g>
			<polygon class="st0" points="151.4,1267.3 148.2,1267.3 148.2,1270.5 148.2,1412 148.2,1415.1 151.4,1415.1 292.9,1415.1 
				296,1415.1 296,1412 296,1270.5 296,1267.3 292.9,1267.3 			"/>
			<g>
				<g>
					<rect x="144.5" y="1263.6" class="st1" width="144.6" height="144.6"/>
					<path class="st17" d="M287.6,1265.2v141.5H146.1v-141.5H287.6 M290.8,1262h-3.2H146.1H143v3.2v141.5v3.2h3.2h141.5h3.2v-3.2
						v-141.5V1262L290.8,1262z"/>
				</g>
				<g>
					<path class="st0" d="M234.8,1321.2c-0.1-10-3.2-19.5-9.1-27.6c-1.9-2.6-4.7-4-7.9-4c-3.2,0-6,1.5-7.9,4
						c-5.9,8.1-9,17.6-9.1,27.6h0v0.3v2.8v0.3v44.2v3.2h2.5v2.7v0.2h-2.4v3.2v3v3.2h3.2h27.5h3.2v-3.2v-3v-3.2h-2.4v-0.2v-2.7h2.4
						v-3.2v-44.2v-0.4v-2.8L234.8,1321.2L234.8,1321.2z M212.5,1295.5c1.3-1.8,3.3-2.7,5.3-2.7c2,0,4,0.9,5.3,2.7
						c5.4,7.5,8.4,16.5,8.5,25.7H204C204.1,1312,207,1303,212.5,1295.5z M206.5,1374.7v-2.7h22.7v2.7H206.5z M231.6,1381h-27.5v-3
						h27.5V1381z M231.6,1368.6h-2.4h-22.7H204v-43.9h27.6V1368.6z"/>
					<g>
						<g>
							<path class="st17" d="M229.7,1322.5v44.5h-27.6v-44.5H229.7 M232.9,1319.3h-3.2h-27.6h-3.2v3.2v44.5v3.2h3.2h27.6h3.2v-3.2
								v-44.5V1319.3L232.9,1319.3z"/>
						</g>
						<g>
							<path class="st17" d="M227.3,1369.8v3h-22.7v-3H227.3 M230.5,1366.7h-3.2h-22.7h-3.2v3.2v3v3.2h3.2h22.7h3.2v-3.2v-3V1366.7
								L230.5,1366.7z"/>
						</g>
						<g>
							<path class="st17" d="M229.7,1376.1v3h-27.5v-3H229.7 M232.9,1373h-3.2h-27.5H199v3.2v3v3.2h3.2h27.5h3.2v-3.2v-3V1373
								L232.9,1373z"/>
						</g>
						<g>
							<path class="st17" d="M215.9,1290.9c2,0,4,0.9,5.3,2.7c5.5,7.6,8.5,16.7,8.5,26v0h-27.6v0c0-9.4,3-18.5,8.5-26
								C211.9,1291.8,213.9,1290.9,215.9,1290.9 M215.9,1287.7c-3.2,0-6,1.5-7.9,4c-5.9,8.2-9.1,17.8-9.1,27.9v3.2l3.2,0h27.6h3.2
								v-3.2c0-10.1-3.1-19.8-9.1-27.9C222,1289.2,219.1,1287.7,215.9,1287.7L215.9,1287.7z"/>
						</g>
					</g>
				</g>
			</g>
		</g>
		<g>
			<polygon class="st0" points="151.4,1478.1 148.2,1478.1 148.2,1481.2 148.2,1622.7 148.2,1625.9 151.4,1625.9 292.9,1625.9 
				296,1625.9 296,1622.7 296,1481.2 296,1478.1 292.9,1478.1 			"/>
			<g>
				<g>
					<rect x="144.5" y="1474.4" class="st1" width="144.6" height="144.6"/>
					<path class="st17" d="M287.6,1476v141.5H146.1V1476H287.6 M290.8,1472.8h-3.2H146.1H143v3.2v141.5v3.2h3.2h141.5h3.2v-3.2V1476
						V1472.8L290.8,1472.8z"/>
				</g>
				<g>
					<path class="st0" d="M272.4,1582.8l-28.3-28.3l2.6-2.6l-11.1-11.1l1.5-1.5l5.5,5.5l1.4-1.4l1.1,1.1l-1.4,1.4l2.6,2.6
						c0.3,0.3,0.8,0.5,1.3,0.5c0.5,0,0.9-0.2,1.3-0.5l7.7-7.7c0.7-0.7,0.7-1.8,0-2.5l-2.6-2.6l-2.3,2.3l-1.1-1.1l1.9-1.9l-22.8-22.8
						c-0.9-0.9-2.4-0.9-3.4,0l-2.9-2.9c-0.4-0.4-0.9-0.6-1.4-0.6h0c-0.5,0-1,0.2-1.4,0.6l-4.2,4.2c-0.8,0.8-0.8,2.1,0,2.9l3,3
						c-0.4,0.9-0.3,2,0.5,2.7l3.5,3.5l-3.7-0.6l-26.9-26.9l-4.9,2.2l-6.1-6.1c-1-1-2.7-1-3.7,0l-4.7,4.7c-0.5,0.5-0.8,1.2-0.8,1.9
						c0,0.7,0.3,1.4,0.8,1.9l3,3l-1.9,0.9l-2.5-2.5c-0.8-0.8-2.2-0.8-3,0l-2.5,2.5c-0.4,0.4-0.6,0.9-0.6,1.5c0,0.6,0.2,1.1,0.6,1.5
						l12.7,12.7c-4,2.9-8.8,4.7-11.9,5.6c-2.9,0.9-4.9,3.6-4.9,6.6c0,2.5,1.4,4.9,3.6,6.1l2,1.1c1.1,0.6,2.2,0.9,3.4,0.9
						c1.4,0,2.7-0.4,3.9-1.2l17.2-11.6c-0.3,6.4,1,11,3.8,13.8c1.4,1.5,3,2.1,4.2,2.5c-0.5,0.9-1,1.9-1.6,3c-1.6,3-3.6,5.5-6,7.5
						c-2.8,2.3-3.8,6.2-2.4,9.5l1.7,4c1,2.3,3,4.1,5.4,4.7c0.7,0.2,1.4,0.3,2.1,0.3c2.7,0,5.3-1.4,6.8-3.7L218,1553l15.9,15.9
						l5.4-5.4l21.9,21.9l-9.6,9.6c-1.2,1.2-1.2,3.1,0,4.3l1.9,1.9c0.6,0.6,1.4,0.9,2.1,0.9c0.8,0,1.5-0.3,2.1-0.9l14.6-14.6
						C273.5,1585.5,273.5,1583.9,272.4,1582.8z M255.2,1539.5l-7.5,7.5l-1.1-1.1l7.5-7.5L255.2,1539.5z M180,1496.6l5,5l-5.6,2.5
						l-3.5-3.5L180,1496.6z M250.5,1538.9l-4.4,4.4l-1-1l4.4-4.4L250.5,1538.9z M222.1,1511l2.7,2.7l-3.8,3.8l-2.7-2.7L222.1,1511z
						 M222.6,1520.3l5.5-5.5l20.1,20.1l-5.5,5.5l-3.3-3.3l0,0l-10.8-10.8h0L222.6,1520.3z M227.1,1529.2l7.9,7.9l-1.5,1.5l-10-10
						L227.1,1529.2z M168.3,1507.7l2.2-2.2l12.7,12.7c-0.7,0.8-1.4,1.5-2.2,2.2L168.3,1507.7z M173.5,1538.4c-1.2,0.8-2.8,0.9-4,0.2
						l-2-1.1c-1.2-0.7-2-2-2-3.4c0-1.7,1.1-3.2,2.7-3.7c4.5-1.4,12.4-4.5,17.2-10.1l6.1,6.1L173.5,1538.4z M197.8,1541.6
						c-2.2-2.3-3.2-6.4-3.1-11.8l7.3,7.3l-2.7,0.5c-0.6,0.1-1.1,0.7-0.9,1.3c0.1,0.6,0.6,1,1.1,1c0.1,0,0.1,0,0.2,0l3.6-0.6
						c-0.4,0.9-1,2.3-1.9,4.3C200.6,1543.4,199.1,1542.9,197.8,1541.6z M203.9,1569.2c-1.2,1.9-3.5,2.7-5.6,2.2
						c-1.5-0.4-2.8-1.5-3.4-2.9l-1.7-4c-0.9-2.1-0.3-4.4,1.5-5.9c2.7-2.2,5-5,6.8-8.4c2.4-4.4,3.7-7.3,4.5-9.1l9.8,9.8L203.9,1569.2
						z M233.9,1564.5l-56.3-56.3l1.1-0.5l0,0l1.8-0.8c0.1,0.1,0.1,0.3,0.3,0.4l21.7,21.7c0.2,0.2,0.5,0.3,0.8,0.3
						c0.3,0,0.6-0.1,0.8-0.3c0.5-0.5,0.5-1.2,0-1.6l-21.4-21.4l2.6-1.2l20.7,20.7c0.2,0.2,0.5,0.3,0.8,0.3c0.3,0,0.6-0.1,0.8-0.3
						c0.5-0.5,0.5-1.2,0-1.6l-20.1-20.1l4.7-2.1l22.4,22.4h0l18.9,18.9l0,0l8.9,8.9l-0.4,0.4l-6.9,6.9l2.1,2.1L233.9,1564.5z
						 M255.8,1599l-1.9-1.9l9.8-9.8c0.5-0.5,0.8-1.2,0.8-1.9c0-0.7-0.3-1.4-0.8-1.9l-22.2-22.2l0,0l-2.1-2.1l2.5-2.5l28,28
						L255.8,1599z"/>
					<g>
						<path class="st22" d="M250.9,1596.3l1.9,1.9c0.6,0.6,1.5,0.6,2.1,0l14.6-14.6c0.4-0.4,0.4-1.2,0-1.6l-29.4-29.4l-4.7,4.7
							l25.4,25.4c0.4,0.4,0.4,1.2,0,1.6l-9.8,9.8C250.3,1594.8,250.3,1595.7,250.9,1596.3z"/>
						<polygon class="st22" points="238.1,1554.5 242.7,1550 190.6,1497.9 173,1505.9 232,1564.8 237.4,1559.4 235.3,1557.3 						
							"/>
						<path class="st23" d="M185.7,1500.1l-6.9-6.9c-0.4-0.4-1.1-0.4-1.5,0l-4.7,4.7c-0.4,0.4-0.4,1.1,0,1.5l4.5,4.5L185.7,1500.1z"
							/>
						<path class="st22" d="M215.9,1548.7l-12.6,19.5c-1.6,2.4-4.5,3.5-7.3,2.8l0,0c-2-0.5-3.6-1.9-4.4-3.8l-1.7-4
							c-1.1-2.7-0.3-5.8,2-7.7c2-1.6,4.4-4.2,6.4-7.9c4.4-8.3,5.2-11.2,5.2-11.2"/>
						<line class="st24" x1="183.9" y1="1501.8" x2="204.9" y2="1522.8"/>
						<line class="st24" x1="179.7" y1="1504.6" x2="201.4" y2="1526.3"/>
						<path class="st22" d="M191.9,1524.8l-19.4,13.1c-1.7,1.1-3.9,1.2-5.6,0.2l-2-1.1c-1.7-1-2.8-2.8-2.8-4.7l0,0
							c0-2.4,1.5-4.5,3.8-5.2c4.9-1.5,13.3-4.9,17.5-10.9"/>
						<path class="st25" d="M200.7,1542.9c0,0-10.7,0.8-8.8-18.2"/>
						<line class="st24" x1="203.1" y1="1535.9" x2="197.7" y2="1536.8"/>
						<path class="st24" d="M183,1516.4l-13.8-13.8c-0.4-0.4-1-0.4-1.3,0l-2.5,2.5c-0.4,0.4-0.4,1,0,1.3l13.9,13.9L183,1516.4z"/>
						<g>
							<polygon class="st23" points="217.1,1524.4 225.9,1525.8 235.3,1535.2 231.6,1538.9 							"/>
							<path class="st23" d="M240.8,1540.7l-21.6-21.6c-0.4-0.4-0.4-1.1,0-1.5l6.2-6.2c0.4-0.4,1.1-0.4,1.5,0l21.6,21.6
								L240.8,1540.7z"/>
							<path class="st25" d="M224.8,1512.1l-4-4c-0.3-0.3-0.9-0.3-1.2,0l-4.2,4.2c-0.3,0.3-0.3,0.9,0,1.2l4,4L224.8,1512.1z"/>
							
								<rect x="241.9" y="1536.6" transform="matrix(0.7071 -0.7071 0.7071 0.7071 -1015.8785 624.338)" class="st26" width="7.7" height="3.7"/>
							<path class="st27" d="M243.3,1544l8.9-8.9l1.9,1.9c0.3,0.3,0.3,0.8,0,1.2l-7.7,7.7c-0.3,0.3-0.8,0.3-1.2,0L243.3,1544z"/>
						</g>
					</g>
				</g>
			</g>
		</g>
		<g>
			<polygon class="st0" points="388.8,1478.1 385.6,1478.1 385.6,1481.2 385.6,1622.7 385.6,1625.9 388.8,1625.9 530.2,1625.9 
				533.4,1625.9 533.4,1622.7 533.4,1481.2 533.4,1478.1 530.2,1478.1 			"/>
			<g>
				<g>
					<rect x="381.9" y="1474.4" class="st1" width="144.6" height="144.6"/>
					<path class="st17" d="M525,1476v141.5H383.5V1476H525 M528.1,1472.8H525H383.5h-3.2v3.2v141.5v3.2h3.2H525h3.2v-3.2V1476
						V1472.8L528.1,1472.8z"/>
				</g>
				<g>
					<g>
						<path class="st0" d="M507.7,1558.5c1.3,0,2.4-1.1,2.4-2.4v-38.4c0-1.3-1.1-2.4-2.4-2.4h-77.9v-14.5c0-1.3-1.1-2.4-2.4-2.4
							h-27.2v4.7h24.9v14.5v38.4v11.8c0,1.3,1.1,2.4,2.4,2.4h82.6v-4.7h-80.2v-7H507.7z M429.9,1520h75.5v33.7h-75.5V1520z"/>
						<path class="st0" d="M438.9,1576c-5.8,0-10.5,4.7-10.5,10.5s4.7,10.5,10.5,10.5s10.5-4.7,10.5-10.5S444.7,1576,438.9,1576z
							 M438.9,1592.2c-3.2,0-5.8-2.6-5.8-5.8c0-3.2,2.6-5.8,5.8-5.8c3.2,0,5.8,2.6,5.8,5.8C444.6,1589.6,442.1,1592.2,438.9,1592.2z
							"/>
						<path class="st0" d="M475.9,1576c-5.8,0-10.5,4.7-10.5,10.5s4.7,10.5,10.5,10.5s10.5-4.7,10.5-10.5S481.7,1576,475.9,1576z
							 M475.9,1592.2c-3.2,0-5.8-2.6-5.8-5.8c0-3.2,2.6-5.8,5.8-5.8c3.2,0,5.8,2.6,5.8,5.8C481.7,1589.6,479.1,1592.2,475.9,1592.2z
							"/>
					</g>
					<g>
						<rect x="425.6" y="1515.8" class="st28" width="80.2" height="38.4"/>
						<polyline class="st28" points="400.7,1498.9 425.6,1498.9 425.6,1515.8 425.6,1554.2 425.6,1566 505.8,1566 						"/>
						<circle class="st28" cx="437" cy="1584.6" r="8.1"/>
						<circle class="st28" cx="474" cy="1584.6" r="8.1"/>
					</g>
				</g>
			</g>
		</g>
		<g>
			<polygon class="st0" points="863.2,1267.3 860.1,1267.3 860.1,1270.5 860.1,1412 860.1,1415.1 863.2,1415.1 1004.7,1415.1 
				1007.9,1415.1 1007.9,1412 1007.9,1270.5 1007.9,1267.3 1004.7,1267.3 			"/>
			<g>
				<g>
					<rect x="856.4" y="1263.6" class="st1" width="144.6" height="144.6"/>
					<path class="st17" d="M999.4,1265.2v141.5H858v-141.5H999.4 M1002.6,1262h-3.2H858h-3.2v3.2v141.5v3.2h3.2h141.5h3.2v-3.2
						v-141.5V1262L1002.6,1262z"/>
				</g>
				<g>
					<rect x="877.8" y="1334.9" class="st14" width="101.7" height="4.7"/>
					<line class="st18" x1="979.5" y1="1335" x2="877.8" y2="1335"/>
				</g>
			</g>
		</g>
		<g>
			<polygon class="st0" points="292.9,1688.9 151.4,1688.9 148.2,1688.9 148.2,1692 148.2,1833.5 148.2,1836.7 151.4,1836.7 
				292.9,1836.7 296,1836.7 296,1833.5 296,1692 296,1688.9 			"/>
			<g>
				<g>
					<rect x="144.5" y="1685.2" class="st1" width="144.6" height="144.6"/>
					<path class="st17" d="M287.6,1686.8v141.5H146.1v-141.5H287.6 M290.8,1683.6h-3.2H146.1H143v3.2v141.5v3.2h3.2h141.5h3.2v-3.2
						v-141.5V1683.6L290.8,1683.6z"/>
				</g>
				<g>
					<path class="st0" d="M238.3,1738.5c0,2.3-0.3,4.4-0.8,6.2c-0.6,1.8-1.3,3.4-2.3,4.9c-1,1.5-2.2,2.8-3.5,4.1
						c-1.3,1.2-2.8,2.5-4.4,3.7c-1.3,1.1-2.5,2.1-3.7,3.2c-1.2,1.1-2.2,2.2-3,3.4c-0.9,1.2-1.5,2.5-2,3.9c-0.5,1.4-0.8,3-0.8,4.8
						v6.4h-5.5v-5.7c0-2.8,0.3-5.1,0.9-7.1c0.6-2,1.5-3.8,2.6-5.4c1.1-1.6,2.4-3.1,4-4.4c1.5-1.3,3.2-2.7,5.1-4.2
						c1.1-0.9,2.1-1.8,3.1-2.8c0.9-1,1.8-2,2.5-3.1c0.7-1.1,1.3-2.4,1.7-3.7c0.4-1.3,0.6-2.7,0.6-4.3c0-1.7-0.4-3.3-1.2-4.9
						c-0.8-1.6-1.8-3-3.1-4.2c-1.3-1.2-2.7-2.2-4.4-2.9c-1.6-0.7-3.3-1.1-4.9-1.1c-2.3,0-4.4,0.4-6.4,1.2c-1.9,0.8-3.6,2-5.1,3.4
						c-1.4,1.5-2.6,3.2-3.4,5.1c-0.9,2-1.3,4.1-1.5,6.4h-5.5c0.2-3.1,0.8-6,1.9-8.6c1.1-2.7,2.6-4.9,4.5-6.9
						c1.9-1.9,4.1-3.5,6.7-4.6c2.6-1.1,5.5-1.7,8.6-1.7c2.7,0,5.2,0.5,7.5,1.4c2.3,0.9,4.4,2.2,6.1,3.9c1.7,1.7,3.1,3.6,4.1,5.9
						C237.8,1733.3,238.3,1735.8,238.3,1738.5z M215,1797L215,1797c-2.8,0-5.1-2.3-5.1-5.1v0c0-2.8,2.3-5.1,5.1-5.1h0
						c2.8,0,5.1,2.3,5.1,5.1v0C220.1,1794.8,217.8,1797,215,1797z"/>
					<g>
						<path class="st17" d="M236.4,1736.6c0,2.3-0.3,4.4-0.8,6.2c-0.6,1.8-1.3,3.4-2.3,4.9c-1,1.5-2.2,2.8-3.5,4.1
							c-1.3,1.2-2.8,2.5-4.4,3.7c-1.3,1.1-2.5,2.1-3.7,3.2c-1.2,1.1-2.2,2.2-3,3.4c-0.9,1.2-1.5,2.5-2,3.9c-0.5,1.4-0.8,3-0.8,4.8
							v6.4h-5.5v-5.7c0-2.8,0.3-5.1,0.9-7.1c0.6-2,1.5-3.8,2.6-5.4c1.1-1.6,2.4-3.1,4-4.4c1.5-1.3,3.2-2.7,5.1-4.2
							c1.1-0.9,2.1-1.8,3.1-2.8c0.9-1,1.8-2,2.5-3.1c0.7-1.1,1.3-2.4,1.7-3.7c0.4-1.3,0.6-2.7,0.6-4.3c0-1.7-0.4-3.3-1.2-4.9
							c-0.8-1.6-1.8-3-3.1-4.2c-1.3-1.2-2.7-2.2-4.4-2.9c-1.6-0.7-3.3-1.1-4.9-1.1c-2.3,0-4.4,0.4-6.4,1.2c-1.9,0.8-3.6,2-5.1,3.4
							c-1.4,1.5-2.6,3.2-3.4,5.1c-0.9,2-1.3,4.1-1.5,6.4h-5.5c0.2-3.1,0.8-6,1.9-8.6c1.1-2.7,2.6-4.9,4.5-6.9
							c1.9-1.9,4.1-3.5,6.7-4.6c2.6-1.1,5.5-1.7,8.6-1.7c2.7,0,5.2,0.5,7.5,1.4c2.3,0.9,4.4,2.2,6.1,3.9c1.7,1.7,3.1,3.6,4.1,5.9
							C235.9,1731.4,236.4,1733.9,236.4,1736.6z M213.1,1795.1L213.1,1795.1c-2.8,0-5.1-2.3-5.1-5.1v0c0-2.8,2.3-5.1,5.1-5.1h0
							c2.8,0,5.1,2.3,5.1,5.1v0C218.2,1792.9,215.9,1795.1,213.1,1795.1z"/>
					</g>
				</g>
			</g>
		</g>
		<g>
			<polygon class="st0" points="626.1,1478.1 623,1478.1 623,1481.2 623,1622.7 623,1625.9 626.1,1625.9 767.6,1625.9 770.8,1625.9 
				770.8,1622.7 770.8,1481.2 770.8,1478.1 767.6,1478.1 			"/>
			<g>
				<g>
					<rect x="619.3" y="1474.4" class="st1" width="144.6" height="144.6"/>
					<path class="st17" d="M762.3,1476v141.5H620.9V1476H762.3 M765.5,1472.8h-3.2H620.9h-3.2v3.2v141.5v3.2h3.2h141.5h3.2v-3.2
						V1476V1472.8L765.5,1472.8z"/>
				</g>
				<g>
					<path class="st0" d="M720,1535.4h-8.8v-19c0-5.4-4.4-9.7-9.7-9.7h-17.8c-5.4,0-9.7,4.4-9.7,9.7v19h-8.8c-0.9,0-1.6,0.7-1.6,1.6
						v40.7c0,6.1,4.9,11,11,11h36.1c6.1,0,11-4.9,11-11V1537C721.6,1536.1,720.9,1535.4,720,1535.4z M679.6,1516.4c0-2.2,1.8-4,4-4
						h17.8c2.2,0,4,1.8,4,4v17.7h-25.8V1516.4z M718.4,1577.7c0,4.3-3.5,7.8-7.8,7.8h-36.1c-4.3,0-7.8-3.5-7.8-7.8v-39.2h51.8
						V1577.7z"/>
					<path class="st0" d="M692.6,1551.1c4.2,0,7.6,2.8,7.6,6.4c0,2.8-2.2,5.2-5.3,6.1l3.6,8.2h-11.8l3.6-8.2c-3-0.8-5.3-3.2-5.3-6
						C685,1554,688.4,1551.1,692.6,1551.1 M692.6,1548.8c-5.5,0-10,3.9-10,8.7c0,3,1.7,5.7,4.5,7.3l-2.6,6c-0.3,0.7-0.3,1.6,0.2,2.3
						c0.4,0.7,1.2,1.1,2,1.1h11.8c0.8,0,1.6-0.4,2-1.1c0.4-0.7,0.5-1.5,0.2-2.3l-2.6-6c2.8-1.6,4.5-4.3,4.5-7.3
						C702.5,1552.7,698,1548.8,692.6,1548.8L692.6,1548.8z"/>
					<g>
						<path class="st17" d="M699.6,1504.7h-17.8c-5.4,0-9.7,4.4-9.7,9.7v20.6h37.3v-20.6C709.3,1509.1,704.9,1504.7,699.6,1504.7z
							 M703.6,1532.2h-25.8v-17.7c0-2.2,1.8-4,4-4h17.8c2.2,0,4,1.8,4,4V1532.2z"/>
						<path class="st20" d="M706.7,1585.2h-32.1c-6.3,0-11.4-5.1-11.4-11.4v-38.7h54.9v38.7C718.1,1580.1,713,1585.2,706.7,1585.2z"
							/>
						<g>
							<path class="st17" d="M690.7,1549.3c4.2,0,7.6,2.8,7.6,6.4c0,2.8-2.2,5.2-5.3,6.1l3.6,8.2h-11.8l3.6-8.2
								c-3-0.8-5.3-3.2-5.3-6C683.1,1552.1,686.5,1549.3,690.7,1549.3 M690.7,1546.9c-5.5,0-10,3.9-10,8.7c0,3,1.7,5.7,4.5,7.3
								l-2.6,6c-0.3,0.7-0.3,1.6,0.2,2.3c0.4,0.7,1.2,1.1,2,1.1h11.8c0.8,0,1.6-0.4,2-1.1c0.4-0.7,0.5-1.5,0.2-2.3l-2.6-6
								c2.8-1.6,4.5-4.3,4.5-7.3C700.6,1550.8,696.1,1546.9,690.7,1546.9L690.7,1546.9z"/>
						</g>
					</g>
				</g>
			</g>
		</g>
		<g>
			<polygon class="st0" points="388.8,1688.9 385.6,1688.9 385.6,1692 385.6,1833.5 385.6,1836.7 388.8,1836.7 530.2,1836.7 
				533.4,1836.7 533.4,1833.5 533.4,1692 533.4,1688.9 530.2,1688.9 			"/>
			<g>
				<g>
					<rect x="381.9" y="1685.2" class="st1" width="144.6" height="144.6"/>
					<path class="st17" d="M525,1686.8v141.5H383.5v-141.5H525 M528.1,1683.6H525H383.5h-3.2v3.2v141.5v3.2h3.2H525h3.2v-3.2v-141.5
						V1683.6L528.1,1683.6z"/>
				</g>
				<g>
					<g>
						<path class="st0" d="M494.1,1736.8l-0.1-0.6l-13.5-13.5c0,0,0,0,0,0c-4.1-4.1-11.3-4.6-20.1-1.3c-8.2,3.1-17.1,9.2-25.1,17.1
							c-8,8-14,16.9-17.1,25.1c-3.3,8.8-2.9,15.9,1.3,20.1l13.6,13.6l0.6,0.1c0.2,0.1,1.9,0.4,4.7,0.4c7.2,0,21.8-2.4,37.9-18.4
							C498.3,1757.1,494.3,1737.6,494.1,1736.8z M422.1,1765.1c2.9-7.7,8.6-16,16.2-23.6c7.5-7.5,15.9-13.3,23.6-16.2
							c3.4-1.3,6.4-1.9,9-1.9c2.8,0,5,0.7,6.4,2.2c2.8,2.8,2.9,8.5,0.3,15.5c-2.9,7.7-8.6,16-16.2,23.6
							c-7.5,7.5-15.9,13.3-23.6,16.2c-7,2.6-12.6,2.5-15.5-0.3C419.6,1777.8,419.5,1772.1,422.1,1765.1z M473,1776.3
							c-18.4,18.4-34.8,17.3-38,16.9l-6.1-6.1c3.1,0,6.6-0.7,10.5-2.2c8.2-3.1,17.1-9.2,25.1-17.1c8-8,14-16.9,17.1-25.1
							c1.5-3.9,2.1-7.4,2.2-10.5l6.1,6.1C490.4,1741.5,491.5,1757.8,473,1776.3z"/>
						<path class="st0" d="M435.7,1772.4c0.4,0.4,1,0.6,1.5,0.6c0.6,0,1.1-0.2,1.5-0.6c0.8-0.8,0.8-2.2,0-3.1l-1.6-1.6l28.6-28.6
							c0.7-0.7,1-1.8,0.6-2.8c-0.4-1-1.3-1.6-2.4-1.6h-10.2c-1.2,0-2.2,1-2.2,2.2s1,2.2,2.2,2.2h6l-25.6,25.6l-1.8-1.8
							c-0.8-0.8-2.2-0.8-3.1,0c-0.8,0.8-0.8,2.2,0,3.1L435.7,1772.4z"/>
					</g>
					<g>
						
							<ellipse transform="matrix(0.7071 -0.7071 0.7071 0.7071 -1107.0984 829.6874)" class="st29" cx="448" cy="1751.2" rx="41" ry="18.5"/>
						<path class="st29" d="M419,1780.2l13.1,13.1c0,0,18.9,4.3,40.6-17.4s17.4-40.6,17.4-40.6l-13.1-13.1"/>
						<g>
							<path class="st29" d="M451.9,1735H462c0.4,0,0.6,0.5,0.3,0.7l-30.1,30.1"/>
							<line class="st29" x1="428.9" y1="1762.6" x2="435.3" y2="1769"/>
						</g>
					</g>
				</g>
			</g>
		</g>
		<g>
			<polygon class="st0" points="863.2,1478.1 860.1,1478.1 860.1,1481.2 860.1,1622.7 860.1,1625.9 863.2,1625.9 1004.7,1625.9 
				1007.9,1625.9 1007.9,1622.7 1007.9,1481.2 1007.9,1478.1 1004.7,1478.1 			"/>
			<g>
				<g>
					<rect x="856.4" y="1474.4" class="st1" width="144.6" height="144.6"/>
					<path class="st17" d="M999.4,1476v141.5H858V1476H999.4 M1002.6,1472.8h-3.2H858h-3.2v3.2v141.5v3.2h3.2h141.5h3.2v-3.2V1476
						V1472.8L1002.6,1472.8z"/>
				</g>
				<g>
					<path class="st0" d="M896.1,1582.9c-0.4,0-0.8-0.1-1.2-0.3c-0.7-0.4-1.2-1.2-1.2-2.1v-65.8c0-0.8,0.5-1.6,1.2-2.1
						c0.7-0.4,1.6-0.4,2.4,0l57.5,32.9c0.7,0.4,1.2,1.2,1.2,2.1s-0.5,1.6-1.2,2.1l-57.5,32.9
						C896.9,1582.8,896.5,1582.9,896.1,1582.9z M898.4,1518.9v57.6l50.4-28.8L898.4,1518.9z"/>
					<path class="st0" d="M963.2,1580.1c-1.3,0-2.4-1.1-2.4-2.4v-60.1c0-1.3,1.1-2.4,2.4-2.4c1.3,0,2.4,1.1,2.4,2.4v60.1
						C965.6,1579,964.5,1580.1,963.2,1580.1z"/>
					<g>
						<polygon class="st30" points="894.2,1578.7 894.2,1512.9 951.7,1545.8 						"/>
						<line class="st30" x1="961.3" y1="1515.7" x2="961.3" y2="1575.8"/>
					</g>
				</g>
			</g>
		</g>
		<g>
			<polygon class="st0" points="863.2,1688.9 860.1,1688.9 860.1,1692 860.1,1833.5 860.1,1836.7 863.2,1836.7 1004.7,1836.7 
				1007.9,1836.7 1007.9,1833.5 1007.9,1692 1007.9,1688.9 1004.7,1688.9 			"/>
			<g>
				<g>
					<rect x="856.4" y="1685.2" class="st1" width="144.6" height="144.6"/>
					<path class="st17" d="M999.4,1686.8v141.5H858v-141.5H999.4 M1002.6,1683.6h-3.2H858h-3.2v3.2v141.5v3.2h3.2h141.5h3.2v-3.2
						v-141.5V1683.6L1002.6,1683.6z"/>
				</g>
				<g>
					<path class="st0" d="M963.2,1793.7c-0.4,0-0.8-0.1-1.2-0.3l-57.5-32.9c-0.7-0.4-1.2-1.2-1.2-2.1s0.5-1.6,1.2-2.1l57.5-32.9
						c0.7-0.4,1.6-0.4,2.4,0c0.7,0.4,1.2,1.2,1.2,2.1v65.8c0,0.8-0.5,1.6-1.2,2.1C964,1793.6,963.6,1793.7,963.2,1793.7z
						 M910.5,1758.4l50.4,28.8v-57.6L910.5,1758.4z"/>
					<path class="st0" d="M896.1,1790.8c-1.3,0-2.4-1.1-2.4-2.4v-60.1c0-1.3,1.1-2.4,2.4-2.4c1.3,0,2.4,1.1,2.4,2.4v60.1
						C898.4,1789.8,897.4,1790.8,896.1,1790.8z"/>
					<g>
						<polygon class="st30" points="961.3,1789.4 961.3,1723.7 903.8,1756.5 						"/>
						<line class="st30" x1="894.2" y1="1726.5" x2="894.2" y2="1786.6"/>
					</g>
				</g>
			</g>
		</g>
		<g>
			<polygon class="st0" points="626.1,1688.9 623,1688.9 623,1692 623,1833.5 623,1836.7 626.1,1836.7 767.6,1836.7 770.8,1836.7 
				770.8,1833.5 770.8,1692 770.8,1688.9 767.6,1688.9 			"/>
			<g>
				<g>
					<rect x="619.3" y="1685.2" class="st1" width="144.6" height="144.6"/>
					<path class="st17" d="M762.3,1686.8v141.5H620.9v-141.5H762.3 M765.5,1683.6h-3.2H620.9h-3.2v3.2v141.5v3.2h3.2h141.5h3.2v-3.2
						v-141.5V1683.6L765.5,1683.6z"/>
				</g>
				<path class="st0" d="M720.4,1793.7c-0.4,0-0.8-0.1-1.2-0.3l-57.5-32.9c-0.7-0.4-1.2-1.2-1.2-2.1s0.5-1.6,1.2-2.1l57.5-32.9
					c0.7-0.4,1.6-0.4,2.4,0c0.7,0.4,1.2,1.2,1.2,2.1v65.8c0,0.8-0.5,1.6-1.2,2.1C721.2,1793.6,720.8,1793.7,720.4,1793.7z
					 M667.6,1758.4l50.4,28.8v-57.6L667.6,1758.4z"/>
			</g>
			<polygon class="st30" points="720.4,1789.4 720.4,1723.7 662.8,1756.5 			"/>
		</g>
	</g>
</g>
</svg>
