<?xml version="1.0" encoding="utf-8"?>
<!-- Generator: Adobe Illustrator 22.1.0, SVG Export Plug-In . SVG Version: 6.00 Build 0)  -->
<svg version="1.1" id="Layer_1" xmlns="http://www.w3.org/2000/svg" xmlns:xlink="http://www.w3.org/1999/xlink" x="0px" y="0px"
	 viewBox="0 0 2000 2000" style="enable-background:new 0 0 2000 2000;" xml:space="preserve">
<style type="text/css">
	.st0{fill:#1A1A1A;}
	.st1{fill:none;stroke:#00FEFE;stroke-width:6.4974;stroke-linecap:round;stroke-linejoin:round;stroke-miterlimit:10;}
	.st2{fill:#00FEFE;}
	.st3{fill:none;stroke:#00FEFE;stroke-width:4.298;stroke-miterlimit:10;}
	.st4{fill:none;stroke:#F3F5DF;stroke-width:6.4974;stroke-linecap:round;stroke-linejoin:round;stroke-miterlimit:10;}
	.st5{fill:#F3F5DF;}
	.st6{fill:none;stroke:#F3F5DF;stroke-width:4.298;stroke-miterlimit:10;}
	.st7{fill:none;stroke:#FFD338;stroke-width:6.4974;stroke-linecap:round;stroke-linejoin:round;stroke-miterlimit:10;}
	.st8{fill:#FFD338;}
	.st9{fill:none;stroke:#FFD338;stroke-width:4.298;stroke-miterlimit:10;}
	.st10{opacity:0.69;}
	.st11{fill:#333333;stroke:#00FEFE;stroke-width:2;stroke-linecap:round;stroke-miterlimit:10;}
	.st12{fill:none;}
	.st13{fill:#CCCCCC;}
	.st14{font-family:'MyriadPro-Regular';}
	.st15{font-size:16.9322px;}
	.st16{font-size:18.8136px;}
	.st17{fill:#B3B3B3;}
	.st18{opacity:0.71;}
	.st19{font-size:28.5932px;}
	.st20{fill:#333333;stroke:#00FEFE;stroke-width:2.9202;stroke-linecap:round;stroke-miterlimit:10;}
	.st21{fill:#333333;}
	.st22{fill:#333333;stroke:#00FEFE;stroke-width:2.7672;stroke-linecap:round;stroke-miterlimit:10;}
	.st23{fill:#333333;stroke:#00FEFE;stroke-width:2.6584;stroke-linecap:round;stroke-miterlimit:10;}
	.st24{fill:#333333;stroke:#FFD338;stroke-width:2;stroke-linecap:round;stroke-miterlimit:10;}
	.st25{fill:#333333;stroke:#FFD338;stroke-width:2.9202;stroke-linecap:round;stroke-miterlimit:10;}
	.st26{fill:#333333;stroke:#FFD338;stroke-width:2.7672;stroke-linecap:round;stroke-miterlimit:10;}
	.st27{fill:#333333;stroke:#FFD338;stroke-width:2.6584;stroke-linecap:round;stroke-miterlimit:10;}
	.st28{opacity:0.64;}
	.st29{fill:none;stroke:#FFD338;stroke-width:5.9772;stroke-miterlimit:10;}
	.st30{fill:#333333;stroke:#FFD338;stroke-width:4.6349;stroke-miterlimit:10;}
	.st31{fill:none;stroke:#00FEFE;stroke-width:5.9772;stroke-miterlimit:10;}
	.st32{fill:#333333;stroke:#00FEFE;stroke-width:4.6349;stroke-miterlimit:10;}
</style>
<rect class="st0" width="2000" height="2000"/>
<g>
	<g>
		<line class="st1" x1="1566.7" y1="186.3" x2="1513.4" y2="186.3"/>
		<line class="st1" x1="1597.7" y1="217.3" x2="1597.7" y2="270.6"/>
		<line class="st1" x1="1628.6" y1="186.3" x2="1682" y2="186.3"/>
		<line class="st1" x1="1597.7" y1="155.3" x2="1597.7" y2="102"/>
		<circle class="st2" cx="1597.7" cy="186.3" r="6.8"/>
		<circle class="st1" cx="1597.7" cy="186.3" r="57.6"/>
	</g>
	<g>
		<circle class="st3" cx="1590.8" cy="444.5" r="41"/>
		<circle class="st2" cx="1590.8" cy="444.5" r="7.3"/>
	</g>
	<g>
		<line class="st1" x1="1559.7" y1="668.6" x2="1506.3" y2="668.6"/>
		<line class="st1" x1="1590.6" y1="699.6" x2="1590.6" y2="753"/>
		<line class="st1" x1="1621.6" y1="668.6" x2="1674.9" y2="668.6"/>
		<line class="st1" x1="1590.6" y1="637.7" x2="1590.6" y2="584.3"/>
	</g>
	<g>
		<line class="st4" x1="1821.4" y1="186.3" x2="1768.1" y2="186.3"/>
		<line class="st4" x1="1852.4" y1="217.3" x2="1852.4" y2="270.6"/>
		<line class="st4" x1="1883.4" y1="186.3" x2="1936.7" y2="186.3"/>
		<line class="st4" x1="1852.4" y1="155.3" x2="1852.4" y2="102"/>
		<circle class="st5" cx="1852.4" cy="186.3" r="6.8"/>
		<circle class="st4" cx="1852.4" cy="186.3" r="57.6"/>
	</g>
	<g>
		<circle class="st6" cx="1845.5" cy="444.5" r="41"/>
		<circle class="st5" cx="1845.5" cy="444.5" r="7.3"/>
	</g>
	<g>
		<line class="st4" x1="1814.4" y1="668.6" x2="1761.1" y2="668.6"/>
		<line class="st4" x1="1845.4" y1="699.6" x2="1845.4" y2="753"/>
		<line class="st4" x1="1876.3" y1="668.6" x2="1929.7" y2="668.6"/>
		<line class="st4" x1="1845.4" y1="637.7" x2="1845.4" y2="584.3"/>
	</g>
	<g>
		<line class="st7" x1="1298" y1="193.1" x2="1244.7" y2="193.1"/>
		<line class="st7" x1="1329" y1="224.1" x2="1329" y2="277.5"/>
		<line class="st7" x1="1359.9" y1="193.1" x2="1413.3" y2="193.1"/>
		<line class="st7" x1="1329" y1="162.2" x2="1329" y2="108.8"/>
		<circle class="st8" cx="1329" cy="193.1" r="6.8"/>
		<circle class="st7" cx="1329" cy="193.1" r="57.6"/>
	</g>
	<g>
		<circle class="st9" cx="1327.9" cy="447.9" r="41"/>
		<circle class="st8" cx="1327.9" cy="447.9" r="7.3"/>
	</g>
	<g>
		<line class="st7" x1="1296.3" y1="668.7" x2="1243" y2="668.7"/>
		<line class="st7" x1="1327.3" y1="699.7" x2="1327.3" y2="753"/>
		<line class="st7" x1="1358.3" y1="668.7" x2="1411.6" y2="668.7"/>
		<line class="st7" x1="1327.3" y1="637.7" x2="1327.3" y2="584.4"/>
	</g>
</g>
<g>
	<polygon class="st10" points="772.2,138.1 771.7,68.9 654.9,68.9 628.3,95.6 628.3,138.1 628.3,140.1 628.3,257.9 905.2,257.9 
		1105.9,257.9 1105.9,224.9 1105.9,138.1 	"/>
	<g>
		<polygon class="st11" points="767.7,135.6 625.7,135.6 625.7,92.4 651.7,66.4 767.1,66.4 		"/>
		<rect x="625.7" y="135.6" class="st11" width="475.7" height="117.8"/>
		<polygon class="st11" points="944.3,222.3 1101.4,222.3 1101.4,253.4 904.6,253.4 		"/>
	</g>
	<rect x="635.4" y="144.7" class="st12" width="453.8" height="109.6"/>
	<text transform="matrix(1 0 0 1 635.3735 156.7026)"><tspan x="0" y="0" class="st13 st14 st15">Lorem ipsum dolor sit amet, consectetuer adipiscing elit, sed </tspan><tspan x="0" y="20.3" class="st13 st14 st15">diam nonummy nibh euismod tincidunt ut laoreet dolore </tspan><tspan x="0" y="40.6" class="st13 st14 st15">magna aliquam erat volutpat. Ut wisi enim ad minim veniam, </tspan><tspan x="0" y="61" class="st13 st14 st15">quis nostrud exerci tation ullamcorper </tspan><tspan x="0" y="81.3" class="st13 st14 st15">tation ullamcorper tation ullamcorper </tspan></text>
	<g>
		<text transform="matrix(1 0 0 1 961.1431 242.853)" class="st13 st14 st16">Lorem ipsum</text>
	</g>
	<g>
		<circle class="st17" cx="696.7" cy="70.1" r="28.5"/>
		<path class="st17" d="M659.8,132.2v-9.3c0-11,8.9-19.9,19.9-19.9h33.9c11,0,19.9,8.9,19.9,19.9v9.3H659.8z"/>
	</g>
</g>
<g>
	<g class="st18">
		<polygon points="155.2,401.7 119.8,437.1 119.8,703.3 77,746.1 77,908.4 293.6,908.4 359.1,842.9 359.1,401.7 		"/>
		<polygon points="112.6,703.5 98.2,689.1 98.4,717.7 		"/>
		<polygon points="116,567.9 97.7,586.2 116,604.5 		"/>
		<polygon points="116,611.4 97.8,593.1 97.9,618.2 116,636.4 		"/>
		<polygon points="116,643.2 97.9,625.1 98,650.2 116,668.2 		"/>
		<polygon points="116,675.1 98.1,657.1 98.2,682.2 116,700.1 		"/>
	</g>
	<polygon class="st11" points="73.9,903.4 73.9,742.5 116.7,699.7 116.7,433.5 151.6,398.6 354.1,398.6 354.1,838.5 289.1,903.4 	
		"/>
	<g>
		<polygon class="st2" points="94.2,685.1 108.6,699.4 94.3,713.7 		"/>
		<polygon class="st2" points="112,563.8 112,600.5 93.7,582.1 		"/>
		<polygon class="st2" points="93.7,589.1 112,607.4 112,632.3 93.8,614.2 		"/>
		<polygon class="st2" points="93.9,621.1 112,639.2 112,664.2 94,646.2 		"/>
		<polygon class="st2" points="94,653.1 112,671 112,696 94.2,678.2 		"/>
	</g>
	<line class="st11" x1="116.7" y1="699.7" x2="116.7" y2="903.4"/>
	<g>
		<text transform="matrix(0 -1 1 0 102.9341 891.7197)" class="st13 st14 st19">Lorem ipsum</text>
	</g>
</g>
<g>
	<g class="st18">
		<polygon points="142.5,92.8 558.9,92.8 558.9,260.9 390.4,260.9 358.1,293.2 75,293.2 75,160.4 		"/>
		<polygon points="549.7,268.5 532.8,285.4 515.8,268.3 		"/>
		<polygon points="415.2,289.5 371.7,289.5 393.5,267.7 		"/>
		<polygon points="431.5,267.9 453.1,289.5 423.4,289.5 401.7,267.8 		"/>
		<polygon points="469.5,268.1 490.9,289.5 461.3,289.5 439.7,267.9 		"/>
		<polygon points="507.6,268.3 528.8,289.5 499.1,289.5 477.8,268.1 		"/>
		<polygon points="76,93.8 131.6,93.8 76,149.4 		"/>
	</g>
	<g>
		<polygon class="st11" points="73.6,158.4 73.6,289.8 355.2,289.8 387.5,257.5 555.5,257.5 555.5,91.4 140.5,91.4 		"/>
		<g>
			<polygon class="st2" points="513.4,265.9 530.4,283 547.3,266.1 			"/>
			<polygon class="st2" points="369.3,287.1 412.8,287.1 391.1,265.3 			"/>
			<polygon class="st2" points="399.3,265.3 421,287.1 450.7,287.1 429.1,265.5 			"/>
			<polygon class="st2" points="437.3,265.5 458.8,287.1 488.5,287.1 467.1,265.7 			"/>
			<polygon class="st2" points="475.3,265.7 496.7,287.1 526.3,287.1 505.1,265.9 			"/>
		</g>
		<polygon class="st2" points="129.2,91.4 73.6,91.4 73.6,147 		"/>
	</g>
</g>
<g>
	<g class="st18">
		<polygon points="411.7,685.9 411.7,727.3 427.5,743.1 496.5,743.1 511.8,727.7 639.1,727.7 681,685.9 		"/>
		<polygon points="582.5,742.7 582.7,742.7 594.6,730.9 570.6,730.9 		"/>
		<polygon points="553.4,730.9 565.2,742.7 577,742.7 565.1,730.9 		"/>
		<polygon points="536.1,730.9 547.9,742.7 559.7,742.7 547.8,730.9 		"/>
		<polygon points="518.8,730.9 530.6,742.7 542.4,742.7 530.5,730.9 		"/>
		<polygon points="501.4,742.7 525.1,742.7 513.3,730.9 		"/>
	</g>
	<g>
		<polygon class="st20" points="410.5,684.6 410.5,725 425.8,740.3 494.2,740.3 509.5,725 636.8,725 677.2,684.6 		"/>
		<g>
			<polygon class="st2" points="581,741.1 580.8,741.1 569,729.2 593,729.2 			"/>
			<polygon class="st2" points="563.5,729.2 575.3,741.1 563.5,741.1 551.7,729.2 			"/>
			<polygon class="st2" points="546.2,729.2 558,741.1 546.3,741.1 534.4,729.2 			"/>
			<polygon class="st2" points="528.9,729.2 540.7,741.1 529,741.1 517.1,729.2 			"/>
			<polygon class="st2" points="511.6,729.2 523.4,741.1 499.7,741.1 			"/>
		</g>
	</g>
</g>
<g>
	<g>
		<path class="st18" d="M545.6,388.8v5.6h21.3v5.5h-33.4c-0.6,0-1,0.4-1,1v65c0,0.3,0.1,0.5,0.3,0.7l23,23c0.2,0.2,0.4,0.3,0.7,0.3
			h65c0.6,0,1-0.4,1-1v-33.4h5.5c0,0,0,0,0,0v21.3h5.6v-62.3l-25.7-25.7H545.6z M613.1,405.2C613.1,405.2,613.1,405.2,613.1,405.2
			l-4.4,4.4l-9.5-9.5c-0.2-0.2-0.4-0.3-0.7-0.3h-29.6v-5.5h33.4L613.1,405.2z M628,453.4C628,453.4,628,453.4,628,453.4l-5.5,0
			v-29.6c0-0.3-0.1-0.5-0.3-0.7L610.1,411l4.4-4.4c0,0,0,0,0,0l13.5,13.5V453.4z"/>
		<g>
			<g>
				<g>
					<polygon class="st21" points="618.3,420.6 618.3,485.6 553.3,485.6 530.3,462.6 530.3,397.6 595.2,397.6 					"/>
					<path class="st2" d="M618.3,486.6h-65c-0.3,0-0.5-0.1-0.7-0.3l-23-23c-0.2-0.2-0.3-0.4-0.3-0.7v-65c0-0.6,0.4-1,1-1h65
						c0.3,0,0.5,0.1,0.7,0.3l23,23c0.2,0.2,0.3,0.4,0.3,0.7v65C619.3,486.2,618.8,486.6,618.3,486.6z M553.7,484.6h63.6v-63.6
						l-22.4-22.4h-63.6v63.6L553.7,484.6z"/>
				</g>
				<g>
					<line class="st21" x1="618.3" y1="451.2" x2="624.8" y2="451.2"/>
					<path class="st2" d="M624.8,452.2h-6.5c-0.6,0-1-0.4-1-1s0.4-1,1-1h6.5c0.6,0,1,0.4,1,1S625.3,452.2,624.8,452.2z"/>
				</g>
				<g>
					<line class="st21" x1="564.6" y1="391.1" x2="564.6" y2="397.5"/>
					<path class="st2" d="M564.6,398.5c-0.6,0-1-0.4-1-1v-6.4c0-0.6,0.4-1,1-1s1,0.4,1,1v6.4C565.6,398.1,565.2,398.5,564.6,398.5z"
						/>
				</g>
				<g>
					<line class="st21" x1="610.6" y1="402.7" x2="605.5" y2="407.8"/>
					<path class="st2" d="M605.4,408.8c-0.3,0-0.5-0.1-0.7-0.3c-0.4-0.4-0.4-1,0-1.4l5.1-5.1c0.4-0.4,1-0.4,1.4,0s0.4,1,0,1.4
						l-5.1,5.1C606,408.7,605.7,408.8,605.4,408.8z"/>
				</g>
				<polygon class="st2" points="630.4,411.2 630.4,473.5 624.8,473.5 624.8,416.8 599,391.1 542.4,391.1 542.4,385.5 604.7,385.5 
									"/>
			</g>
		</g>
	</g>
	<g>
		<path class="st18" d="M489.7,388.8v5.6h-21.3v5.5h33.4c0.6,0,1,0.4,1,1v65c0,0.3-0.1,0.5-0.3,0.7l-23,23c-0.2,0.2-0.4,0.3-0.7,0.3
			h-65c-0.6,0-1-0.4-1-1v-33.4h-5.5c0,0,0,0,0,0v21.3h-5.6v-62.3l25.7-25.7H489.7z M422.1,405.2
			C422.1,405.2,422.1,405.2,422.1,405.2l4.4,4.4l9.5-9.5c0.2-0.2,0.4-0.3,0.7-0.3h29.6v-5.5H433L422.1,405.2z M407.3,453.4
			C407.3,453.4,407.3,453.4,407.3,453.4l5.5,0v-29.6c0-0.3,0.1-0.5,0.3-0.7l12.1-12.1l-4.4-4.4c0,0,0,0,0,0l-13.5,13.5V453.4z"/>
		<g>
			<g>
				<g>
					<polygon class="st21" points="410.5,420.6 410.5,485.6 475.5,485.6 498.5,462.6 498.5,397.6 433.5,397.6 					"/>
					<path class="st2" d="M410.5,486.6h65c0.3,0,0.5-0.1,0.7-0.3l23-23c0.2-0.2,0.3-0.4,0.3-0.7v-65c0-0.6-0.4-1-1-1h-65
						c-0.3,0-0.5,0.1-0.7,0.3l-23,23c-0.2,0.2-0.3,0.4-0.3,0.7v65C409.5,486.2,410,486.6,410.5,486.6z M475.1,484.6h-63.6v-63.6
						l22.4-22.4h63.6v63.6L475.1,484.6z"/>
				</g>
				<g>
					<line class="st21" x1="410.5" y1="451.2" x2="404" y2="451.2"/>
					<path class="st2" d="M404,452.2h6.5c0.6,0,1-0.4,1-1s-0.4-1-1-1H404c-0.6,0-1,0.4-1,1S403.5,452.2,404,452.2z"/>
				</g>
				<g>
					<line class="st21" x1="464.2" y1="391.1" x2="464.2" y2="397.5"/>
					<path class="st2" d="M464.2,398.5c0.6,0,1-0.4,1-1v-6.4c0-0.6-0.4-1-1-1s-1,0.4-1,1v6.4C463.2,398.1,463.6,398.5,464.2,398.5z"
						/>
				</g>
				<g>
					<line class="st21" x1="418.2" y1="402.7" x2="423.3" y2="407.8"/>
					<path class="st2" d="M423.3,408.8c0.3,0,0.5-0.1,0.7-0.3c0.4-0.4,0.4-1,0-1.4l-5.1-5.1c-0.4-0.4-1-0.4-1.4,0s-0.4,1,0,1.4
						l5.1,5.1C422.8,408.7,423.1,408.8,423.3,408.8z"/>
				</g>
				<polygon class="st2" points="398.4,411.2 398.4,473.5 404,473.5 404,416.8 429.7,391.1 486.4,391.1 486.4,385.5 424.1,385.5 
									"/>
			</g>
		</g>
	</g>
	<g>
		<path class="st18" d="M545.6,619.3v-5.6h21.3v-5.5h-33.4c-0.6,0-1-0.4-1-1v-65c0-0.3,0.1-0.5,0.3-0.7l23-23
			c0.2-0.2,0.4-0.3,0.7-0.3h65c0.6,0,1,0.4,1,1v33.4h5.5c0,0,0,0,0,0v-21.3h5.6v62.3l-25.7,25.7H545.6z M613.1,602.9
			C613.1,602.9,613.1,602.9,613.1,602.9l-4.4-4.4l-9.5,9.5c-0.2,0.2-0.4,0.3-0.7,0.3h-29.6v5.5h33.4L613.1,602.9z M628,554.6
			C628,554.6,628,554.6,628,554.6l-5.5,0v29.6c0,0.3-0.1,0.5-0.3,0.7L610.1,597l4.4,4.4c0,0,0,0,0,0L628,588V554.6z"/>
		<g>
			<g>
				<g>
					<polygon class="st21" points="618.3,581 618.3,516 553.3,516 530.3,539 530.3,604 595.2,604 					"/>
					<path class="st2" d="M618.3,515h-65c-0.3,0-0.5,0.1-0.7,0.3l-23,23c-0.2,0.2-0.3,0.4-0.3,0.7v65c0,0.6,0.4,1,1,1h65
						c0.3,0,0.5-0.1,0.7-0.3l23-23c0.2-0.2,0.3-0.4,0.3-0.7v-65C619.3,515.4,618.8,515,618.3,515z M553.7,517h63.6v63.6L594.8,603
						h-63.6v-63.6L553.7,517z"/>
				</g>
				<g>
					<line class="st21" x1="618.3" y1="550.4" x2="624.8" y2="550.4"/>
					<path class="st2" d="M624.8,549.4h-6.5c-0.6,0-1,0.4-1,1s0.4,1,1,1h6.5c0.6,0,1-0.4,1-1S625.3,549.4,624.8,549.4z"/>
				</g>
				<g>
					<line class="st21" x1="564.6" y1="610.5" x2="564.6" y2="604.1"/>
					<path class="st2" d="M564.6,603.1c-0.6,0-1,0.4-1,1v6.4c0,0.6,0.4,1,1,1s1-0.4,1-1v-6.4C565.6,603.5,565.2,603.1,564.6,603.1z"
						/>
				</g>
				<g>
					<line class="st21" x1="610.6" y1="598.9" x2="605.5" y2="593.8"/>
					<path class="st2" d="M605.4,592.8c-0.3,0-0.5,0.1-0.7,0.3c-0.4,0.4-0.4,1,0,1.4l5.1,5.1c0.4,0.4,1,0.4,1.4,0s0.4-1,0-1.4
						l-5.1-5.1C606,592.9,605.7,592.8,605.4,592.8z"/>
				</g>
				<polygon class="st2" points="630.4,590.4 630.4,528.1 624.8,528.1 624.8,584.8 599,610.5 542.4,610.5 542.4,616.1 604.7,616.1 
									"/>
			</g>
		</g>
	</g>
	<g>
		<path class="st18" d="M489.7,619.3v-5.6h-21.3v-5.5h33.4c0.6,0,1-0.4,1-1v-65c0-0.3-0.1-0.5-0.3-0.7l-23-23
			c-0.2-0.2-0.4-0.3-0.7-0.3h-65c-0.6,0-1,0.4-1,1v33.4h-5.5c0,0,0,0,0,0v-21.3h-5.6v62.3l25.7,25.7H489.7z M422.1,602.9
			C422.1,602.9,422.1,602.9,422.1,602.9l4.4-4.4l9.5,9.5c0.2,0.2,0.4,0.3,0.7,0.3h29.6v5.5H433L422.1,602.9z M407.3,554.6
			C407.3,554.6,407.3,554.6,407.3,554.6l5.5,0v29.6c0,0.3,0.1,0.5,0.3,0.7l12.1,12.1l-4.4,4.4c0,0,0,0,0,0L407.3,588V554.6z"/>
		<g>
			<g>
				<g>
					<polygon class="st21" points="410.5,581 410.5,516 475.5,516 498.5,539 498.5,604 433.5,604 					"/>
					<path class="st2" d="M410.5,515h65c0.3,0,0.5,0.1,0.7,0.3l23,23c0.2,0.2,0.3,0.4,0.3,0.7v65c0,0.6-0.4,1-1,1h-65
						c-0.3,0-0.5-0.1-0.7-0.3l-23-23c-0.2-0.2-0.3-0.4-0.3-0.7v-65C409.5,515.4,410,515,410.5,515z M475.1,517h-63.6v63.6L434,603
						h63.6v-63.6L475.1,517z"/>
				</g>
				<g>
					<line class="st21" x1="410.5" y1="550.4" x2="404" y2="550.4"/>
					<path class="st2" d="M404,549.4h6.5c0.6,0,1,0.4,1,1s-0.4,1-1,1H404c-0.6,0-1-0.4-1-1S403.5,549.4,404,549.4z"/>
				</g>
				<g>
					<line class="st21" x1="464.2" y1="610.5" x2="464.2" y2="604.1"/>
					<path class="st2" d="M464.2,603.1c0.6,0,1,0.4,1,1v6.4c0,0.6-0.4,1-1,1s-1-0.4-1-1v-6.4C463.2,603.5,463.6,603.1,464.2,603.1z"
						/>
				</g>
				<g>
					<line class="st21" x1="418.2" y1="598.9" x2="423.3" y2="593.8"/>
					<path class="st2" d="M423.3,592.8c0.3,0,0.5,0.1,0.7,0.3c0.4,0.4,0.4,1,0,1.4l-5.1,5.1c-0.4,0.4-1,0.4-1.4,0s-0.4-1,0-1.4
						l5.1-5.1C422.8,592.9,423.1,592.8,423.3,592.8z"/>
				</g>
				<polygon class="st2" points="398.4,590.4 398.4,528.1 404,528.1 404,584.8 429.7,610.5 486.4,610.5 486.4,616.1 424.1,616.1 
									"/>
			</g>
		</g>
	</g>
</g>
<g>
	<g>
		<g class="st18">
			<polygon points="964.6,420 964.6,459.7 791.1,459.7 790.6,459.3 790.6,420 			"/>
			<path d="M788.8,458.6"/>
		</g>
		<g>
			<rect x="788.6" y="418" class="st22" width="172.9" height="38.2"/>
		</g>
	</g>
	<g>
		<g class="st18">
			<polygon points="791.7,394.7 791.7,459.7 726.7,459.7 703.7,436.7 703.7,371.7 768.7,371.7 			"/>
		</g>
		<g>
			<polygon class="st21" points="722.8,457.2 699.2,433.6 699.2,367.2 765.6,367.2 789.2,390.8 789.2,457.2 			"/>
			<path class="st2" d="M765.1,368.2l23,23v65h-65l-23-23v-65H765.1 M766,366.2h-0.8h-65h-2v2v65v0.8l0.6,0.6l23,23l0.6,0.6h0.8h65
				h2v-2v-65v-0.8l-0.6-0.6l-23-23L766,366.2L766,366.2z"/>
		</g>
	</g>
</g>
<g>
	<g>
		<g class="st18">
			<polygon points="991.7,540.3 953.6,578.4 787.1,578.4 786.7,578 786.7,540.3 			"/>
			<path d="M785.2,550.4"/>
		</g>
		<g>
			<polygon class="st23" points="987.7,538.6 950.9,575.3 785,575.3 785,538.6 			"/>
		</g>
	</g>
	<g>
		<g class="st18">
			<polygon points="788.2,513.5 788.2,578.4 723.2,578.4 700.2,555.4 700.2,490.4 765.1,490.4 			"/>
		</g>
		<g>
			<polygon class="st21" points="719.3,575.9 695.6,552.3 695.6,485.9 762,485.9 785.6,509.5 785.6,575.9 			"/>
			<path class="st2" d="M761.6,486.9l23,23v65h-65l-23-23v-65H761.6 M762.4,484.9h-0.8h-65h-2v2v65v0.8l0.6,0.6l23,23l0.6,0.6h0.8
				h65h2v-2v-65v-0.8l-0.6-0.6l-23-23L762.4,484.9L762.4,484.9z"/>
		</g>
	</g>
</g>
<g>
	<polygon class="st10" points="808.2,1096.1 807.7,1026.9 690.9,1026.9 664.3,1053.6 664.3,1096.1 664.3,1098.1 664.3,1215.9 
		941.2,1215.9 1141.9,1215.9 1141.9,1182.9 1141.9,1096.1 	"/>
	<g>
		<polygon class="st24" points="803.7,1093.6 661.7,1093.6 661.7,1050.4 687.7,1024.4 803.1,1024.4 		"/>
		<rect x="661.7" y="1093.6" class="st24" width="475.7" height="117.8"/>
		<polygon class="st24" points="980.3,1180.3 1137.4,1180.3 1137.4,1211.4 940.6,1211.4 		"/>
	</g>
	<rect x="671.4" y="1102.7" class="st12" width="453.8" height="109.6"/>
	<text transform="matrix(1 0 0 1 671.3735 1114.7026)"><tspan x="0" y="0" class="st13 st14 st15">Lorem ipsum dolor sit amet, consectetuer adipiscing elit, sed </tspan><tspan x="0" y="20.3" class="st13 st14 st15">diam nonummy nibh euismod tincidunt ut laoreet dolore </tspan><tspan x="0" y="40.6" class="st13 st14 st15">magna aliquam erat volutpat. Ut wisi enim ad minim veniam, </tspan><tspan x="0" y="61" class="st13 st14 st15">quis nostrud exerci tation ullamcorper </tspan><tspan x="0" y="81.3" class="st13 st14 st15">tation ullamcorper tation ullamcorper </tspan></text>
	<g>
		<text transform="matrix(1 0 0 1 997.1431 1200.853)" class="st13 st14 st16">Lorem ipsum</text>
	</g>
	<g>
		<circle class="st17" cx="732.7" cy="1028.1" r="28.5"/>
		<path class="st17" d="M695.8,1090.2v-9.3c0-11,8.9-19.9,19.9-19.9h33.9c11,0,19.9,8.9,19.9,19.9v9.3H695.8z"/>
	</g>
</g>
<g>
	<g class="st18">
		<polygon points="191.2,1359.7 155.8,1395.1 155.8,1661.3 113,1704.1 113,1866.4 329.6,1866.4 395.1,1800.9 395.1,1359.7 		"/>
		<polygon points="148.6,1661.5 134.2,1647.1 134.4,1675.7 		"/>
		<polygon points="152,1525.9 133.7,1544.2 152,1562.5 		"/>
		<polygon points="152,1569.4 133.8,1551.1 133.9,1576.2 152,1594.4 		"/>
		<polygon points="152,1601.2 133.9,1583.1 134,1608.2 152,1626.2 		"/>
		<polygon points="152,1633.1 134.1,1615.1 134.2,1640.2 152,1658.1 		"/>
	</g>
	<polygon class="st24" points="109.9,1861.4 109.9,1700.5 152.7,1657.7 152.7,1391.5 187.6,1356.6 390.1,1356.6 390.1,1796.5 
		325.1,1861.4 	"/>
	<g>
		<polygon class="st8" points="130.2,1643.1 144.6,1657.4 130.3,1671.7 		"/>
		<polygon class="st8" points="148,1521.8 148,1558.5 129.7,1540.1 		"/>
		<polygon class="st8" points="129.7,1547.1 148,1565.4 148,1590.3 129.8,1572.2 		"/>
		<polygon class="st8" points="129.9,1579.1 148,1597.2 148,1622.2 130,1604.2 		"/>
		<polygon class="st8" points="130,1611.1 148,1629 148,1654 130.2,1636.2 		"/>
	</g>
	<line class="st24" x1="152.7" y1="1657.7" x2="152.7" y2="1861.4"/>
	<g>
		<text transform="matrix(0 -1 1 0 138.9341 1849.7197)" class="st13 st14 st19">Lorem ipsum</text>
	</g>
</g>
<g>
	<g class="st18">
		<polygon points="178.5,1050.8 594.9,1050.8 594.9,1218.9 426.4,1218.9 394.1,1251.2 111,1251.2 111,1118.4 		"/>
		<polygon points="585.7,1226.5 568.8,1243.4 551.8,1226.3 		"/>
		<polygon points="451.2,1247.5 407.7,1247.5 429.5,1225.7 		"/>
		<polygon points="467.5,1225.9 489.1,1247.5 459.4,1247.5 437.7,1225.8 		"/>
		<polygon points="505.5,1226.1 526.9,1247.5 497.3,1247.5 475.7,1225.9 		"/>
		<polygon points="543.6,1226.3 564.8,1247.5 535.1,1247.5 513.8,1226.1 		"/>
		<polygon points="112,1051.8 167.6,1051.8 112,1107.4 		"/>
	</g>
	<g>
		<polygon class="st24" points="109.6,1116.4 109.6,1247.8 391.2,1247.8 423.5,1215.5 591.5,1215.5 591.5,1049.4 176.5,1049.4 		"/>
		<g>
			<polygon class="st8" points="549.4,1223.9 566.4,1241 583.3,1224.1 			"/>
			<polygon class="st8" points="405.3,1245.1 448.8,1245.1 427.1,1223.3 			"/>
			<polygon class="st8" points="435.3,1223.3 457,1245.1 486.7,1245.1 465.1,1223.5 			"/>
			<polygon class="st8" points="473.3,1223.5 494.8,1245.1 524.5,1245.1 503.1,1223.7 			"/>
			<polygon class="st8" points="511.3,1223.7 532.7,1245.1 562.3,1245.1 541.1,1223.9 			"/>
		</g>
		<polygon class="st8" points="165.2,1049.4 109.6,1049.4 109.6,1105 		"/>
	</g>
</g>
<g>
	<g class="st18">
		<polygon points="447.7,1643.9 447.7,1685.3 463.5,1701.1 532.5,1701.1 547.8,1685.7 675.1,1685.7 717,1643.9 		"/>
		<polygon points="618.5,1700.7 618.7,1700.7 630.6,1688.9 606.6,1688.9 		"/>
		<polygon points="589.4,1688.9 601.2,1700.7 613,1700.7 601.1,1688.9 		"/>
		<polygon points="572.1,1688.9 583.9,1700.7 595.7,1700.7 583.8,1688.9 		"/>
		<polygon points="554.8,1688.9 566.6,1700.7 578.4,1700.7 566.5,1688.9 		"/>
		<polygon points="537.4,1700.7 561.1,1700.7 549.3,1688.9 		"/>
	</g>
	<g>
		<polygon class="st25" points="446.5,1642.6 446.5,1683 461.8,1698.3 530.2,1698.3 545.5,1683 672.8,1683 713.2,1642.6 		"/>
		<g>
			<polygon class="st8" points="617,1699.1 616.8,1699.1 605,1687.2 629,1687.2 			"/>
			<polygon class="st8" points="599.5,1687.2 611.3,1699.1 599.5,1699.1 587.7,1687.2 			"/>
			<polygon class="st8" points="582.2,1687.2 594,1699.1 582.3,1699.1 570.4,1687.2 			"/>
			<polygon class="st8" points="564.9,1687.2 576.7,1699.1 565,1699.1 553.1,1687.2 			"/>
			<polygon class="st8" points="547.6,1687.2 559.4,1699.1 535.7,1699.1 			"/>
		</g>
	</g>
</g>
<g>
	<g>
		<path class="st18" d="M581.6,1346.8v5.6h21.3v5.5h-33.4c-0.6,0-1,0.4-1,1v65c0,0.3,0.1,0.5,0.3,0.7l23,23c0.2,0.2,0.4,0.3,0.7,0.3
			h65c0.6,0,1-0.4,1-1v-33.4h5.5c0,0,0,0,0,0v21.3h5.6v-62.3l-25.7-25.7H581.6z M649.1,1363.2
			C649.1,1363.2,649.1,1363.2,649.1,1363.2l-4.4,4.4l-9.5-9.5c-0.2-0.2-0.4-0.3-0.7-0.3h-29.6v-5.5h33.4L649.1,1363.2z M664,1411.4
			C664,1411.4,664,1411.4,664,1411.4l-5.5,0v-29.6c0-0.3-0.1-0.5-0.3-0.7l-12.1-12.1l4.4-4.4c0,0,0,0,0,0l13.5,13.5V1411.4z"/>
		<g>
			<g>
				<g>
					<polygon class="st21" points="654.3,1378.6 654.3,1443.6 589.3,1443.6 566.3,1420.6 566.3,1355.6 631.2,1355.6 					"/>
					<path class="st8" d="M654.3,1444.6h-65c-0.3,0-0.5-0.1-0.7-0.3l-23-23c-0.2-0.2-0.3-0.4-0.3-0.7v-65c0-0.6,0.4-1,1-1h65
						c0.3,0,0.5,0.1,0.7,0.3l23,23c0.2,0.2,0.3,0.4,0.3,0.7v65C655.3,1444.2,654.8,1444.6,654.3,1444.6z M589.7,1442.6h63.6v-63.6
						l-22.4-22.4h-63.6v63.6L589.7,1442.6z"/>
				</g>
				<g>
					<line class="st21" x1="654.3" y1="1409.2" x2="660.8" y2="1409.2"/>
					<path class="st8" d="M660.8,1410.2h-6.5c-0.6,0-1-0.4-1-1s0.4-1,1-1h6.5c0.6,0,1,0.4,1,1S661.3,1410.2,660.8,1410.2z"/>
				</g>
				<g>
					<line class="st21" x1="600.6" y1="1349.1" x2="600.6" y2="1355.5"/>
					<path class="st8" d="M600.6,1356.5c-0.6,0-1-0.4-1-1v-6.4c0-0.6,0.4-1,1-1s1,0.4,1,1v6.4
						C601.6,1356.1,601.2,1356.5,600.6,1356.5z"/>
				</g>
				<g>
					<line class="st21" x1="646.6" y1="1360.7" x2="641.5" y2="1365.8"/>
					<path class="st8" d="M641.4,1366.8c-0.3,0-0.5-0.1-0.7-0.3c-0.4-0.4-0.4-1,0-1.4l5.1-5.1c0.4-0.4,1-0.4,1.4,0s0.4,1,0,1.4
						l-5.1,5.1C642,1366.7,641.7,1366.8,641.4,1366.8z"/>
				</g>
				<polygon class="st8" points="666.4,1369.2 666.4,1431.5 660.8,1431.5 660.8,1374.8 635,1349.1 578.4,1349.1 578.4,1343.5 
					640.7,1343.5 				"/>
			</g>
		</g>
	</g>
	<g>
		<path class="st18" d="M525.7,1346.8v5.6h-21.3v5.5h33.4c0.6,0,1,0.4,1,1v65c0,0.3-0.1,0.5-0.3,0.7l-23,23
			c-0.2,0.2-0.4,0.3-0.7,0.3h-65c-0.6,0-1-0.4-1-1v-33.4h-5.5c0,0,0,0,0,0v21.3h-5.6v-62.3l25.7-25.7H525.7z M458.1,1363.2
			C458.1,1363.2,458.1,1363.2,458.1,1363.2l4.4,4.4l9.5-9.5c0.2-0.2,0.4-0.3,0.7-0.3h29.6v-5.5H469L458.1,1363.2z M443.3,1411.4
			C443.3,1411.4,443.3,1411.4,443.3,1411.4l5.5,0v-29.6c0-0.3,0.1-0.5,0.3-0.7l12.1-12.1l-4.4-4.4c0,0,0,0,0,0l-13.5,13.5V1411.4z"
			/>
		<g>
			<g>
				<g>
					<polygon class="st21" points="446.5,1378.6 446.5,1443.6 511.5,1443.6 534.5,1420.6 534.5,1355.6 469.5,1355.6 					"/>
					<path class="st8" d="M446.5,1444.6h65c0.3,0,0.5-0.1,0.7-0.3l23-23c0.2-0.2,0.3-0.4,0.3-0.7v-65c0-0.6-0.4-1-1-1h-65
						c-0.3,0-0.5,0.1-0.7,0.3l-23,23c-0.2,0.2-0.3,0.4-0.3,0.7v65C445.5,1444.2,446,1444.6,446.5,1444.6z M511.1,1442.6h-63.6v-63.6
						l22.4-22.4h63.6v63.6L511.1,1442.6z"/>
				</g>
				<g>
					<line class="st21" x1="446.5" y1="1409.2" x2="440" y2="1409.2"/>
					<path class="st8" d="M440,1410.2h6.5c0.6,0,1-0.4,1-1s-0.4-1-1-1H440c-0.6,0-1,0.4-1,1S439.5,1410.2,440,1410.2z"/>
				</g>
				<g>
					<line class="st21" x1="500.2" y1="1349.1" x2="500.2" y2="1355.5"/>
					<path class="st8" d="M500.2,1356.5c0.6,0,1-0.4,1-1v-6.4c0-0.6-0.4-1-1-1s-1,0.4-1,1v6.4
						C499.2,1356.1,499.6,1356.5,500.2,1356.5z"/>
				</g>
				<g>
					<line class="st21" x1="454.2" y1="1360.7" x2="459.3" y2="1365.8"/>
					<path class="st8" d="M459.3,1366.8c0.3,0,0.5-0.1,0.7-0.3c0.4-0.4,0.4-1,0-1.4l-5.1-5.1c-0.4-0.4-1-0.4-1.4,0s-0.4,1,0,1.4
						l5.1,5.1C458.8,1366.7,459.1,1366.8,459.3,1366.8z"/>
				</g>
				<polygon class="st8" points="434.4,1369.2 434.4,1431.5 440,1431.5 440,1374.8 465.7,1349.1 522.4,1349.1 522.4,1343.5 
					460.1,1343.5 				"/>
			</g>
		</g>
	</g>
	<g>
		<path class="st18" d="M581.6,1577.3v-5.6h21.3v-5.5h-33.4c-0.6,0-1-0.4-1-1v-65c0-0.3,0.1-0.5,0.3-0.7l23-23
			c0.2-0.2,0.4-0.3,0.7-0.3h65c0.6,0,1,0.4,1,1v33.4h5.5c0,0,0,0,0,0v-21.3h5.6v62.3l-25.7,25.7H581.6z M649.1,1560.9
			C649.1,1560.9,649.1,1560.9,649.1,1560.9l-4.4-4.4l-9.5,9.5c-0.2,0.2-0.4,0.3-0.7,0.3h-29.6v5.5h33.4L649.1,1560.9z M664,1512.6
			C664,1512.6,664,1512.6,664,1512.6l-5.5,0v29.6c0,0.3-0.1,0.5-0.3,0.7l-12.1,12.1l4.4,4.4c0,0,0,0,0,0L664,1546V1512.6z"/>
		<g>
			<g>
				<g>
					<polygon class="st21" points="654.3,1539 654.3,1474 589.3,1474 566.3,1497 566.3,1562 631.2,1562 					"/>
					<path class="st8" d="M654.3,1473h-65c-0.3,0-0.5,0.1-0.7,0.3l-23,23c-0.2,0.2-0.3,0.4-0.3,0.7v65c0,0.6,0.4,1,1,1h65
						c0.3,0,0.5-0.1,0.7-0.3l23-23c0.2-0.2,0.3-0.4,0.3-0.7v-65C655.3,1473.4,654.8,1473,654.3,1473z M589.7,1475h63.6v63.6
						l-22.4,22.4h-63.6v-63.6L589.7,1475z"/>
				</g>
				<g>
					<line class="st21" x1="654.3" y1="1508.4" x2="660.8" y2="1508.4"/>
					<path class="st8" d="M660.8,1507.4h-6.5c-0.6,0-1,0.4-1,1s0.4,1,1,1h6.5c0.6,0,1-0.4,1-1S661.3,1507.4,660.8,1507.4z"/>
				</g>
				<g>
					<line class="st21" x1="600.6" y1="1568.5" x2="600.6" y2="1562.1"/>
					<path class="st8" d="M600.6,1561.1c-0.6,0-1,0.4-1,1v6.4c0,0.6,0.4,1,1,1s1-0.4,1-1v-6.4
						C601.6,1561.5,601.2,1561.1,600.6,1561.1z"/>
				</g>
				<g>
					<line class="st21" x1="646.6" y1="1556.9" x2="641.5" y2="1551.8"/>
					<path class="st8" d="M641.4,1550.8c-0.3,0-0.5,0.1-0.7,0.3c-0.4,0.4-0.4,1,0,1.4l5.1,5.1c0.4,0.4,1,0.4,1.4,0s0.4-1,0-1.4
						l-5.1-5.1C642,1550.9,641.7,1550.8,641.4,1550.8z"/>
				</g>
				<polygon class="st8" points="666.4,1548.4 666.4,1486.1 660.8,1486.1 660.8,1542.8 635,1568.5 578.4,1568.5 578.4,1574.1 
					640.7,1574.1 				"/>
			</g>
		</g>
	</g>
	<g>
		<path class="st18" d="M525.7,1577.3v-5.6h-21.3v-5.5h33.4c0.6,0,1-0.4,1-1v-65c0-0.3-0.1-0.5-0.3-0.7l-23-23
			c-0.2-0.2-0.4-0.3-0.7-0.3h-65c-0.6,0-1,0.4-1,1v33.4h-5.5c0,0,0,0,0,0v-21.3h-5.6v62.3l25.7,25.7H525.7z M458.1,1560.9
			C458.1,1560.9,458.1,1560.9,458.1,1560.9l4.4-4.4l9.5,9.5c0.2,0.2,0.4,0.3,0.7,0.3h29.6v5.5H469L458.1,1560.9z M443.3,1512.6
			C443.3,1512.6,443.3,1512.6,443.3,1512.6l5.5,0v29.6c0,0.3,0.1,0.5,0.3,0.7l12.1,12.1l-4.4,4.4c0,0,0,0,0,0l-13.5-13.5V1512.6z"/>
		<g>
			<g>
				<g>
					<polygon class="st21" points="446.5,1539 446.5,1474 511.5,1474 534.5,1497 534.5,1562 469.5,1562 					"/>
					<path class="st8" d="M446.5,1473h65c0.3,0,0.5,0.1,0.7,0.3l23,23c0.2,0.2,0.3,0.4,0.3,0.7v65c0,0.6-0.4,1-1,1h-65
						c-0.3,0-0.5-0.1-0.7-0.3l-23-23c-0.2-0.2-0.3-0.4-0.3-0.7v-65C445.5,1473.4,446,1473,446.5,1473z M511.1,1475h-63.6v63.6
						L470,1561h63.6v-63.6L511.1,1475z"/>
				</g>
				<g>
					<line class="st21" x1="446.5" y1="1508.4" x2="440" y2="1508.4"/>
					<path class="st8" d="M440,1507.4h6.5c0.6,0,1,0.4,1,1s-0.4,1-1,1H440c-0.6,0-1-0.4-1-1S439.5,1507.4,440,1507.4z"/>
				</g>
				<g>
					<line class="st21" x1="500.2" y1="1568.5" x2="500.2" y2="1562.1"/>
					<path class="st8" d="M500.2,1561.1c0.6,0,1,0.4,1,1v6.4c0,0.6-0.4,1-1,1s-1-0.4-1-1v-6.4
						C499.2,1561.5,499.6,1561.1,500.2,1561.1z"/>
				</g>
				<g>
					<line class="st21" x1="454.2" y1="1556.9" x2="459.3" y2="1551.8"/>
					<path class="st8" d="M459.3,1550.8c0.3,0,0.5,0.1,0.7,0.3c0.4,0.4,0.4,1,0,1.4l-5.1,5.1c-0.4,0.4-1,0.4-1.4,0s-0.4-1,0-1.4
						l5.1-5.1C458.8,1550.9,459.1,1550.8,459.3,1550.8z"/>
				</g>
				<polygon class="st8" points="434.4,1548.4 434.4,1486.1 440,1486.1 440,1542.8 465.7,1568.5 522.4,1568.5 522.4,1574.1 
					460.1,1574.1 				"/>
			</g>
		</g>
	</g>
</g>
<g>
	<g>
		<g class="st18">
			<polygon points="1000.6,1378 1000.6,1417.7 827.1,1417.7 826.6,1417.3 826.6,1378 			"/>
			<path d="M824.8,1416.6"/>
		</g>
		<g>
			<rect x="824.6" y="1376" class="st26" width="172.9" height="38.2"/>
		</g>
	</g>
	<g>
		<g class="st18">
			<polygon points="827.7,1352.7 827.7,1417.7 762.7,1417.7 739.7,1394.7 739.7,1329.7 804.7,1329.7 			"/>
		</g>
		<g>
			<polygon class="st21" points="758.8,1415.2 735.2,1391.6 735.2,1325.2 801.6,1325.2 825.2,1348.8 825.2,1415.2 			"/>
			<path class="st8" d="M801.1,1326.2l23,23v65h-65l-23-23v-65H801.1 M802,1324.2h-0.8h-65h-2v2v65v0.8l0.6,0.6l23,23l0.6,0.6h0.8
				h65h2v-2v-65v-0.8l-0.6-0.6l-23-23L802,1324.2L802,1324.2z"/>
		</g>
	</g>
</g>
<g>
	<g>
		<g class="st18">
			<polygon points="1027.7,1498.3 989.6,1536.4 823.1,1536.4 822.7,1536 822.7,1498.3 			"/>
			<path d="M821.2,1508.4"/>
		</g>
		<g>
			<polygon class="st27" points="1023.7,1496.6 986.9,1533.3 821,1533.3 821,1496.6 			"/>
		</g>
	</g>
	<g>
		<g class="st18">
			<polygon points="824.2,1471.5 824.2,1536.4 759.2,1536.4 736.2,1513.4 736.2,1448.4 801.1,1448.4 			"/>
		</g>
		<g>
			<polygon class="st21" points="755.3,1533.9 731.6,1510.3 731.6,1443.9 798,1443.9 821.6,1467.5 821.6,1533.9 			"/>
			<path class="st8" d="M797.6,1444.9l23,23v65h-65l-23-23v-65H797.6 M798.4,1442.9h-0.8h-65h-2v2v65v0.8l0.6,0.6l23,23l0.6,0.6h0.8
				h65h2v-2v-65v-0.8l-0.6-0.6l-23-23L798.4,1442.9L798.4,1442.9z"/>
		</g>
	</g>
</g>
<g>
	<g class="st18">
		<polygon points="958.4,1808.6 924.9,1808.6 958.4,1775.1 		"/>
		<polygon points="755.4,1645.4 769,1631.8 769,1659.2 755.4,1645.7 		"/>
		<polygon points="755.4,1652 769,1665.5 769,1679 755.4,1665.4 		"/>
		<polygon points="755.4,1671.8 769,1685.3 769,1698.8 755.4,1685.2 		"/>
		<polygon points="755.4,1691.5 769,1705.1 769,1718.5 755.4,1705 		"/>
		<polygon points="755.4,1711.3 769,1724.9 755.4,1738.5 		"/>
		<path d="M773.5,1728.4v-116.1h106.8v-7.7h-36.8v-7h130.6v129.2h-7v-40.4h-7.7v77.3l-46,46h-166v-55.1L773.5,1728.4z M967.1,1679.3
			v-74.8h-79.9v7.7h72.1v67H967.1z"/>
	</g>
	<g>
		<polygon class="st8" points="921.1,1805.8 954.6,1805.8 954.6,1772.3 		"/>
		<g>
			<polygon class="st8" points="751.6,1642.6 751.6,1642.9 765.2,1656.4 765.2,1629 			"/>
			<polygon class="st8" points="765.2,1662.7 751.6,1649.2 751.6,1662.7 765.2,1676.2 			"/>
			<polygon class="st8" points="765.2,1682.5 751.6,1669 751.6,1682.4 765.2,1696 			"/>
			<polygon class="st8" points="765.2,1702.3 751.6,1688.7 751.6,1702.2 765.2,1715.8 			"/>
			<polygon class="st8" points="765.2,1722.1 751.6,1708.5 751.6,1735.7 			"/>
		</g>
		<polygon class="st24" points="744.6,1752.1 744.6,1805.8 909.2,1805.8 954.6,1760.4 954.6,1610.5 770.7,1610.5 770.7,1726 		"/>
		<polygon class="st8" points="963.3,1724 970.3,1724 970.3,1594.8 839.7,1594.8 839.7,1601.8 963.3,1601.8 		"/>
		<rect x="876.5" y="1601.3" class="st8" width="7" height="9.2"/>
		<rect x="954.6" y="1676.5" class="st8" width="9.2" height="7"/>
	</g>
</g>
<g>
	<g class="st18">
		<polygon points="938.4,852.6 904.9,852.6 938.4,819.1 		"/>
		<polygon points="735.4,689.4 749,675.8 749,703.2 735.4,689.7 		"/>
		<polygon points="735.4,696 749,709.5 749,723 735.4,709.4 		"/>
		<polygon points="735.4,715.8 749,729.3 749,742.8 735.4,729.2 		"/>
		<polygon points="735.4,735.5 749,749.1 749,762.5 735.4,749 		"/>
		<polygon points="735.4,755.3 749,768.9 735.4,782.5 		"/>
		<path d="M753.5,772.4V656.3h106.8v-7.7h-36.8v-7h130.6v129.2h-7v-40.4h-7.7v77.3l-46,46h-166v-55.1L753.5,772.4z M947.1,723.3
			v-74.8h-79.9v7.7h72.1v67H947.1z"/>
	</g>
	<g>
		<polygon class="st2" points="901.1,849.8 934.6,849.8 934.6,816.3 		"/>
		<g>
			<polygon class="st2" points="731.6,686.6 731.6,686.9 745.2,700.4 745.2,673 			"/>
			<polygon class="st2" points="745.2,706.7 731.6,693.2 731.6,706.7 745.2,720.2 			"/>
			<polygon class="st2" points="745.2,726.5 731.6,713 731.6,726.4 745.2,740 			"/>
			<polygon class="st2" points="745.2,746.3 731.6,732.7 731.6,746.2 745.2,759.8 			"/>
			<polygon class="st2" points="745.2,766.1 731.6,752.5 731.6,779.7 			"/>
		</g>
		<polygon class="st11" points="724.6,796.1 724.6,849.8 889.2,849.8 934.6,804.4 934.6,654.5 750.7,654.5 750.7,770 		"/>
		<polygon class="st2" points="943.3,768 950.3,768 950.3,638.8 819.7,638.8 819.7,645.8 943.3,645.8 		"/>
		<rect x="856.5" y="645.3" class="st2" width="7" height="9.2"/>
		<rect x="934.6" y="720.5" class="st2" width="9.2" height="7"/>
	</g>
</g>
<g>
	<polygon class="st28" points="1910.6,1530.6 1436.8,1530.6 1436.8,1484.6 1372.3,1420.1 1242.6,1420.1 1242.6,1549.8 
		1307.1,1614.3 1436.8,1614.3 1436.8,1614.3 1569.3,1614 1619.1,1581.4 1853.5,1581.4 	"/>
	<g>
		<polygon class="st21" points="1420.7,1604.8 1420.7,1565.6 1619.3,1565.6 1559.5,1604.8 		"/>
		<path class="st8" d="M1608.3,1568.9l-49.8,32.6H1424v-32.6H1608.3 M1630.2,1562.3h-21.9H1424h-6.5v6.5v32.6v6.5h6.5h134.5h2
			l1.6-1.1l49.8-32.6L1630.2,1562.3L1630.2,1562.3z M1608.3,1575.4L1608.3,1575.4L1608.3,1575.4L1608.3,1575.4z"/>
	</g>
	<g>
		<polygon class="st21" points="1420.7,1572.1 1420.7,1521.4 1900.8,1521.4 1843.7,1572.1 		"/>
		<path class="st8" d="M1892.2,1524.7l-49.8,44.2H1424v-44.2H1892.2 M1909.5,1518.1h-17.2H1424h-6.5v6.5v44.2v6.5h6.5h418.4h2.5
			l1.9-1.6l49.8-44.2L1909.5,1518.1L1909.5,1518.1z M1892.2,1531.2L1892.2,1531.2L1892.2,1531.2L1892.2,1531.2z"/>
	</g>
	<g>
		<polygon class="st21" points="1297.1,1604.8 1232.5,1540.1 1232.5,1410 1362.6,1410 1427.3,1474.6 1427.3,1604.8 		"/>
		<path class="st8" d="M1361.2,1413.2l62.8,62.8v125.5h-125.5l-62.8-62.8v-125.5H1361.2 M1364,1406.7h-2.7h-125.5h-6.5v6.5v125.5
			v2.7l1.9,1.9l62.8,62.8l1.9,1.9h2.7H1424h6.5v-6.5V1476v-2.7l-1.9-1.9l-62.8-62.8L1364,1406.7L1364,1406.7z"/>
	</g>
	<polyline class="st29" points="1253.5,1532 1253.5,1431 1347.6,1431 	"/>
	<polyline class="st29" points="1406.2,1482.8 1406.2,1583.8 1312.1,1583.8 	"/>
	<line class="st29" x1="1253.5" y1="1502.2" x2="1235.7" y2="1502.2"/>
	<line class="st29" x1="1336.1" y1="1583.8" x2="1336.1" y2="1601.5"/>
	<line class="st29" x1="1406.2" y1="1513.6" x2="1424" y2="1513.6"/>
	<line class="st29" x1="1312.1" y1="1431" x2="1312.1" y2="1413.2"/>
	<rect x="1437.2" y="1530.6" class="st8" width="19.6" height="32.3"/>
	<polygon class="st8" points="1557.3,1596.3 1436.3,1596.3 1436.3,1580.7 1581.4,1580.7 	"/>
	<rect x="1464" y="1530.6" class="st8" width="19.6" height="32.3"/>
	<rect x="1490.9" y="1530.6" class="st8" width="19.6" height="32.3"/>
	<rect x="1517.8" y="1530.6" class="st8" width="19.6" height="32.3"/>
	<rect x="1544.7" y="1530.6" class="st8" width="19.6" height="32.3"/>
	<rect x="1571.6" y="1530.6" class="st8" width="19.6" height="32.3"/>
	<rect x="1598.5" y="1530.6" class="st8" width="19.6" height="32.3"/>
	<rect x="1625.4" y="1530.6" class="st8" width="19.6" height="32.3"/>
	<rect x="1652.3" y="1530.6" class="st8" width="19.6" height="32.3"/>
	<rect x="1679.2" y="1530.6" class="st8" width="19.6" height="32.3"/>
	<rect x="1706.1" y="1530.6" class="st8" width="19.6" height="32.3"/>
	<rect x="1733" y="1530.6" class="st8" width="19.6" height="32.3"/>
	<rect x="1759.9" y="1530.6" class="st8" width="19.6" height="32.3"/>
	<rect x="1786.8" y="1530.6" class="st8" width="19.6" height="32.3"/>
	<rect x="1813.7" y="1530.6" class="st8" width="19.6" height="32.3"/>
	<polygon class="st8" points="1840.6,1562.9 1840.6,1562.9 1840.6,1530.6 1876.3,1530.6 	"/>
	<rect x="1679.2" y="1530.6" class="st8" width="19.6" height="32.3"/>
</g>
<g>
	<polygon class="st28" points="1277.1,1667.4 1276.4,1721.4 1719,1721.4 1719.7,1667.4 	"/>
	<g>
		<polygon class="st30" points="1273.3,1713.6 1711.2,1713.6 1711.9,1664.2 1273.9,1664.2 		"/>
		<g>
			<rect x="1281.2" y="1670.2" class="st8" width="11.5" height="37.4"/>
			<rect x="1297" y="1670.2" class="st8" width="11.5" height="37.4"/>
			<rect x="1312.8" y="1670.2" class="st8" width="11.5" height="37.4"/>
			<rect x="1328.6" y="1670.2" class="st8" width="11.5" height="37.4"/>
			<rect x="1344.5" y="1670.2" class="st8" width="11.5" height="37.4"/>
			<rect x="1360.3" y="1670.2" class="st8" width="11.5" height="37.4"/>
			<rect x="1376.1" y="1670.2" class="st8" width="11.5" height="37.4"/>
			<rect x="1391.9" y="1670.2" class="st8" width="11.5" height="37.4"/>
			<rect x="1407.7" y="1670.2" class="st8" width="11.5" height="37.4"/>
			<rect x="1423.6" y="1670.2" class="st8" width="11.5" height="37.4"/>
			<rect x="1439.4" y="1670.2" class="st8" width="11.5" height="37.4"/>
			<rect x="1455.2" y="1670.2" class="st8" width="11.5" height="37.4"/>
			<rect x="1471" y="1670.2" class="st8" width="11.5" height="37.4"/>
			<rect x="1486.8" y="1670.2" class="st8" width="11.5" height="37.4"/>
			<rect x="1502.7" y="1670.2" class="st8" width="11.5" height="37.4"/>
			<rect x="1518.5" y="1670.2" class="st8" width="11.5" height="37.4"/>
			<rect x="1534.3" y="1670.2" class="st8" width="11.5" height="37.4"/>
			<rect x="1550.1" y="1670.2" class="st8" width="11.5" height="37.4"/>
			<rect x="1565.9" y="1670.2" class="st8" width="11.5" height="37.4"/>
			<rect x="1581.8" y="1670.2" class="st8" width="11.5" height="37.4"/>
			<rect x="1597.6" y="1670.2" class="st8" width="11.5" height="37.4"/>
			<rect x="1613.4" y="1670.2" class="st8" width="11.5" height="37.4"/>
			<rect x="1629.2" y="1670.2" class="st8" width="11.5" height="37.4"/>
			<rect x="1645.1" y="1670.2" class="st8" width="11.5" height="37.4"/>
			<rect x="1660.9" y="1670.2" class="st8" width="11.5" height="37.4"/>
			<rect x="1676.7" y="1670.2" class="st8" width="11.5" height="37.4"/>
			<rect x="1692.5" y="1670.2" class="st8" width="11.5" height="37.4"/>
		</g>
	</g>
</g>
<g>
	<polygon class="st28" points="1941,1106.7 1467.2,1106.7 1467.2,1060.7 1402.6,996.2 1272.9,996.2 1272.9,1125.9 1337.4,1190.4 
		1467.2,1190.4 1467.2,1190.4 1599.6,1190.1 1649.4,1157.5 1883.8,1157.5 	"/>
	<g>
		<polygon class="st21" points="1451.1,1180.9 1451.1,1141.7 1649.6,1141.7 1589.8,1180.9 		"/>
		<path class="st2" d="M1638.7,1145l-49.8,32.6h-134.5V1145H1638.7 M1660.6,1138.4h-21.9h-184.3h-6.5v6.5v32.6v6.5h6.5h134.5h2
			l1.6-1.1l49.8-32.6L1660.6,1138.4L1660.6,1138.4z M1638.7,1151.5L1638.7,1151.5L1638.7,1151.5L1638.7,1151.5z"/>
	</g>
	<g>
		<polygon class="st21" points="1451.1,1148.2 1451.1,1097.5 1931.2,1097.5 1874,1148.2 		"/>
		<path class="st2" d="M1922.6,1100.8l-49.8,44.2h-418.4v-44.2H1922.6 M1939.8,1094.2h-17.2h-468.2h-6.5v6.5v44.2v6.5h6.5h418.4h2.5
			l1.9-1.6l49.8-44.2L1939.8,1094.2L1939.8,1094.2z M1922.6,1107.3L1922.6,1107.3L1922.6,1107.3L1922.6,1107.3z"/>
	</g>
	<g>
		<polygon class="st21" points="1327.5,1180.9 1262.8,1116.2 1262.8,986.1 1393,986.1 1457.6,1050.8 1457.6,1180.9 		"/>
		<path class="st2" d="M1391.6,989.3l62.8,62.8v125.5h-125.5l-62.8-62.8V989.3H1391.6 M1394.3,982.8h-2.7h-125.5h-6.5v6.5v125.5v2.7
			l1.9,1.9l62.8,62.8l1.9,1.9h2.7h125.5h6.5v-6.5v-125.5v-2.7l-1.9-1.9l-62.8-62.8L1394.3,982.8L1394.3,982.8z"/>
	</g>
	<polyline class="st31" points="1283.8,1108.1 1283.8,1007.1 1378,1007.1 	"/>
	<polyline class="st31" points="1436.6,1058.9 1436.6,1159.9 1342.5,1159.9 	"/>
	<line class="st31" x1="1283.8" y1="1078.3" x2="1266.1" y2="1078.3"/>
	<line class="st31" x1="1366.4" y1="1159.9" x2="1366.4" y2="1177.6"/>
	<line class="st31" x1="1436.6" y1="1089.7" x2="1454.4" y2="1089.7"/>
	<line class="st31" x1="1342.5" y1="1007.1" x2="1342.5" y2="989.3"/>
	<rect x="1467.5" y="1106.7" class="st2" width="19.6" height="32.3"/>
	<polygon class="st2" points="1587.6,1172.4 1466.7,1172.4 1466.7,1156.8 1611.8,1156.8 	"/>
	<rect x="1494.4" y="1106.7" class="st2" width="19.6" height="32.3"/>
	<rect x="1521.3" y="1106.7" class="st2" width="19.6" height="32.3"/>
	<rect x="1548.2" y="1106.7" class="st2" width="19.6" height="32.3"/>
	<rect x="1575.1" y="1106.7" class="st2" width="19.6" height="32.3"/>
	<rect x="1602" y="1106.7" class="st2" width="19.6" height="32.3"/>
	<rect x="1628.9" y="1106.7" class="st2" width="19.6" height="32.3"/>
	<rect x="1655.8" y="1106.7" class="st2" width="19.6" height="32.3"/>
	<rect x="1682.7" y="1106.7" class="st2" width="19.6" height="32.3"/>
	<rect x="1709.6" y="1106.7" class="st2" width="19.6" height="32.3"/>
	<rect x="1736.5" y="1106.7" class="st2" width="19.6" height="32.3"/>
	<rect x="1763.4" y="1106.7" class="st2" width="19.6" height="32.3"/>
	<rect x="1790.3" y="1106.7" class="st2" width="19.6" height="32.3"/>
	<rect x="1817.2" y="1106.7" class="st2" width="19.6" height="32.3"/>
	<rect x="1844.1" y="1106.7" class="st2" width="19.6" height="32.3"/>
	<polygon class="st2" points="1871,1139 1871,1139 1871,1106.7 1906.6,1106.7 	"/>
	<rect x="1709.6" y="1106.7" class="st2" width="19.6" height="32.3"/>
</g>
<g>
	<polygon class="st28" points="1269.9,1241 1269.2,1295.1 1711.8,1295.1 1712.5,1241 	"/>
	<g>
		<polygon class="st32" points="1266.1,1287.3 1704,1287.3 1704.7,1237.8 1266.7,1237.8 		"/>
		<g>
			<rect x="1274" y="1243.8" class="st2" width="11.5" height="37.4"/>
			<rect x="1289.8" y="1243.8" class="st2" width="11.5" height="37.4"/>
			<rect x="1305.6" y="1243.8" class="st2" width="11.5" height="37.4"/>
			<rect x="1321.4" y="1243.8" class="st2" width="11.5" height="37.4"/>
			<rect x="1337.2" y="1243.8" class="st2" width="11.5" height="37.4"/>
			<rect x="1353.1" y="1243.8" class="st2" width="11.5" height="37.4"/>
			<rect x="1368.9" y="1243.8" class="st2" width="11.5" height="37.4"/>
			<rect x="1384.7" y="1243.8" class="st2" width="11.5" height="37.4"/>
			<rect x="1400.5" y="1243.8" class="st2" width="11.5" height="37.4"/>
			<rect x="1416.3" y="1243.8" class="st2" width="11.5" height="37.4"/>
			<rect x="1432.2" y="1243.8" class="st2" width="11.5" height="37.4"/>
			<rect x="1448" y="1243.8" class="st2" width="11.5" height="37.4"/>
			<rect x="1463.8" y="1243.8" class="st2" width="11.5" height="37.4"/>
			<rect x="1479.6" y="1243.8" class="st2" width="11.5" height="37.4"/>
			<rect x="1495.4" y="1243.8" class="st2" width="11.5" height="37.4"/>
			<rect x="1511.3" y="1243.8" class="st2" width="11.5" height="37.4"/>
			<rect x="1527.1" y="1243.8" class="st2" width="11.5" height="37.4"/>
			<rect x="1542.9" y="1243.8" class="st2" width="11.5" height="37.4"/>
			<rect x="1558.7" y="1243.8" class="st2" width="11.5" height="37.4"/>
			<rect x="1574.5" y="1243.8" class="st2" width="11.5" height="37.4"/>
			<rect x="1590.4" y="1243.8" class="st2" width="11.5" height="37.4"/>
			<rect x="1606.2" y="1243.8" class="st2" width="11.5" height="37.4"/>
			<rect x="1622" y="1243.8" class="st2" width="11.5" height="37.4"/>
			<rect x="1637.8" y="1243.8" class="st2" width="11.5" height="37.4"/>
			<rect x="1653.7" y="1243.8" class="st2" width="11.5" height="37.4"/>
			<rect x="1669.5" y="1243.8" class="st2" width="11.5" height="37.4"/>
			<rect x="1685.3" y="1243.8" class="st2" width="11.5" height="37.4"/>
		</g>
	</g>
</g>
</svg>
