<?xml version="1.0" encoding="utf-8"?>
<!-- Generator: Adobe Illustrator 22.1.0, SVG Export Plug-In . SVG Version: 6.00 Build 0)  -->
<svg version="1.1" id="Layer_1" xmlns="http://www.w3.org/2000/svg" xmlns:xlink="http://www.w3.org/1999/xlink" x="0px" y="0px"
	 viewBox="0 0 1022 1870" style="enable-background:new 0 0 1022 1870;" xml:space="preserve">
<style type="text/css">
	.st0{opacity:0.71;}
	.st1{fill:#333333;stroke:#00FEFE;stroke-width:4.7476;stroke-linejoin:round;stroke-miterlimit:10;}
	.st2{fill:none;stroke:#00FEFE;stroke-width:4.7476;stroke-linejoin:round;stroke-miterlimit:10;}
	.st3{fill:none;stroke:#00FEFE;stroke-width:3.165;stroke-linecap:round;stroke-linejoin:round;stroke-miterlimit:10;}
	.st4{fill:none;stroke:#00FEFE;stroke-width:2.9513;stroke-linecap:round;stroke-linejoin:round;stroke-miterlimit:10;}
	.st5{fill:#00FEFE;}
	.st6{fill:none;stroke:#00FEFE;stroke-width:3.0776;stroke-miterlimit:10;}
	.st7{fill:none;stroke:#00FEFE;stroke-width:3.0776;stroke-linecap:round;stroke-miterlimit:10;}
	.st8{fill:none;stroke:#00FEFE;stroke-width:2.3082;stroke-linecap:round;stroke-miterlimit:10;}
	.st9{fill:none;stroke:#00FEFE;stroke-width:2.3082;stroke-miterlimit:10;}
	.st10{fill:none;stroke:#00FEFE;stroke-width:1.5388;stroke-miterlimit:10;}
	.st11{fill:none;stroke:#00FEFE;stroke-width:1.9129;stroke-miterlimit:10;}
	.st12{fill:none;stroke:#00FEFE;stroke-width:4.7476;stroke-linecap:square;stroke-linejoin:round;stroke-miterlimit:10;}
	.st13{opacity:0.71;fill:#171D19;}
	.st14{fill:none;stroke:#00FEFE;stroke-width:4.3293;stroke-linecap:round;stroke-miterlimit:10;}
	.st15{fill:none;stroke:#00FEFE;stroke-width:4.7476;stroke-linecap:round;stroke-linejoin:round;stroke-miterlimit:10;}
	.st16{fill:#333333;stroke:#FFD338;stroke-width:4.7476;stroke-linejoin:round;stroke-miterlimit:10;}
	.st17{fill:none;stroke:#FFD338;stroke-width:4.7476;stroke-linejoin:round;stroke-miterlimit:10;}
	.st18{fill:none;stroke:#FFD338;stroke-width:3.165;stroke-linecap:round;stroke-linejoin:round;stroke-miterlimit:10;}
	.st19{fill:none;stroke:#FFD338;stroke-width:2.9513;stroke-linecap:round;stroke-linejoin:round;stroke-miterlimit:10;}
	.st20{fill:#FFD338;}
	.st21{fill:none;stroke:#FFD338;stroke-width:3.0776;stroke-miterlimit:10;}
	.st22{fill:none;stroke:#FFD338;stroke-width:3.0776;stroke-linecap:round;stroke-miterlimit:10;}
	.st23{fill:none;stroke:#FFD338;stroke-width:2.3082;stroke-linecap:round;stroke-miterlimit:10;}
	.st24{fill:none;stroke:#FFD338;stroke-width:2.3082;stroke-miterlimit:10;}
	.st25{fill:none;stroke:#FFD338;stroke-width:1.5388;stroke-miterlimit:10;}
	.st26{fill:none;stroke:#FFD338;stroke-width:1.9129;stroke-miterlimit:10;}
	.st27{fill:none;stroke:#FFD338;stroke-width:4.7476;stroke-linecap:square;stroke-linejoin:round;stroke-miterlimit:10;}
	.st28{fill:none;stroke:#FFD338;stroke-width:4.3293;stroke-linecap:round;stroke-miterlimit:10;}
	.st29{fill:none;stroke:#FFD338;stroke-width:4.7476;stroke-linecap:round;stroke-linejoin:round;stroke-miterlimit:10;}
</style>
<g>
	<g>
		<g>
			<g>
				<g>
					<polygon class="st0" points="915.5,168.6 867,168.6 867,120.2 862.3,120.2 862.3,168.6 813.8,168.6 813.8,173.4 862.3,173.4 
						862.3,221.9 867,221.9 867,173.4 915.5,173.4 					"/>
					<g>
						<line class="st1" x1="913.6" y1="169.1" x2="811.9" y2="169.1"/>
						<line class="st1" x1="862.7" y1="118.3" x2="862.7" y2="220"/>
					</g>
				</g>
			</g>
		</g>
		<g>
			<g>
				<g>
					<path class="st0" d="M136,202.1c0,0-0.1,0-0.1,0c-0.7,0-1.3-0.4-1.7-0.9l-24.3-30.6l3.7-2.9l22.6,28.5l56.1-56.1l3.4,3.4
						l-58,58C137.3,201.8,136.7,202.1,136,202.1z"/>
					<polyline class="st2" points="109.9,167.2 134.1,197.8 192.2,139.8 					"/>
				</g>
			</g>
		</g>
		<g>
			<g>
				<g>
					<polygon class="st0" points="669.6,132.2 666.2,128.9 627.5,167.6 588.8,128.9 585.4,132.2 624.1,171 585.4,209.7 588.8,213 
						627.5,174.3 666.2,213 669.6,209.7 630.8,171 					"/>
					<g>
						<g>
							<line class="st1" x1="666.1" y1="128.8" x2="585.3" y2="209.6"/>
							<line class="st1" x1="585.3" y1="128.8" x2="666.1" y2="209.6"/>
						</g>
					</g>
				</g>
			</g>
		</g>
		<g>
			<g>
				<g>
					<path class="st0" d="M403.9,352.9c-0.9-0.6-2-0.6-3-0.2l-22,10.6h-12.1c-4.9,0-9,4-9,9v19c0,4.9,4,9,9,9H379l22,10.6
						c0.4,0.2,0.9,0.3,1.3,0.3c0.6,0,1.1-0.2,1.6-0.5c0.9-0.6,1.5-1.6,1.5-2.6v-52.5C405.4,354.5,404.8,353.5,403.9,352.9z
						 M361.1,391.3v-19c0-3.2,2.6-5.8,5.8-5.8h10.9v30.6h-10.9C363.7,397.1,361.1,394.5,361.1,391.3z M380.9,397.7v-31.7l21.3-10.4
						l0.1,52.4L380.9,397.7z"/>
					<path class="st0" d="M413,400.2c-0.4,0-0.8-0.2-1.1-0.5c-0.6-0.6-0.6-1.6,0-2.2c5-5,7.5-10.4,7.4-15.9
						c-0.2-9-7.3-15.5-7.3-15.6c-0.6-0.6-0.7-1.6-0.1-2.2c0.6-0.6,1.6-0.7,2.2-0.1c0.3,0.3,8.1,7.5,8.4,17.8
						c0.1,6.4-2.6,12.5-8.3,18.2C413.9,400.1,413.5,400.2,413,400.2z"/>
					<g>
						<path class="st3" d="M377.4,396.8h-10.9c-5,0-9-4-9-9V372c0-5,4-9,9-9h10.9V396.8z"/>
						<path class="st3" d="M377.4,363l22.3-10.7c1-0.5,2.2,0.2,2.2,1.4v52.5c0,1.1-1.2,1.9-2.2,1.4l-22.3-10.7V363z"/>
						<path class="st3" d="M411.2,363c0,0,17.7,16.1,0,33.7"/>
					</g>
				</g>
			</g>
		</g>
		<g>
			<g>
				<g>
					<path class="st0" d="M418.6,209.5h-21.7c-0.9,0-1.6-0.7-1.6-1.6v-20.6l-9.4,0.1v20.5c0,0.9-0.7,1.6-1.6,1.6h-21.7
						c-0.9,0-1.6-0.7-1.6-1.6v-31.5h-11c-0.6,0-1.2-0.4-1.5-1c-0.2-0.6-0.1-1.3,0.3-1.7l40.8-40.8c0.6-0.6,1.6-0.6,2.2,0l39.6,39.6
						c0.5,0.5,0.6,1.1,0.3,1.7c-0.2,0.6-0.8,1-1.5,1h-10.2v32.6C420.2,208.8,419.4,209.5,418.6,209.5z M398.5,206.4H417v-32.6
						c0-0.9,0.7-1.6,1.6-1.6h8l-35.8-35.8l-36.9,36.9h8.8c0.9,0,1.6,0.7,1.6,1.6v31.5h18.5v-20.5c0-0.9,0.7-1.6,1.6-1.6l12.6-0.2
						c0.4,0,0.8,0.2,1.1,0.5s0.5,0.7,0.5,1.1V206.4z"/>
					<path class="st0" d="M423.2,157.7c-0.4,0-0.8-0.1-1-0.4l-16.6-16.6c-0.4-0.4-0.5-1.1-0.3-1.6c0.2-0.6,0.8-0.9,1.4-0.9h16.6
						c0.8,0,1.5,0.7,1.5,1.5v16.6c0,0.6-0.4,1.1-0.9,1.4C423.6,157.7,423.4,157.7,423.2,157.7z M410.1,141.1l11.6,11.6v-11.6H410.1z
						"/>
					<g>
						<polygon class="st3" points="382.4,184 382.4,206 360.7,206 360.7,173 348.1,173 388.9,132.2 428.5,171.8 416.7,171.8 
							416.7,206 395,206 395,183.8 						"/>
						<polygon class="st4" points="404.7,137.7 421.3,154.4 421.3,137.7 						"/>
					</g>
				</g>
			</g>
		</g>
		<g>
			<g>
				<g>
					<path class="st0" d="M631.5,352.9c-0.9-0.6-2-0.6-3-0.2l-22,10.6h-12.1c-4.9,0-9,4-9,9v19c0,4.9,4,9,9,9h12.1l22,10.6
						c0.4,0.2,0.9,0.3,1.3,0.3c0.6,0,1.1-0.2,1.6-0.5c0.9-0.6,1.5-1.6,1.5-2.6v-52.5C632.9,354.5,632.4,353.5,631.5,352.9z
						 M588.6,391.3v-19c0-3.2,2.6-5.8,5.8-5.8h10.9v30.6h-10.9C591.2,397.1,588.6,394.5,588.6,391.3z M608.5,397.7v-31.7l21.3-10.4
						l0.1,52.4L608.5,397.7z"/>
					<path class="st0" d="M657.7,383l11.6-17.6c0.5-0.7,0.3-1.7-0.4-2.2s-1.7-0.3-2.2,0.4l-10.9,16.5l-10.9-16.5
						c-0.5-0.7-1.5-0.9-2.2-0.4c-0.7,0.5-0.9,1.5-0.4,2.2L654,383l-11.6,17.6c-0.5,0.7-0.3,1.7,0.4,2.2c0.3,0.2,0.6,0.3,0.9,0.3
						c0.5,0,1-0.2,1.3-0.7l10.9-16.5l10.9,16.5c0.3,0.5,0.8,0.7,1.3,0.7c0.3,0,0.6-0.1,0.9-0.3c0.7-0.5,0.9-1.5,0.4-2.2L657.7,383z"
						/>
					<g>
						<path class="st3" d="M605,396.8h-10.9c-5,0-9-4-9-9V372c0-5,4-9,9-9H605V396.8z"/>
						<path class="st3" d="M605,363l22.3-10.7c1-0.5,2.2,0.2,2.2,1.4v52.5c0,1.1-1.2,1.9-2.2,1.4L605,396.8V363z"/>
						<g>
							<line class="st3" x1="641.7" y1="399.5" x2="666.2" y2="362.6"/>
							<line class="st3" x1="666.2" y1="399.5" x2="641.7" y2="362.6"/>
						</g>
					</g>
				</g>
			</g>
		</g>
		<g>
			<g>
				<g>
					<path class="st0" d="M169.8,366.1c-0.1-10-3.2-19.5-9.1-27.6c-1.9-2.6-4.7-4-7.9-4c-3.2,0-6,1.5-7.9,4
						c-5.9,8.1-9,17.6-9.1,27.6h0v0.3v2.8v0.3v44.2v3.2h2.5v2.7v0.2h-2.4v3.2v3v3.2h3.2h27.5h3.2v-3.2v-3v-3.2h-2.4v-0.2v-2.7h2.4
						v-3.2v-44.2v-0.4v-2.8L169.8,366.1L169.8,366.1z M147.5,340.4c1.3-1.8,3.3-2.7,5.3-2.7c2,0,4,0.9,5.3,2.7
						c5.4,7.5,8.4,16.5,8.5,25.7H139C139.1,356.9,142,347.9,147.5,340.4z M141.5,419.6v-2.7h22.7v2.7H141.5z M166.6,425.9h-27.5v-3
						h27.5V425.9z M166.6,413.5h-2.4h-22.7H139v-43.9h27.6V413.5z"/>
					<g>
						<g>
							<path class="st5" d="M164.7,367.4v44.5h-27.6v-44.5H164.7 M167.9,364.2h-3.2h-27.6h-3.2v3.2v44.5v3.2h3.2h27.6h3.2v-3.2
								v-44.5V364.2L167.9,364.2z"/>
						</g>
						<g>
							<path class="st5" d="M162.3,414.8v3h-22.7v-3H162.3 M165.5,411.6h-3.2h-22.7h-3.2v3.2v3v3.2h3.2h22.7h3.2v-3.2v-3V411.6
								L165.5,411.6z"/>
						</g>
						<g>
							<path class="st5" d="M164.7,421.1v3h-27.5v-3H164.7 M167.9,417.9h-3.2h-27.5H134v3.2v3v3.2h3.2h27.5h3.2V424v-3V417.9
								L167.9,417.9z"/>
						</g>
						<g>
							<path class="st5" d="M150.9,335.8c2,0,4,0.9,5.3,2.7c5.5,7.6,8.5,16.7,8.5,26v0h-27.6v0c0-9.4,3-18.5,8.5-26
								C146.9,336.7,148.9,335.8,150.9,335.8 M150.9,332.6c-3.2,0-6,1.5-7.9,4c-5.9,8.2-9.1,17.8-9.1,27.9v3.2l3.2,0h27.6h3.2v-3.2
								c0-10.1-3.1-19.8-9.1-27.9C157,334.1,154.1,332.6,150.9,332.6L150.9,332.6z"/>
						</g>
					</g>
				</g>
			</g>
		</g>
		<g>
			<g>
				<g>
					<path class="st0" d="M207.4,627.7l-28.3-28.3l2.6-2.6l-11.1-11.1l1.5-1.5l5.5,5.5l1.4-1.4l1.1,1.1l-1.4,1.4l2.6,2.6
						c0.3,0.3,0.8,0.5,1.3,0.5c0.5,0,0.9-0.2,1.3-0.5l7.7-7.7c0.7-0.7,0.7-1.8,0-2.5l-2.6-2.6l-2.3,2.3l-1.1-1.1l1.9-1.9L164.8,557
						c-0.9-0.9-2.4-0.9-3.4,0l-2.9-2.9c-0.4-0.4-0.9-0.6-1.4-0.6h0c-0.5,0-1,0.2-1.4,0.6l-4.2,4.2c-0.8,0.8-0.8,2.1,0,2.9l3,3
						c-0.4,0.9-0.3,2,0.5,2.7l3.5,3.5l-3.7-0.6l-26.9-26.9l-4.9,2.2l-6.1-6.1c-1-1-2.7-1-3.7,0l-4.7,4.7c-0.5,0.5-0.8,1.2-0.8,1.9
						c0,0.7,0.3,1.4,0.8,1.9l3,3l-1.9,0.9l-2.5-2.5c-0.8-0.8-2.2-0.8-3,0l-2.5,2.5c-0.4,0.4-0.6,0.9-0.6,1.5c0,0.6,0.2,1.1,0.6,1.5
						l12.7,12.7c-4,2.9-8.8,4.7-11.9,5.6c-2.9,0.9-4.9,3.6-4.9,6.6c0,2.5,1.4,4.9,3.6,6.1l2,1.1c1.1,0.6,2.2,0.9,3.4,0.9
						c1.4,0,2.7-0.4,3.9-1.2l17.2-11.6c-0.3,6.4,1,11,3.8,13.8c1.4,1.5,3,2.1,4.2,2.5c-0.5,0.9-1,1.9-1.6,3c-1.6,3-3.6,5.5-6,7.5
						c-2.8,2.3-3.8,6.2-2.4,9.5l1.7,4c1,2.3,3,4.1,5.4,4.7c0.7,0.2,1.4,0.3,2.1,0.3c2.7,0,5.3-1.4,6.8-3.7l11.5-17.9l15.9,15.9
						l5.4-5.4l21.9,21.9l-9.6,9.6c-1.2,1.2-1.2,3.1,0,4.3l1.9,1.9c0.6,0.6,1.4,0.9,2.1,0.9c0.8,0,1.5-0.3,2.1-0.9l14.6-14.6
						C208.5,630.5,208.5,628.8,207.4,627.7z M190.2,584.4l-7.5,7.5l-1.1-1.1l7.5-7.5L190.2,584.4z M115,541.5l5,5l-5.6,2.5l-3.5-3.5
						L115,541.5z M185.5,583.8l-4.4,4.4l-1-1l4.4-4.4L185.5,583.8z M157.1,555.9l2.7,2.7l-3.8,3.8l-2.7-2.7L157.1,555.9z
						 M157.6,565.2l5.5-5.5l20.1,20.1l-5.5,5.5l-3.3-3.3l0,0l-10.8-10.8h0L157.6,565.2z M162.1,574.1l7.9,7.9l-1.5,1.5l-10-10
						L162.1,574.1z M103.3,552.6l2.2-2.2l12.7,12.7c-0.7,0.8-1.4,1.5-2.2,2.2L103.3,552.6z M108.5,583.3c-1.2,0.8-2.8,0.9-4,0.2
						l-2-1.1c-1.2-0.7-2-2-2-3.4c0-1.7,1.1-3.2,2.7-3.7c4.5-1.4,12.4-4.5,17.2-10.1l6.1,6.1L108.5,583.3z M132.8,586.5
						c-2.2-2.3-3.2-6.4-3.1-11.8l7.3,7.3l-2.7,0.5c-0.6,0.1-1.1,0.7-0.9,1.3c0.1,0.6,0.6,1,1.1,1c0.1,0,0.1,0,0.2,0l3.6-0.6
						c-0.4,0.9-1,2.3-1.9,4.3C135.6,588.3,134.1,587.8,132.8,586.5z M138.9,614.1c-1.2,1.9-3.5,2.7-5.6,2.2
						c-1.5-0.4-2.8-1.5-3.4-2.9l-1.7-4c-0.9-2.1-0.3-4.4,1.5-5.9c2.7-2.2,5-5,6.8-8.4c2.4-4.4,3.7-7.3,4.5-9.1l9.8,9.8L138.9,614.1z
						 M168.9,609.5l-56.3-56.3l1.1-0.5l0,0l1.8-0.8c0.1,0.1,0.1,0.3,0.3,0.4l21.7,21.7c0.2,0.2,0.5,0.3,0.8,0.3
						c0.3,0,0.6-0.1,0.8-0.3c0.5-0.5,0.5-1.2,0-1.6l-21.4-21.4l2.6-1.2l20.7,20.7c0.2,0.2,0.5,0.3,0.8,0.3c0.3,0,0.6-0.1,0.8-0.3
						c0.5-0.5,0.5-1.2,0-1.6l-20.1-20.1l4.7-2.1l22.4,22.4h0l18.9,18.9l0,0l8.9,8.9l-0.4,0.4l-6.9,6.9l2.1,2.1L168.9,609.5z
						 M190.8,643.9l-1.9-1.9l9.8-9.8c0.5-0.5,0.8-1.2,0.8-1.9c0-0.7-0.3-1.4-0.8-1.9l-22.2-22.2l0,0l-2.1-2.1l2.5-2.5l28,28
						L190.8,643.9z"/>
					<g>
						<path class="st6" d="M185.9,641.2l1.9,1.9c0.6,0.6,1.5,0.6,2.1,0l14.6-14.6c0.4-0.4,0.4-1.2,0-1.6l-29.4-29.4l-4.7,4.7
							l25.4,25.4c0.4,0.4,0.4,1.2,0,1.6l-9.8,9.8C185.3,639.7,185.3,640.6,185.9,641.2z"/>
						<polygon class="st6" points="173.1,599.4 177.7,594.9 125.6,542.8 108,550.8 167,609.7 172.4,604.3 170.3,602.2 						"/>
						<path class="st7" d="M120.7,545l-6.9-6.9c-0.4-0.4-1.1-0.4-1.5,0l-4.7,4.7c-0.4,0.4-0.4,1.1,0,1.5l4.5,4.5L120.7,545z"/>
						<path class="st6" d="M150.9,593.6l-12.6,19.5c-1.6,2.4-4.5,3.5-7.3,2.8l0,0c-2-0.5-3.6-1.9-4.4-3.8l-1.7-4
							c-1.1-2.7-0.3-5.8,2-7.7c2-1.6,4.4-4.2,6.4-7.9c4.4-8.3,5.2-11.2,5.2-11.2"/>
						<line class="st8" x1="118.9" y1="546.7" x2="139.9" y2="567.7"/>
						<line class="st8" x1="114.7" y1="549.5" x2="136.4" y2="571.2"/>
						<path class="st6" d="M126.9,569.7l-19.4,13.1c-1.7,1.1-3.9,1.2-5.6,0.2l-2-1.1c-1.7-1-2.8-2.8-2.8-4.7v0
							c0-2.4,1.5-4.5,3.8-5.2c4.9-1.5,13.3-4.9,17.5-10.9"/>
						<path class="st9" d="M135.7,587.8c0,0-10.7,0.8-8.8-18.2"/>
						<line class="st8" x1="138.1" y1="580.8" x2="132.7" y2="581.7"/>
						<path class="st8" d="M118,561.3l-13.8-13.8c-0.4-0.4-1-0.4-1.3,0l-2.5,2.5c-0.4,0.4-0.4,1,0,1.3l13.9,13.9L118,561.3z"/>
						<g>
							<polygon class="st7" points="152.1,569.3 160.9,570.7 170.3,580.1 166.6,583.8 							"/>
							<path class="st7" d="M175.8,585.6l-21.6-21.6c-0.4-0.4-0.4-1.1,0-1.5l6.2-6.2c0.4-0.4,1.1-0.4,1.5,0l21.6,21.6L175.8,585.6z"
								/>
							<path class="st9" d="M159.8,557l-4-4c-0.3-0.3-0.9-0.3-1.2,0l-4.2,4.2c-0.3,0.3-0.3,0.9,0,1.2l4,4L159.8,557z"/>
							
								<rect x="176.9" y="581.5" transform="matrix(0.7071 -0.7071 0.7071 0.7071 -359.5659 298.6366)" class="st10" width="7.7" height="3.7"/>
							<path class="st11" d="M178.3,588.9l8.9-8.9l1.9,1.9c0.3,0.3,0.3,0.8,0,1.2l-7.7,7.7c-0.3,0.3-0.8,0.3-1.2,0L178.3,588.9z"/>
						</g>
					</g>
				</g>
			</g>
		</g>
		<g>
			<g>
				<g>
					<g>
						<path class="st0" d="M442.7,603.4c1.3,0,2.4-1.1,2.4-2.4v-38.4c0-1.3-1.1-2.4-2.4-2.4h-77.9v-14.5c0-1.3-1.1-2.4-2.4-2.4
							h-27.2v4.7h24.9v14.5V601v11.8c0,1.3,1.1,2.4,2.4,2.4h82.6v-4.7h-80.2v-7H442.7z M364.9,565h75.5v33.7h-75.5V565z"/>
						<path class="st0" d="M373.9,620.9c-5.8,0-10.5,4.7-10.5,10.5s4.7,10.5,10.5,10.5s10.5-4.7,10.5-10.5S379.7,620.9,373.9,620.9z
							 M373.9,637.1c-3.2,0-5.8-2.6-5.8-5.8s2.6-5.8,5.8-5.8c3.2,0,5.8,2.6,5.8,5.8S377.1,637.1,373.9,637.1z"/>
						<path class="st0" d="M410.9,620.9c-5.8,0-10.5,4.7-10.5,10.5s4.7,10.5,10.5,10.5s10.5-4.7,10.5-10.5S416.7,620.9,410.9,620.9z
							 M410.9,637.1c-3.2,0-5.8-2.6-5.8-5.8s2.6-5.8,5.8-5.8c3.2,0,5.8,2.6,5.8,5.8S414.1,637.1,410.9,637.1z"/>
					</g>
					<g>
						<rect x="360.6" y="560.7" class="st12" width="80.2" height="38.4"/>
						<polyline class="st12" points="335.7,543.8 360.6,543.8 360.6,560.7 360.6,599.1 360.6,610.9 440.8,610.9 						"/>
						<circle class="st12" cx="372" cy="629.5" r="8.1"/>
						<circle class="st12" cx="409" cy="629.5" r="8.1"/>
					</g>
				</g>
			</g>
		</g>
		<g>
			<g>
				<g>
					<rect x="812.8" y="379.8" class="st13" width="101.7" height="4.7"/>
					<line class="st1" x1="914.5" y1="379.9" x2="812.8" y2="379.9"/>
				</g>
			</g>
		</g>
		<g>
			<g>
				<g>
					<path class="st0" d="M173.3,783.4c0,2.3-0.3,4.4-0.8,6.2c-0.6,1.8-1.3,3.4-2.3,4.9c-1,1.5-2.2,2.8-3.5,4.1
						c-1.3,1.2-2.8,2.5-4.4,3.7c-1.3,1.1-2.5,2.1-3.7,3.2c-1.2,1.1-2.2,2.2-3,3.4c-0.9,1.2-1.5,2.5-2,3.9c-0.5,1.4-0.8,3-0.8,4.8
						v6.4h-5.5v-5.7c0-2.8,0.3-5.1,0.9-7.1c0.6-2,1.5-3.8,2.6-5.4c1.1-1.6,2.4-3.1,4-4.4c1.5-1.3,3.2-2.7,5.1-4.2
						c1.1-0.9,2.1-1.8,3.1-2.8c0.9-1,1.8-2,2.5-3.1c0.7-1.1,1.3-2.4,1.7-3.7c0.4-1.3,0.6-2.7,0.6-4.3c0-1.7-0.4-3.3-1.2-4.9
						c-0.8-1.6-1.8-3-3.1-4.2c-1.3-1.2-2.7-2.2-4.4-2.9c-1.6-0.7-3.3-1.1-4.9-1.1c-2.3,0-4.4,0.4-6.4,1.2c-1.9,0.8-3.6,2-5.1,3.4
						c-1.4,1.5-2.6,3.2-3.4,5.1c-0.9,2-1.3,4.1-1.5,6.4h-5.5c0.2-3.1,0.8-6,1.9-8.6c1.1-2.7,2.6-4.9,4.5-6.9
						c1.9-1.9,4.1-3.5,6.7-4.6c2.6-1.1,5.5-1.7,8.6-1.7c2.7,0,5.2,0.5,7.5,1.4c2.3,0.9,4.4,2.2,6.1,3.9c1.7,1.7,3.1,3.6,4.1,5.9
						C172.8,778.2,173.3,780.7,173.3,783.4z M150,841.9L150,841.9c-2.8,0-5.1-2.3-5.1-5.1v0c0-2.8,2.3-5.1,5.1-5.1h0
						c2.8,0,5.1,2.3,5.1,5.1v0C155.1,839.7,152.8,841.9,150,841.9z"/>
					<g>
						<path class="st5" d="M171.4,781.5c0,2.3-0.3,4.4-0.8,6.2c-0.6,1.8-1.3,3.4-2.3,4.9c-1,1.5-2.2,2.8-3.5,4.1
							c-1.3,1.2-2.8,2.5-4.4,3.7c-1.3,1.1-2.5,2.1-3.7,3.2c-1.2,1.1-2.2,2.2-3,3.4c-0.9,1.2-1.5,2.5-2,3.9c-0.5,1.4-0.8,3-0.8,4.8
							v6.4h-5.5v-5.7c0-2.8,0.3-5.1,0.9-7.1c0.6-2,1.5-3.8,2.6-5.4c1.1-1.6,2.4-3.1,4-4.4c1.5-1.3,3.2-2.7,5.1-4.2
							c1.1-0.9,2.1-1.8,3.1-2.8c0.9-1,1.8-2,2.5-3.1c0.7-1.1,1.3-2.4,1.7-3.7c0.4-1.3,0.6-2.7,0.6-4.3c0-1.7-0.4-3.3-1.2-4.9
							c-0.8-1.6-1.8-3-3.1-4.2c-1.3-1.2-2.7-2.2-4.4-2.9c-1.6-0.7-3.3-1.1-4.9-1.1c-2.3,0-4.4,0.4-6.4,1.2c-1.9,0.8-3.6,2-5.1,3.4
							c-1.4,1.5-2.6,3.2-3.4,5.1c-0.9,2-1.3,4.1-1.5,6.4h-5.5c0.2-3.1,0.8-6,1.9-8.6c1.1-2.7,2.6-4.9,4.5-6.9
							c1.9-1.9,4.1-3.5,6.7-4.6c2.6-1.1,5.5-1.7,8.6-1.7c2.7,0,5.2,0.5,7.5,1.4c2.3,0.9,4.4,2.2,6.1,3.9c1.7,1.7,3.1,3.6,4.1,5.9
							C170.9,776.3,171.4,778.8,171.4,781.5z M148.1,840L148.1,840c-2.8,0-5.1-2.3-5.1-5.1v0c0-2.8,2.3-5.1,5.1-5.1h0
							c2.8,0,5.1,2.3,5.1,5.1v0C153.2,837.8,150.9,840,148.1,840z"/>
					</g>
				</g>
			</g>
		</g>
		<g>
			<g>
				<g>
					<path class="st0" d="M655,580.3h-8.8v-19c0-5.4-4.4-9.7-9.7-9.7h-17.8c-5.4,0-9.7,4.4-9.7,9.7v19h-8.8c-0.9,0-1.6,0.7-1.6,1.6
						v40.7c0,6.1,4.9,11,11,11h36.1c6.1,0,11-4.9,11-11v-40.7C656.6,581,655.9,580.3,655,580.3z M614.6,561.3c0-2.2,1.8-4,4-4h17.8
						c2.2,0,4,1.8,4,4V579h-25.8V561.3z M653.4,622.6c0,4.3-3.5,7.8-7.8,7.8h-36.1c-4.3,0-7.8-3.5-7.8-7.8v-39.2h51.8V622.6z"/>
					<path class="st0" d="M627.6,596.1c4.2,0,7.6,2.8,7.6,6.4c0,2.8-2.2,5.2-5.3,6.1l3.6,8.2h-11.8l3.6-8.2c-3-0.8-5.3-3.2-5.3-6
						C620,598.9,623.4,596.1,627.6,596.1 M627.6,593.7c-5.5,0-10,3.9-10,8.7c0,3,1.7,5.7,4.5,7.3l-2.6,6c-0.3,0.7-0.3,1.6,0.2,2.3
						c0.4,0.7,1.2,1.1,2,1.1h11.8c0.8,0,1.6-0.4,2-1.1c0.4-0.7,0.5-1.5,0.2-2.3l-2.6-6c2.8-1.6,4.5-4.3,4.5-7.3
						C637.5,597.6,633,593.7,627.6,593.7L627.6,593.7z"/>
					<g>
						<path class="st5" d="M634.6,549.6h-17.8c-5.4,0-9.7,4.4-9.7,9.7V580h37.3v-20.6C644.3,554,639.9,549.6,634.6,549.6z
							 M638.6,577.1h-25.8v-17.7c0-2.2,1.8-4,4-4h17.8c2.2,0,4,1.8,4,4V577.1z"/>
						<path class="st3" d="M641.7,630.1h-32.1c-6.3,0-11.4-5.1-11.4-11.4V580h54.9v38.7C653.1,625,648,630.1,641.7,630.1z"/>
						<g>
							<path class="st5" d="M625.7,594.2c4.2,0,7.6,2.8,7.6,6.4c0,2.8-2.2,5.2-5.3,6.1l3.6,8.2h-11.8l3.6-8.2c-3-0.8-5.3-3.2-5.3-6
								C618.1,597,621.5,594.2,625.7,594.2 M625.7,591.8c-5.5,0-10,3.9-10,8.7c0,3,1.7,5.7,4.5,7.3l-2.6,6c-0.3,0.7-0.3,1.6,0.2,2.3
								c0.4,0.7,1.2,1.1,2,1.1h11.8c0.8,0,1.6-0.4,2-1.1c0.4-0.7,0.5-1.5,0.2-2.3l-2.6-6c2.8-1.6,4.5-4.3,4.5-7.3
								C635.6,595.7,631.1,591.8,625.7,591.8L625.7,591.8z"/>
						</g>
					</g>
				</g>
			</g>
		</g>
		<g>
			<g>
				<g>
					<g>
						<path class="st0" d="M429.1,781.7l-0.1-0.6l-13.5-13.5c0,0,0,0,0,0c-4.1-4.1-11.3-4.6-20.1-1.3c-8.2,3.1-17.1,9.2-25.1,17.1
							c-8,8-14,16.9-17.1,25.1c-3.3,8.8-2.9,15.9,1.3,20.1l13.6,13.6l0.6,0.1c0.2,0.1,1.9,0.4,4.7,0.4c7.2,0,21.8-2.4,37.9-18.4
							C433.3,802,429.3,782.5,429.1,781.7z M357.1,810c2.9-7.7,8.6-16,16.2-23.6c7.5-7.5,15.9-13.3,23.6-16.2c3.4-1.3,6.4-1.9,9-1.9
							c2.8,0,5,0.7,6.4,2.2c2.8,2.8,2.9,8.5,0.3,15.5c-2.9,7.7-8.6,16-16.2,23.6c-7.5,7.5-15.9,13.3-23.6,16.2
							c-7,2.6-12.6,2.5-15.5-0.3C354.6,822.7,354.5,817,357.1,810z M408,821.2c-18.4,18.4-34.8,17.3-38,16.9l-6.1-6.1
							c3.1,0,6.6-0.7,10.5-2.2c8.2-3.1,17.1-9.2,25.1-17.1c8-8,14-16.9,17.1-25.1c1.5-3.9,2.1-7.4,2.2-10.5l6.1,6.1
							C425.4,786.4,426.5,802.7,408,821.2z"/>
						<path class="st0" d="M370.7,817.4c0.4,0.4,1,0.6,1.5,0.6c0.6,0,1.1-0.2,1.5-0.6c0.8-0.8,0.8-2.2,0-3.1l-1.6-1.6l28.6-28.6
							c0.7-0.7,1-1.8,0.6-2.8c-0.4-1-1.3-1.6-2.4-1.6h-10.2c-1.2,0-2.2,1-2.2,2.2s1,2.2,2.2,2.2h6l-25.6,25.6l-1.8-1.8
							c-0.8-0.8-2.2-0.8-3.1,0c-0.8,0.8-0.8,2.2,0,3.1L370.7,817.4z"/>
					</g>
					<g>
						
							<ellipse transform="matrix(0.7071 -0.7071 0.7071 0.7071 -450.7857 503.986)" class="st14" cx="383" cy="796.1" rx="41" ry="18.5"/>
						<path class="st14" d="M354,825.1l13.1,13.1c0,0,18.9,4.3,40.6-17.4s17.4-40.6,17.4-40.6L412,767.2"/>
						<g>
							<path class="st14" d="M386.9,780H397c0.4,0,0.6,0.5,0.3,0.7l-30.1,30.1"/>
							<line class="st14" x1="363.9" y1="807.5" x2="370.3" y2="813.9"/>
						</g>
					</g>
				</g>
			</g>
		</g>
		<g>
			<g>
				<g>
					<path class="st0" d="M831.1,627.8c-0.4,0-0.8-0.1-1.2-0.3c-0.7-0.4-1.2-1.2-1.2-2.1v-65.8c0-0.8,0.5-1.6,1.2-2.1
						c0.7-0.4,1.6-0.4,2.4,0l57.5,32.9c0.7,0.4,1.2,1.2,1.2,2.1c0,0.9-0.5,1.6-1.2,2.1l-57.5,32.9
						C831.9,627.7,831.5,627.8,831.1,627.8z M833.4,563.8v57.6l50.4-28.8L833.4,563.8z"/>
					<path class="st0" d="M898.2,625c-1.3,0-2.4-1.1-2.4-2.4v-60.1c0-1.3,1.1-2.4,2.4-2.4c1.3,0,2.4,1.1,2.4,2.4v60.1
						C900.6,623.9,899.5,625,898.2,625z"/>
					<g>
						<polygon class="st15" points="829.2,623.6 829.2,557.8 886.7,590.7 						"/>
						<line class="st15" x1="896.3" y1="560.6" x2="896.3" y2="620.7"/>
					</g>
				</g>
			</g>
		</g>
		<g>
			<g>
				<g>
					<path class="st0" d="M898.2,838.6c-0.4,0-0.8-0.1-1.2-0.3l-57.5-32.9c-0.7-0.4-1.2-1.2-1.2-2.1c0-0.9,0.5-1.6,1.2-2.1
						l57.5-32.9c0.7-0.4,1.6-0.4,2.4,0c0.7,0.4,1.2,1.2,1.2,2.1v65.8c0,0.8-0.5,1.6-1.2,2.1C899,838.5,898.6,838.6,898.2,838.6z
						 M845.5,803.4l50.4,28.8v-57.6L845.5,803.4z"/>
					<path class="st0" d="M831.1,835.8c-1.3,0-2.4-1.1-2.4-2.4v-60.1c0-1.3,1.1-2.4,2.4-2.4c1.3,0,2.4,1.1,2.4,2.4v60.1
						C833.4,834.7,832.4,835.8,831.1,835.8z"/>
					<g>
						<polygon class="st15" points="896.3,834.3 896.3,768.6 838.8,801.5 						"/>
						<line class="st15" x1="829.2" y1="771.4" x2="829.2" y2="831.5"/>
					</g>
				</g>
			</g>
		</g>
		<g>
			<g>
				<path class="st0" d="M655.4,838.6c-0.4,0-0.8-0.1-1.2-0.3l-57.5-32.9c-0.7-0.4-1.2-1.2-1.2-2.1c0-0.9,0.5-1.6,1.2-2.1l57.5-32.9
					c0.7-0.4,1.6-0.4,2.4,0c0.7,0.4,1.2,1.2,1.2,2.1v65.8c0,0.8-0.5,1.6-1.2,2.1C656.2,838.5,655.8,838.6,655.4,838.6z M602.6,803.4
					l50.4,28.8v-57.6L602.6,803.4z"/>
			</g>
			<polygon class="st15" points="655.4,834.3 655.4,768.6 597.8,801.5 			"/>
		</g>
	</g>
	<g>
		<g>
			<g>
				<g>
					<polygon class="st0" points="915.5,1059.7 867,1059.7 867,1011.3 862.3,1011.3 862.3,1059.7 813.8,1059.7 813.8,1064.5 
						862.3,1064.5 862.3,1113 867,1113 867,1064.5 915.5,1064.5 					"/>
					<g>
						<line class="st16" x1="913.6" y1="1060.2" x2="811.9" y2="1060.2"/>
						<line class="st16" x1="862.7" y1="1009.4" x2="862.7" y2="1111.1"/>
					</g>
				</g>
			</g>
		</g>
		<g>
			<g>
				<g>
					<path class="st0" d="M136,1093.1c0,0-0.1,0-0.1,0c-0.7,0-1.3-0.4-1.7-0.9l-24.3-30.6l3.7-2.9l22.6,28.5l56.1-56.1l3.4,3.4
						l-58,58C137.3,1092.9,136.7,1093.1,136,1093.1z"/>
					<polyline class="st17" points="109.9,1058.3 134.1,1088.9 192.2,1030.8 					"/>
				</g>
			</g>
		</g>
		<g>
			<g>
				<g>
					<polygon class="st0" points="669.6,1023.3 666.2,1020 627.5,1058.7 588.8,1020 585.4,1023.3 624.1,1062 585.4,1100.8 
						588.8,1104.1 627.5,1065.4 666.2,1104.1 669.6,1100.8 630.8,1062 					"/>
					<g>
						<g>
							<line class="st16" x1="666.1" y1="1019.9" x2="585.3" y2="1100.7"/>
							<line class="st16" x1="585.3" y1="1019.9" x2="666.1" y2="1100.7"/>
						</g>
					</g>
				</g>
			</g>
		</g>
		<g>
			<g>
				<g>
					<path class="st0" d="M403.9,1244c-0.9-0.6-2-0.6-3-0.2l-22,10.6h-12.1c-4.9,0-9,4-9,9v19c0,4.9,4,9,9,9H379l22,10.6
						c0.4,0.2,0.9,0.3,1.3,0.3c0.6,0,1.1-0.2,1.6-0.5c0.9-0.6,1.5-1.6,1.5-2.6v-52.5C405.4,1245.6,404.8,1244.6,403.9,1244z
						 M361.1,1282.4v-19c0-3.2,2.6-5.8,5.8-5.8h10.9v30.6h-10.9C363.7,1288.2,361.1,1285.6,361.1,1282.4z M380.9,1288.8V1257
						l21.3-10.4l0.1,52.4L380.9,1288.8z"/>
					<path class="st0" d="M413,1291.3c-0.4,0-0.8-0.2-1.1-0.5c-0.6-0.6-0.6-1.6,0-2.2c5-5,7.5-10.4,7.4-15.9
						c-0.2-9-7.3-15.5-7.3-15.6c-0.6-0.6-0.7-1.6-0.1-2.2c0.6-0.6,1.6-0.7,2.2-0.1c0.3,0.3,8.1,7.5,8.4,17.8
						c0.1,6.4-2.6,12.5-8.3,18.2C413.9,1291.2,413.5,1291.3,413,1291.3z"/>
					<g>
						<path class="st18" d="M377.4,1287.9h-10.9c-5,0-9-4-9-9v-15.8c0-5,4-9,9-9h10.9V1287.9z"/>
						<path class="st18" d="M377.4,1254.1l22.3-10.7c1-0.5,2.2,0.2,2.2,1.4v52.5c0,1.1-1.2,1.9-2.2,1.4l-22.3-10.7V1254.1z"/>
						<path class="st18" d="M411.2,1254.1c0,0,17.7,16.1,0,33.7"/>
					</g>
				</g>
			</g>
		</g>
		<g>
			<g>
				<g>
					<path class="st0" d="M418.6,1100.6h-21.7c-0.9,0-1.6-0.7-1.6-1.6v-20.6l-9.4,0.1v20.5c0,0.9-0.7,1.6-1.6,1.6h-21.7
						c-0.9,0-1.6-0.7-1.6-1.6v-31.5h-11c-0.6,0-1.2-0.4-1.5-1c-0.2-0.6-0.1-1.3,0.3-1.7l40.8-40.8c0.6-0.6,1.6-0.6,2.2,0l39.6,39.6
						c0.5,0.5,0.6,1.1,0.3,1.7c-0.2,0.6-0.8,1-1.5,1h-10.2v32.6C420.2,1099.9,419.4,1100.6,418.6,1100.6z M398.5,1097.4H417v-32.6
						c0-0.9,0.7-1.6,1.6-1.6h8l-35.8-35.8l-36.9,36.9h8.8c0.9,0,1.6,0.7,1.6,1.6v31.5h18.5V1077c0-0.9,0.7-1.6,1.6-1.6l12.6-0.2
						c0.4,0,0.8,0.2,1.1,0.5s0.5,0.7,0.5,1.1V1097.4z"/>
					<path class="st0" d="M423.2,1048.8c-0.4,0-0.8-0.1-1-0.4l-16.6-16.6c-0.4-0.4-0.5-1.1-0.3-1.6c0.2-0.6,0.8-0.9,1.4-0.9h16.6
						c0.8,0,1.5,0.7,1.5,1.5v16.6c0,0.6-0.4,1.1-0.9,1.4C423.6,1048.8,423.4,1048.8,423.2,1048.8z M410.1,1032.2l11.6,11.6v-11.6
						H410.1z"/>
					<g>
						<polygon class="st18" points="382.4,1075.1 382.4,1097.1 360.7,1097.1 360.7,1064.1 348.1,1064.1 388.9,1023.3 428.5,1062.9 
							416.7,1062.9 416.7,1097.1 395,1097.1 395,1074.9 						"/>
						<polygon class="st19" points="404.7,1028.8 421.3,1045.5 421.3,1028.8 						"/>
					</g>
				</g>
			</g>
		</g>
		<g>
			<g>
				<g>
					<path class="st0" d="M631.5,1244c-0.9-0.6-2-0.6-3-0.2l-22,10.6h-12.1c-4.9,0-9,4-9,9v19c0,4.9,4,9,9,9h12.1l22,10.6
						c0.4,0.2,0.9,0.3,1.3,0.3c0.6,0,1.1-0.2,1.6-0.5c0.9-0.6,1.5-1.6,1.5-2.6v-52.5C632.9,1245.6,632.4,1244.6,631.5,1244z
						 M588.6,1282.4v-19c0-3.2,2.6-5.8,5.8-5.8h10.9v30.6h-10.9C591.2,1288.2,588.6,1285.6,588.6,1282.4z M608.5,1288.8V1257
						l21.3-10.4l0.1,52.4L608.5,1288.8z"/>
					<path class="st0" d="M657.7,1274l11.6-17.6c0.5-0.7,0.3-1.7-0.4-2.2s-1.7-0.3-2.2,0.4l-10.9,16.5l-10.9-16.5
						c-0.5-0.7-1.5-0.9-2.2-0.4c-0.7,0.5-0.9,1.5-0.4,2.2L654,1274l-11.6,17.6c-0.5,0.7-0.3,1.7,0.4,2.2c0.3,0.2,0.6,0.3,0.9,0.3
						c0.5,0,1-0.2,1.3-0.7l10.9-16.5l10.9,16.5c0.3,0.5,0.8,0.7,1.3,0.7c0.3,0,0.6-0.1,0.9-0.3c0.7-0.5,0.9-1.5,0.4-2.2L657.7,1274z
						"/>
					<g>
						<path class="st18" d="M605,1287.9h-10.9c-5,0-9-4-9-9v-15.8c0-5,4-9,9-9H605V1287.9z"/>
						<path class="st18" d="M605,1254.1l22.3-10.7c1-0.5,2.2,0.2,2.2,1.4v52.5c0,1.1-1.2,1.9-2.2,1.4l-22.3-10.7V1254.1z"/>
						<g>
							<line class="st18" x1="641.7" y1="1290.6" x2="666.2" y2="1253.7"/>
							<line class="st18" x1="666.2" y1="1290.6" x2="641.7" y2="1253.7"/>
						</g>
					</g>
				</g>
			</g>
		</g>
		<g>
			<g>
				<g>
					<path class="st0" d="M169.8,1257.2c-0.1-10-3.2-19.5-9.1-27.6c-1.9-2.6-4.7-4-7.9-4c-3.2,0-6,1.5-7.9,4
						c-5.9,8.1-9,17.6-9.1,27.6h0v0.3v2.8v0.3v44.2v3.2h2.5v2.7v0.2h-2.4v3.2v3v3.2h3.2h27.5h3.2v-3.2v-3v-3.2h-2.4v-0.2v-2.7h2.4
						v-3.2v-44.2v-0.4v-2.8L169.8,1257.2L169.8,1257.2z M147.5,1231.5c1.3-1.8,3.3-2.7,5.3-2.7c2,0,4,0.9,5.3,2.7
						c5.4,7.5,8.4,16.5,8.5,25.7H139C139.1,1248,142,1239,147.5,1231.5z M141.5,1310.7v-2.7h22.7v2.7H141.5z M166.6,1317h-27.5v-3
						h27.5V1317z M166.6,1304.6h-2.4h-22.7H139v-43.9h27.6V1304.6z"/>
					<g>
						<g>
							<path class="st20" d="M164.7,1258.5v44.5h-27.6v-44.5H164.7 M167.9,1255.3h-3.2h-27.6h-3.2v3.2v44.5v3.2h3.2h27.6h3.2v-3.2
								v-44.5V1255.3L167.9,1255.3z"/>
						</g>
						<g>
							<path class="st20" d="M162.3,1305.8v3h-22.7v-3H162.3 M165.5,1302.7h-3.2h-22.7h-3.2v3.2v3v3.2h3.2h22.7h3.2v-3.2v-3V1302.7
								L165.5,1302.7z"/>
						</g>
						<g>
							<path class="st20" d="M164.7,1312.1v3h-27.5v-3H164.7 M167.9,1309h-3.2h-27.5H134v3.2v3v3.2h3.2h27.5h3.2v-3.2v-3V1309
								L167.9,1309z"/>
						</g>
						<g>
							<path class="st20" d="M150.9,1226.9c2,0,4,0.9,5.3,2.7c5.5,7.6,8.5,16.7,8.5,26v0h-27.6v0c0-9.4,3-18.5,8.5-26
								C146.9,1227.8,148.9,1226.9,150.9,1226.9 M150.9,1223.7c-3.2,0-6,1.5-7.9,4c-5.9,8.2-9.1,17.8-9.1,27.9v3.2l3.2,0h27.6h3.2
								v-3.2c0-10.1-3.1-19.8-9.1-27.9C157,1225.2,154.1,1223.7,150.9,1223.7L150.9,1223.7z"/>
						</g>
					</g>
				</g>
			</g>
		</g>
		<g>
			<g>
				<g>
					<path class="st0" d="M207.4,1518.8l-28.3-28.3l2.6-2.6l-11.1-11.1l1.5-1.5l5.5,5.5l1.4-1.4l1.1,1.1l-1.4,1.4l2.6,2.6
						c0.3,0.3,0.8,0.5,1.3,0.5c0.5,0,0.9-0.2,1.3-0.5l7.7-7.7c0.7-0.7,0.7-1.8,0-2.5l-2.6-2.6l-2.3,2.3l-1.1-1.1l1.9-1.9l-22.8-22.8
						c-0.9-0.9-2.4-0.9-3.4,0l-2.9-2.9c-0.4-0.4-0.9-0.6-1.4-0.6h0c-0.5,0-1,0.2-1.4,0.6l-4.2,4.2c-0.8,0.8-0.8,2.1,0,2.9l3,3
						c-0.4,0.9-0.3,2,0.5,2.7l3.5,3.5l-3.7-0.6l-26.9-26.9l-4.9,2.2l-6.1-6.1c-1-1-2.7-1-3.7,0l-4.7,4.7c-0.5,0.5-0.8,1.2-0.8,1.9
						c0,0.7,0.3,1.4,0.8,1.9l3,3l-1.9,0.9l-2.5-2.5c-0.8-0.8-2.2-0.8-3,0l-2.5,2.5c-0.4,0.4-0.6,0.9-0.6,1.5c0,0.6,0.2,1.1,0.6,1.5
						l12.7,12.7c-4,2.9-8.8,4.7-11.9,5.6c-2.9,0.9-4.9,3.6-4.9,6.6c0,2.5,1.4,4.9,3.6,6.1l2,1.1c1.1,0.6,2.2,0.9,3.4,0.9
						c1.4,0,2.7-0.4,3.9-1.2l17.2-11.6c-0.3,6.4,1,11,3.8,13.8c1.4,1.5,3,2.1,4.2,2.5c-0.5,0.9-1,1.9-1.6,3c-1.6,3-3.6,5.5-6,7.5
						c-2.8,2.3-3.8,6.2-2.4,9.5l1.7,4c1,2.3,3,4.1,5.4,4.7c0.7,0.2,1.4,0.3,2.1,0.3c2.7,0,5.3-1.4,6.8-3.7L153,1489l15.9,15.9
						l5.4-5.4l21.9,21.9l-9.6,9.6c-1.2,1.2-1.2,3.1,0,4.3l1.9,1.9c0.6,0.6,1.4,0.9,2.1,0.9c0.8,0,1.5-0.3,2.1-0.9l14.6-14.6
						C208.5,1521.5,208.5,1519.9,207.4,1518.8z M190.2,1475.5l-7.5,7.5l-1.1-1.1l7.5-7.5L190.2,1475.5z M115,1432.6l5,5l-5.6,2.5
						l-3.5-3.5L115,1432.6z M185.5,1474.9l-4.4,4.4l-1-1l4.4-4.4L185.5,1474.9z M157.1,1447l2.7,2.7l-3.8,3.8l-2.7-2.7L157.1,1447z
						 M157.6,1456.3l5.5-5.5l20.1,20.1l-5.5,5.5l-3.3-3.3l0,0l-10.8-10.8h0L157.6,1456.3z M162.1,1465.2l7.9,7.9l-1.5,1.5l-10-10
						L162.1,1465.2z M103.3,1443.7l2.2-2.2l12.7,12.7c-0.7,0.8-1.4,1.5-2.2,2.2L103.3,1443.7z M108.5,1474.4c-1.2,0.8-2.8,0.9-4,0.2
						l-2-1.1c-1.2-0.7-2-2-2-3.4c0-1.7,1.1-3.2,2.7-3.7c4.5-1.4,12.4-4.5,17.2-10.1l6.1,6.1L108.5,1474.4z M132.8,1477.6
						c-2.2-2.3-3.2-6.4-3.1-11.8l7.3,7.3l-2.7,0.5c-0.6,0.1-1.1,0.7-0.9,1.3c0.1,0.6,0.6,1,1.1,1c0.1,0,0.1,0,0.2,0l3.6-0.6
						c-0.4,0.9-1,2.3-1.9,4.3C135.6,1479.4,134.1,1478.9,132.8,1477.6z M138.9,1505.2c-1.2,1.9-3.5,2.7-5.6,2.2
						c-1.5-0.4-2.8-1.5-3.4-2.9l-1.7-4c-0.9-2.1-0.3-4.4,1.5-5.9c2.7-2.2,5-5,6.8-8.4c2.4-4.4,3.7-7.3,4.5-9.1l9.8,9.8L138.9,1505.2
						z M168.9,1500.5l-56.3-56.3l1.1-0.5l0,0l1.8-0.8c0.1,0.1,0.1,0.3,0.3,0.4l21.7,21.7c0.2,0.2,0.5,0.3,0.8,0.3
						c0.3,0,0.6-0.1,0.8-0.3c0.5-0.5,0.5-1.2,0-1.6l-21.4-21.4l2.6-1.2l20.7,20.7c0.2,0.2,0.5,0.3,0.8,0.3c0.3,0,0.6-0.1,0.8-0.3
						c0.5-0.5,0.5-1.2,0-1.6l-20.1-20.1l4.7-2.1l22.4,22.4h0l18.9,18.9l0,0l8.9,8.9l-0.4,0.4l-6.9,6.9l2.1,2.1L168.9,1500.5z
						 M190.8,1535l-1.9-1.9l9.8-9.8c0.5-0.5,0.8-1.2,0.8-1.9c0-0.7-0.3-1.4-0.8-1.9l-22.2-22.2l0,0l-2.1-2.1l2.5-2.5l28,28
						L190.8,1535z"/>
					<g>
						<path class="st21" d="M185.9,1532.3l1.9,1.9c0.6,0.6,1.5,0.6,2.1,0l14.6-14.6c0.4-0.4,0.4-1.2,0-1.6l-29.4-29.4l-4.7,4.7
							l25.4,25.4c0.4,0.4,0.4,1.2,0,1.6l-9.8,9.8C185.3,1530.8,185.3,1531.7,185.9,1532.3z"/>
						<polygon class="st21" points="173.1,1490.5 177.7,1486 125.6,1433.9 108,1441.9 167,1500.8 172.4,1495.4 170.3,1493.3 						
							"/>
						<path class="st22" d="M120.7,1436.1l-6.9-6.9c-0.4-0.4-1.1-0.4-1.5,0l-4.7,4.7c-0.4,0.4-0.4,1.1,0,1.5l4.5,4.5L120.7,1436.1z"
							/>
						<path class="st21" d="M150.9,1484.7l-12.6,19.5c-1.6,2.4-4.5,3.5-7.3,2.8l0,0c-2-0.5-3.6-1.9-4.4-3.8l-1.7-4
							c-1.1-2.7-0.3-5.8,2-7.7c2-1.6,4.4-4.2,6.4-7.9c4.4-8.3,5.2-11.2,5.2-11.2"/>
						<line class="st23" x1="118.9" y1="1437.8" x2="139.9" y2="1458.8"/>
						<line class="st23" x1="114.7" y1="1440.6" x2="136.4" y2="1462.3"/>
						<path class="st21" d="M126.9,1460.8l-19.4,13.1c-1.7,1.1-3.9,1.2-5.6,0.2l-2-1.1c-1.7-1-2.8-2.8-2.8-4.7l0,0
							c0-2.4,1.5-4.5,3.8-5.2c4.9-1.5,13.3-4.9,17.5-10.9"/>
						<path class="st24" d="M135.7,1478.9c0,0-10.7,0.8-8.8-18.2"/>
						<line class="st23" x1="138.1" y1="1471.9" x2="132.7" y2="1472.8"/>
						<path class="st23" d="M118,1452.4l-13.8-13.8c-0.4-0.4-1-0.4-1.3,0l-2.5,2.5c-0.4,0.4-0.4,1,0,1.3l13.9,13.9L118,1452.4z"/>
						<g>
							<polygon class="st22" points="152.1,1460.4 160.9,1461.8 170.3,1471.2 166.6,1474.9 							"/>
							<path class="st22" d="M175.8,1476.7l-21.6-21.6c-0.4-0.4-0.4-1.1,0-1.5l6.2-6.2c0.4-0.4,1.1-0.4,1.5,0l21.6,21.6
								L175.8,1476.7z"/>
							<path class="st24" d="M159.8,1448.1l-4-4c-0.3-0.3-0.9-0.3-1.2,0l-4.2,4.2c-0.3,0.3-0.3,0.9,0,1.2l4,4L159.8,1448.1z"/>
							
								<rect x="176.9" y="1472.6" transform="matrix(0.7071 -0.7071 0.7071 0.7071 -989.6617 559.6309)" class="st25" width="7.7" height="3.7"/>
							<path class="st26" d="M178.3,1480l8.9-8.9l1.9,1.9c0.3,0.3,0.3,0.8,0,1.2l-7.7,7.7c-0.3,0.3-0.8,0.3-1.2,0L178.3,1480z"/>
						</g>
					</g>
				</g>
			</g>
		</g>
		<g>
			<g>
				<g>
					<g>
						<path class="st0" d="M442.7,1494.5c1.3,0,2.4-1.1,2.4-2.4v-38.4c0-1.3-1.1-2.4-2.4-2.4h-77.9v-14.5c0-1.3-1.1-2.4-2.4-2.4
							h-27.2v4.7h24.9v14.5v38.4v11.8c0,1.3,1.1,2.4,2.4,2.4h82.6v-4.7h-80.2v-7H442.7z M364.9,1456h75.5v33.7h-75.5V1456z"/>
						<path class="st0" d="M373.9,1512c-5.8,0-10.5,4.7-10.5,10.5s4.7,10.5,10.5,10.5s10.5-4.7,10.5-10.5S379.7,1512,373.9,1512z
							 M373.9,1528.2c-3.2,0-5.8-2.6-5.8-5.8c0-3.2,2.6-5.8,5.8-5.8c3.2,0,5.8,2.6,5.8,5.8C379.6,1525.6,377.1,1528.2,373.9,1528.2z
							"/>
						<path class="st0" d="M410.9,1512c-5.8,0-10.5,4.7-10.5,10.5s4.7,10.5,10.5,10.5s10.5-4.7,10.5-10.5S416.7,1512,410.9,1512z
							 M410.9,1528.2c-3.2,0-5.8-2.6-5.8-5.8c0-3.2,2.6-5.8,5.8-5.8c3.2,0,5.8,2.6,5.8,5.8C416.7,1525.6,414.1,1528.2,410.9,1528.2z
							"/>
					</g>
					<g>
						<rect x="360.6" y="1451.8" class="st27" width="80.2" height="38.4"/>
						<polyline class="st27" points="335.7,1434.9 360.6,1434.9 360.6,1451.8 360.6,1490.2 360.6,1502 440.8,1502 						"/>
						<circle class="st27" cx="372" cy="1520.6" r="8.1"/>
						<circle class="st27" cx="409" cy="1520.6" r="8.1"/>
					</g>
				</g>
			</g>
		</g>
		<g>
			<g>
				<g>
					<rect x="812.8" y="1270.9" class="st13" width="101.7" height="4.7"/>
					<line class="st16" x1="914.5" y1="1271" x2="812.8" y2="1271"/>
				</g>
			</g>
		</g>
		<g>
			<g>
				<g>
					<path class="st0" d="M173.3,1674.5c0,2.3-0.3,4.4-0.8,6.2c-0.6,1.8-1.3,3.4-2.3,4.9c-1,1.5-2.2,2.8-3.5,4.1
						c-1.3,1.2-2.8,2.5-4.4,3.7c-1.3,1.1-2.5,2.1-3.7,3.2c-1.2,1.1-2.2,2.2-3,3.4c-0.9,1.2-1.5,2.5-2,3.9c-0.5,1.4-0.8,3-0.8,4.8
						v6.4h-5.5v-5.7c0-2.8,0.3-5.1,0.9-7.1c0.6-2,1.5-3.8,2.6-5.4c1.1-1.6,2.4-3.1,4-4.4c1.5-1.3,3.2-2.7,5.1-4.2
						c1.1-0.9,2.1-1.8,3.1-2.8c0.9-1,1.8-2,2.5-3.1c0.7-1.1,1.3-2.4,1.7-3.7c0.4-1.3,0.6-2.7,0.6-4.3c0-1.7-0.4-3.3-1.2-4.9
						c-0.8-1.6-1.8-3-3.1-4.2c-1.3-1.2-2.7-2.2-4.4-2.9c-1.6-0.7-3.3-1.1-4.9-1.1c-2.3,0-4.4,0.4-6.4,1.2c-1.9,0.8-3.6,2-5.1,3.4
						c-1.4,1.5-2.6,3.2-3.4,5.1c-0.9,2-1.3,4.1-1.5,6.4h-5.5c0.2-3.1,0.8-6,1.9-8.6c1.1-2.7,2.6-4.9,4.5-6.9
						c1.9-1.9,4.1-3.5,6.7-4.6c2.6-1.1,5.5-1.7,8.6-1.7c2.7,0,5.2,0.5,7.5,1.4c2.3,0.9,4.4,2.2,6.1,3.9c1.7,1.7,3.1,3.6,4.1,5.9
						C172.8,1669.3,173.3,1671.8,173.3,1674.5z M150,1733L150,1733c-2.8,0-5.1-2.3-5.1-5.1v0c0-2.8,2.3-5.1,5.1-5.1h0
						c2.8,0,5.1,2.3,5.1,5.1v0C155.1,1730.8,152.8,1733,150,1733z"/>
					<g>
						<path class="st20" d="M171.4,1672.6c0,2.3-0.3,4.4-0.8,6.2c-0.6,1.8-1.3,3.4-2.3,4.9c-1,1.5-2.2,2.8-3.5,4.1
							c-1.3,1.2-2.8,2.5-4.4,3.7c-1.3,1.1-2.5,2.1-3.7,3.2c-1.2,1.1-2.2,2.2-3,3.4c-0.9,1.2-1.5,2.5-2,3.9c-0.5,1.4-0.8,3-0.8,4.8
							v6.4h-5.5v-5.7c0-2.8,0.3-5.1,0.9-7.1c0.6-2,1.5-3.8,2.6-5.4c1.1-1.6,2.4-3.1,4-4.4c1.5-1.3,3.2-2.7,5.1-4.2
							c1.1-0.9,2.1-1.8,3.1-2.8c0.9-1,1.8-2,2.5-3.1c0.7-1.1,1.3-2.4,1.7-3.7c0.4-1.3,0.6-2.7,0.6-4.3c0-1.7-0.4-3.3-1.2-4.9
							c-0.8-1.6-1.8-3-3.1-4.2c-1.3-1.2-2.7-2.2-4.4-2.9c-1.6-0.7-3.3-1.1-4.9-1.1c-2.3,0-4.4,0.4-6.4,1.2c-1.9,0.8-3.6,2-5.1,3.4
							c-1.4,1.5-2.6,3.2-3.4,5.1c-0.9,2-1.3,4.1-1.5,6.4h-5.5c0.2-3.1,0.8-6,1.9-8.6c1.1-2.7,2.6-4.9,4.5-6.9
							c1.9-1.9,4.1-3.5,6.7-4.6c2.6-1.1,5.5-1.7,8.6-1.7c2.7,0,5.2,0.5,7.5,1.4c2.3,0.9,4.4,2.2,6.1,3.9c1.7,1.7,3.1,3.6,4.1,5.9
							C170.9,1667.4,171.4,1669.9,171.4,1672.6z M148.1,1731.1L148.1,1731.1c-2.8,0-5.1-2.3-5.1-5.1v0c0-2.8,2.3-5.1,5.1-5.1h0
							c2.8,0,5.1,2.3,5.1,5.1v0C153.2,1728.9,150.9,1731.1,148.1,1731.1z"/>
					</g>
				</g>
			</g>
		</g>
		<g>
			<g>
				<g>
					<path class="st0" d="M655,1471.4h-8.8v-19c0-5.4-4.4-9.7-9.7-9.7h-17.8c-5.4,0-9.7,4.4-9.7,9.7v19h-8.8c-0.9,0-1.6,0.7-1.6,1.6
						v40.7c0,6.1,4.9,11,11,11h36.1c6.1,0,11-4.9,11-11V1473C656.6,1472.1,655.9,1471.4,655,1471.4z M614.6,1452.4c0-2.2,1.8-4,4-4
						h17.8c2.2,0,4,1.8,4,4v17.7h-25.8V1452.4z M653.4,1513.7c0,4.3-3.5,7.8-7.8,7.8h-36.1c-4.3,0-7.8-3.5-7.8-7.8v-39.2h51.8
						V1513.7z"/>
					<path class="st0" d="M627.6,1487.1c4.2,0,7.6,2.8,7.6,6.4c0,2.8-2.2,5.2-5.3,6.1l3.6,8.2h-11.8l3.6-8.2c-3-0.8-5.3-3.2-5.3-6
						C620,1490,623.4,1487.1,627.6,1487.1 M627.6,1484.8c-5.5,0-10,3.9-10,8.7c0,3,1.7,5.7,4.5,7.3l-2.6,6c-0.3,0.7-0.3,1.6,0.2,2.3
						c0.4,0.7,1.2,1.1,2,1.1h11.8c0.8,0,1.6-0.4,2-1.1c0.4-0.7,0.5-1.5,0.2-2.3l-2.6-6c2.8-1.6,4.5-4.3,4.5-7.3
						C637.5,1488.7,633,1484.8,627.6,1484.8L627.6,1484.8z"/>
					<g>
						<path class="st20" d="M634.6,1440.7h-17.8c-5.4,0-9.7,4.4-9.7,9.7v20.6h37.3v-20.6C644.3,1445.1,639.9,1440.7,634.6,1440.7z
							 M638.6,1468.2h-25.8v-17.7c0-2.2,1.8-4,4-4h17.8c2.2,0,4,1.8,4,4V1468.2z"/>
						<path class="st18" d="M641.7,1521.2h-32.1c-6.3,0-11.4-5.1-11.4-11.4v-38.7h54.9v38.7C653.1,1516.1,648,1521.2,641.7,1521.2z"
							/>
						<g>
							<path class="st20" d="M625.7,1485.3c4.2,0,7.6,2.8,7.6,6.4c0,2.8-2.2,5.2-5.3,6.1l3.6,8.2h-11.8l3.6-8.2
								c-3-0.8-5.3-3.2-5.3-6C618.1,1488.1,621.5,1485.3,625.7,1485.3 M625.7,1482.9c-5.5,0-10,3.9-10,8.7c0,3,1.7,5.7,4.5,7.3
								l-2.6,6c-0.3,0.7-0.3,1.6,0.2,2.3c0.4,0.7,1.2,1.1,2,1.1h11.8c0.8,0,1.6-0.4,2-1.1c0.4-0.7,0.5-1.5,0.2-2.3l-2.6-6
								c2.8-1.6,4.5-4.3,4.5-7.3C635.6,1486.8,631.1,1482.9,625.7,1482.9L625.7,1482.9z"/>
						</g>
					</g>
				</g>
			</g>
		</g>
		<g>
			<g>
				<g>
					<g>
						<path class="st0" d="M429.1,1672.8l-0.1-0.6l-13.5-13.5c0,0,0,0,0,0c-4.1-4.1-11.3-4.6-20.1-1.3c-8.2,3.1-17.1,9.2-25.1,17.1
							c-8,8-14,16.9-17.1,25.1c-3.3,8.8-2.9,15.9,1.3,20.1l13.6,13.6l0.6,0.1c0.2,0.1,1.9,0.4,4.7,0.4c7.2,0,21.8-2.4,37.9-18.4
							C433.3,1693.1,429.3,1673.6,429.1,1672.8z M357.1,1701.1c2.9-7.7,8.6-16,16.2-23.6c7.5-7.5,15.9-13.3,23.6-16.2
							c3.4-1.3,6.4-1.9,9-1.9c2.8,0,5,0.7,6.4,2.2c2.8,2.8,2.9,8.5,0.3,15.5c-2.9,7.7-8.6,16-16.2,23.6
							c-7.5,7.5-15.9,13.3-23.6,16.2c-7,2.6-12.6,2.5-15.5-0.3C354.6,1713.8,354.5,1708.1,357.1,1701.1z M408,1712.3
							c-18.4,18.4-34.8,17.3-38,16.9l-6.1-6.1c3.1,0,6.6-0.7,10.5-2.2c8.2-3.1,17.1-9.2,25.1-17.1c8-8,14-16.9,17.1-25.1
							c1.5-3.9,2.1-7.4,2.2-10.5l6.1,6.1C425.4,1677.5,426.5,1693.8,408,1712.3z"/>
						<path class="st0" d="M370.7,1708.4c0.4,0.4,1,0.6,1.5,0.6c0.6,0,1.1-0.2,1.5-0.6c0.8-0.8,0.8-2.2,0-3.1l-1.6-1.6l28.6-28.6
							c0.7-0.7,1-1.8,0.6-2.8c-0.4-1-1.3-1.6-2.4-1.6h-10.2c-1.2,0-2.2,1-2.2,2.2s1,2.2,2.2,2.2h6l-25.6,25.6l-1.8-1.8
							c-0.8-0.8-2.2-0.8-3.1,0c-0.8,0.8-0.8,2.2,0,3.1L370.7,1708.4z"/>
					</g>
					<g>
						
							<ellipse transform="matrix(0.7071 -0.7071 0.7071 0.7071 -1080.8816 764.9802)" class="st28" cx="383" cy="1687.2" rx="41" ry="18.5"/>
						<path class="st28" d="M354,1716.2l13.1,13.1c0,0,18.9,4.3,40.6-17.4s17.4-40.6,17.4-40.6l-13.1-13.1"/>
						<g>
							<path class="st28" d="M386.9,1671H397c0.4,0,0.6,0.5,0.3,0.7l-30.1,30.1"/>
							<line class="st28" x1="363.9" y1="1698.6" x2="370.3" y2="1705"/>
						</g>
					</g>
				</g>
			</g>
		</g>
		<g>
			<g>
				<g>
					<path class="st0" d="M831.1,1518.9c-0.4,0-0.8-0.1-1.2-0.3c-0.7-0.4-1.2-1.2-1.2-2.1v-65.8c0-0.8,0.5-1.6,1.2-2.1
						c0.7-0.4,1.6-0.4,2.4,0l57.5,32.9c0.7,0.4,1.2,1.2,1.2,2.1s-0.5,1.6-1.2,2.1l-57.5,32.9
						C831.9,1518.8,831.5,1518.9,831.1,1518.9z M833.4,1454.9v57.6l50.4-28.8L833.4,1454.9z"/>
					<path class="st0" d="M898.2,1516.1c-1.3,0-2.4-1.1-2.4-2.4v-60.1c0-1.3,1.1-2.4,2.4-2.4c1.3,0,2.4,1.1,2.4,2.4v60.1
						C900.6,1515,899.5,1516.1,898.2,1516.1z"/>
					<g>
						<polygon class="st29" points="829.2,1514.7 829.2,1448.9 886.7,1481.8 						"/>
						<line class="st29" x1="896.3" y1="1451.7" x2="896.3" y2="1511.8"/>
					</g>
				</g>
			</g>
		</g>
		<g>
			<g>
				<g>
					<path class="st0" d="M898.2,1729.7c-0.4,0-0.8-0.1-1.2-0.3l-57.5-32.9c-0.7-0.4-1.2-1.2-1.2-2.1s0.5-1.6,1.2-2.1l57.5-32.9
						c0.7-0.4,1.6-0.4,2.4,0c0.7,0.4,1.2,1.2,1.2,2.1v65.8c0,0.8-0.5,1.6-1.2,2.1C899,1729.6,898.6,1729.7,898.2,1729.7z
						 M845.5,1694.4l50.4,28.8v-57.6L845.5,1694.4z"/>
					<path class="st0" d="M831.1,1726.8c-1.3,0-2.4-1.1-2.4-2.4v-60.1c0-1.3,1.1-2.4,2.4-2.4c1.3,0,2.4,1.1,2.4,2.4v60.1
						C833.4,1725.8,832.4,1726.8,831.1,1726.8z"/>
					<g>
						<polygon class="st29" points="896.3,1725.4 896.3,1659.7 838.8,1692.5 						"/>
						<line class="st29" x1="829.2" y1="1662.5" x2="829.2" y2="1722.6"/>
					</g>
				</g>
			</g>
		</g>
		<g>
			<g>
				<path class="st0" d="M655.4,1729.7c-0.4,0-0.8-0.1-1.2-0.3l-57.5-32.9c-0.7-0.4-1.2-1.2-1.2-2.1s0.5-1.6,1.2-2.1l57.5-32.9
					c0.7-0.4,1.6-0.4,2.4,0c0.7,0.4,1.2,1.2,1.2,2.1v65.8c0,0.8-0.5,1.6-1.2,2.1C656.2,1729.6,655.8,1729.7,655.4,1729.7z
					 M602.6,1694.4l50.4,28.8v-57.6L602.6,1694.4z"/>
			</g>
			<polygon class="st29" points="655.4,1725.4 655.4,1659.7 597.8,1692.5 			"/>
		</g>
	</g>
</g>
</svg>
